<svg width="969" height="174" viewBox="0 0 969 174" fill="none" xmlns="http://www.w3.org/2000/svg">
<path d="M289 142.5C278.6 142.5 269.8 140.7 262.6 137.1C255.5 133.4 249.4 128.2 244.3 121.5L259.9 103.95C264.8 110.65 269.75 115.15 274.75 117.45C279.75 119.75 284.9 120.9 290.2 120.9C292.9 120.9 295.3 120.55 297.4 119.85C299.6 119.15 301.3 118.15 302.5 116.85C303.8 115.45 304.45 113.8 304.45 111.9C304.45 110.4 304.05 109.05 303.25 107.85C302.55 106.65 301.55 105.6 300.25 104.7C298.95 103.8 297.45 103 295.75 102.3C294.05 101.5 292.15 100.85 290.05 100.35C288.05 99.85 286 99.4 283.9 99C278.1 97.8 273.05 96.25 268.75 94.35C264.55 92.35 261 90 258.1 87.3C255.3 84.5 253.2 81.35 251.8 77.85C250.4 74.25 249.7 70.2 249.7 65.7C249.7 59.3 251.5 53.7 255.1 48.9C258.8 44.1 263.65 40.35 269.65 37.65C275.65 34.95 282.15 33.6 289.15 33.6C299.35 33.6 307.55 35.25 313.75 38.55C320.05 41.75 325.05 46.2 328.75 51.9L312.85 67.35C309.75 63.35 306.2 60.35 302.2 58.35C298.3 56.35 294.2 55.35 289.9 55.35C287 55.35 284.45 55.7 282.25 56.4C280.05 57.1 278.35 58.15 277.15 59.55C276.05 60.85 275.5 62.45 275.5 64.35C275.5 65.95 275.95 67.4 276.85 68.7C277.85 69.9 279.2 70.95 280.9 71.85C282.6 72.75 284.55 73.55 286.75 74.25C288.95 74.85 291.25 75.35 293.65 75.75C299.15 76.85 304.1 78.3 308.5 80.1C313 81.9 316.85 84.15 320.05 86.85C323.25 89.45 325.7 92.55 327.4 96.15C329.2 99.65 330.1 103.7 330.1 108.3C330.1 115.5 328.35 121.65 324.85 126.75C321.35 131.85 316.5 135.75 310.3 138.45C304.1 141.15 297 142.5 289 142.5ZM346.865 141V30H370.715V77.55L365.765 79.35C366.865 75.75 368.815 72.5 371.615 69.6C374.515 66.6 377.965 64.2 381.965 62.4C385.965 60.6 390.165 59.7 394.565 59.7C400.565 59.7 405.615 60.95 409.715 63.45C413.815 65.85 416.865 69.5 418.865 74.4C420.965 79.2 422.015 85.15 422.015 92.25V141H397.865V94.05C397.865 90.85 397.415 88.2 396.515 86.1C395.615 84 394.265 82.45 392.465 81.45C390.665 80.45 388.415 80 385.715 80.1C383.615 80.1 381.665 80.45 379.865 81.15C378.065 81.75 376.465 82.7 375.065 84C373.765 85.2 372.765 86.6 372.065 88.2C371.365 89.8 371.015 91.6 371.015 93.6V141H358.865C356.265 141 353.915 141 351.815 141C349.815 141 348.165 141 346.865 141ZM479.576 142.5C471.376 142.5 464.026 140.75 457.526 137.25C451.026 133.65 445.926 128.75 442.226 122.55C438.526 116.25 436.676 109.15 436.676 101.25C436.676 93.15 438.526 86 442.226 79.8C445.926 73.5 451.026 68.6 457.526 65.1C464.026 61.5 471.376 59.7 479.576 59.7C487.876 59.7 495.226 61.5 501.626 65.1C508.126 68.6 513.226 73.5 516.926 79.8C520.626 86 522.476 93.15 522.476 101.25C522.476 109.15 520.626 116.25 516.926 122.55C513.226 128.75 508.126 133.65 501.626 137.25C495.226 140.75 487.876 142.5 479.576 142.5ZM479.576 121.8C483.176 121.8 486.326 120.9 489.026 119.1C491.826 117.3 494.026 114.85 495.626 111.75C497.226 108.65 497.976 105.15 497.876 101.25C497.976 97.15 497.226 93.55 495.626 90.45C494.026 87.25 491.826 84.8 489.026 83.1C486.326 81.3 483.176 80.4 479.576 80.4C476.076 80.4 472.926 81.3 470.126 83.1C467.326 84.9 465.126 87.35 463.526 90.45C461.926 93.55 461.126 97.15 461.126 101.25C461.126 105.15 461.926 108.65 463.526 111.75C465.126 114.85 467.326 117.3 470.126 119.1C472.926 120.9 476.076 121.8 479.576 121.8ZM538.173 174V61.35H561.123L562.173 78.9L557.523 77.55C558.123 74.35 559.773 71.45 562.473 68.85C565.273 66.15 568.723 64 572.823 62.4C576.923 60.7 581.273 59.85 585.873 59.85C592.673 59.85 598.723 61.6 604.023 65.1C609.323 68.6 613.473 73.5 616.473 79.8C619.573 86 621.123 93.15 621.123 101.25C621.123 109.15 619.573 116.2 616.473 122.4C613.473 128.6 609.273 133.5 603.873 137.1C598.573 140.6 592.523 142.35 585.723 142.35C581.123 142.35 576.773 141.5 572.673 139.8C568.573 138 565.123 135.7 562.323 132.9C559.523 130.1 557.723 127.05 556.923 123.75L562.473 121.5V174H538.173ZM579.873 121.95C583.473 121.95 586.573 121.1 589.173 119.4C591.873 117.7 593.923 115.3 595.323 112.2C596.823 109 597.573 105.35 597.573 101.25C597.573 97.05 596.823 93.4 595.323 90.3C593.923 87.1 591.873 84.65 589.173 82.95C586.573 81.15 583.473 80.25 579.873 80.25C576.173 80.25 572.973 81.15 570.273 82.95C567.573 84.65 565.473 87.05 563.973 90.15C562.473 93.25 561.723 96.95 561.723 101.25C561.723 105.35 562.473 109 563.973 112.2C565.473 115.3 567.573 117.7 570.273 119.4C572.973 121.1 576.173 121.95 579.873 121.95ZM658.354 110.25L651.754 88.5L703.654 36H734.104L658.354 110.25ZM639.304 141V36H664.954V141H639.304ZM706.804 141L667.954 89.7L685.204 74.85L736.804 141H706.804ZM749.582 141V61.35H773.732V141H749.582ZM761.732 45.6C757.132 45.6 753.532 44.55 750.932 42.45C748.432 40.25 747.182 37.15 747.182 33.15C747.182 29.45 748.482 26.45 751.082 24.15C753.682 21.85 757.232 20.7 761.732 20.7C766.132 20.7 769.582 21.8 772.082 24C774.682 26.1 775.982 29.15 775.982 33.15C775.982 36.85 774.682 39.85 772.082 42.15C769.582 44.45 766.132 45.6 761.732 45.6ZM796.275 141V61.35H819.225L819.975 75.75L816.675 76.05C817.775 73.45 819.275 71.15 821.175 69.15C823.075 67.15 825.175 65.5 827.475 64.2C829.875 62.8 832.375 61.75 834.975 61.05C837.575 60.25 840.175 59.85 842.775 59.85C846.775 59.85 850.325 60.45 853.425 61.65C856.625 62.85 859.375 64.8 861.675 67.5C864.075 70.2 865.975 73.8 867.375 78.3L863.775 77.7L864.825 75.6C866.225 73.2 867.925 71.05 869.925 69.15C872.025 67.15 874.325 65.45 876.825 64.05C879.325 62.65 881.875 61.6 884.475 60.9C887.175 60.2 889.775 59.85 892.275 59.85C898.575 59.85 903.825 61.1 908.025 63.6C912.225 66.1 915.375 69.8 917.475 74.7C919.575 79.5 920.625 85.45 920.625 92.55V141H896.475V94.35C896.475 89.65 895.475 86.15 893.475 83.85C891.575 81.45 888.675 80.25 884.775 80.25C882.675 80.25 880.725 80.6 878.925 81.3C877.225 81.9 875.725 82.85 874.425 84.15C873.225 85.35 872.275 86.75 871.575 88.35C870.875 89.95 870.525 91.75 870.525 93.75V141H846.375V94.2C846.375 89.7 845.325 86.25 843.225 83.85C841.225 81.45 838.375 80.25 834.675 80.25C832.675 80.25 830.775 80.6 828.975 81.3C827.275 81.9 825.775 82.85 824.475 84.15C823.275 85.35 822.325 86.75 821.625 88.35C820.925 89.95 820.575 91.75 820.575 93.75V141H796.275ZM942.063 141V61.35H966.213V141H942.063ZM954.213 45.6C949.613 45.6 946.013 44.55 943.413 42.45C940.913 40.25 939.663 37.15 939.663 33.15C939.663 29.45 940.963 26.45 943.563 24.15C946.163 21.85 949.713 20.7 954.213 20.7C958.613 20.7 962.063 21.8 964.563 24C967.163 26.1 968.463 29.15 968.463 33.15C968.463 36.85 967.163 39.85 964.563 42.15C962.063 44.45 958.613 45.6 954.213 45.6Z" fill="#1f2329"/>
<path d="M15.2674 54.7582L64.8981 33.9453L123.695 9.28372C114.681 13.7907 106.933 20.7792 101.364 29.6921C90.225 47.518 89.9765 70.4589 101.376 88.2853L103.048 91.02L105.125 94.0079L140.184 145.208C143.123 150.424 142.517 156.805 139.073 161.414C134.111 168.453 124.742 169.921 117.448 165.363L12.086 99.526C1.14456 92.689 -3.11278 78.7623 2.50671 67.064C5.39249 61.5441 9.64607 57.4421 15.2674 54.7582Z" fill="#1f2329"/>
<path d="M103.946 83.6374C103.283 85.1281 102.83 86.7078 102.589 88.3247C93.4383 73.8973 91.6098 55.4395 98.3576 39.277C102.391 30.2337 108.686 22.7082 116.469 17.317C117.8 16.5623 122.818 13.5796 127.509 10.7826C129.958 9.32242 132.342 7.89872 134.113 6.84013C134.998 6.31081 135.731 5.87273 136.242 5.56697L136.835 5.21266L136.99 5.11956L137.03 5.09569L137.04 5.08965L137.043 5.08812L137.043 5.08774C137.043 5.08766 137.044 5.08761 135.69 2.82608L137.044 5.08762L137.048 5.08481C141.18 2.60178 146.55 2.34889 150.924 4.29631C158.484 7.662 161.621 16.3636 158.172 24.1108C157.586 25.4266 156.651 26.6596 155.438 28.2117L107.727 77.9322L107.364 78.3103L107.151 78.7891L107.11 78.8815C107.01 79.007 106.908 79.134 106.805 79.2628C105.846 80.456 104.761 81.8071 103.946 83.6374Z" fill="white" stroke="#1f2329" stroke-width="6"/>
<path d="M57 89C66.3888 89 74 81.8366 74 73C74 64.1635 66.3888 57 57 57C47.6112 57 40 64.1635 40 73C40 81.8366 47.6112 89 57 89Z" fill="white"/>
</svg>
