<svg width="1073" height="167" viewBox="0 0 1073 167" fill="none" xmlns="http://www.w3.org/2000/svg">
<path d="M289 141.5C278.6 141.5 269.8 139.7 262.6 136.1C255.5 132.4 249.4 127.2 244.3 120.5L259.9 102.95C264.8 109.65 269.75 114.15 274.75 116.45C279.75 118.75 284.9 119.9 290.2 119.9C292.9 119.9 295.3 119.55 297.4 118.85C299.6 118.15 301.3 117.15 302.5 115.85C303.8 114.45 304.45 112.8 304.45 110.9C304.45 109.4 304.05 108.05 303.25 106.85C302.55 105.65 301.55 104.6 300.25 103.7C298.95 102.8 297.45 102 295.75 101.3C294.05 100.5 292.15 99.85 290.05 99.35C288.05 98.85 286 98.4 283.9 98C278.1 96.8 273.05 95.25 268.75 93.35C264.55 91.35 261 89 258.1 86.3C255.3 83.5 253.2 80.35 251.8 76.85C250.4 73.25 249.7 69.2 249.7 64.7C249.7 58.3 251.5 52.7 255.1 47.9C258.8 43.1 263.65 39.35 269.65 36.65C275.65 33.95 282.15 32.6 289.15 32.6C299.35 32.6 307.55 34.25 313.75 37.55C320.05 40.75 325.05 45.2 328.75 50.9L312.85 66.35C309.75 62.35 306.2 59.35 302.2 57.35C298.3 55.35 294.2 54.35 289.9 54.35C287 54.35 284.45 54.7 282.25 55.4C280.05 56.1 278.35 57.15 277.15 58.55C276.05 59.85 275.5 61.45 275.5 63.35C275.5 64.95 275.95 66.4 276.85 67.7C277.85 68.9 279.2 69.95 280.9 70.85C282.6 71.75 284.55 72.55 286.75 73.25C288.95 73.85 291.25 74.35 293.65 74.75C299.15 75.85 304.1 77.3 308.5 79.1C313 80.9 316.85 83.15 320.05 85.85C323.25 88.45 325.7 91.55 327.4 95.15C329.2 98.65 330.1 102.7 330.1 107.3C330.1 114.5 328.35 120.65 324.85 125.75C321.35 130.85 316.5 134.75 310.3 137.45C304.1 140.15 297 141.5 289 141.5ZM414.515 140V35H440.165V140H414.515ZM349.265 140V35H374.915V140H349.265ZM359.465 99.2V76.1H428.015V99.2H359.465ZM514.156 141.5C506.256 141.5 498.956 140.15 492.256 137.45C485.656 134.75 479.906 131 475.006 126.2C470.206 121.3 466.456 115.55 463.756 108.95C461.056 102.25 459.706 95 459.706 87.2C459.706 79.3 461.056 72.05 463.756 65.45C466.456 58.75 470.206 52.95 475.006 48.05C479.906 43.15 485.656 39.35 492.256 36.65C498.956 33.95 506.256 32.6 514.156 32.6C521.956 32.6 529.156 33.95 535.756 36.65C542.356 39.35 548.056 43.15 552.856 48.05C557.756 52.95 561.556 58.75 564.256 65.45C566.956 72.05 568.306 79.3 568.306 87.2C568.306 95 566.956 102.2 564.256 108.8C561.556 115.4 557.756 121.15 552.856 126.05C548.056 130.95 542.356 134.75 535.756 137.45C529.156 140.15 521.956 141.5 514.156 141.5ZM514.156 117.35C518.256 117.35 522.006 116.6 525.406 115.1C528.806 113.6 531.756 111.5 534.256 108.8C536.856 106.1 538.856 102.9 540.256 99.2C541.656 95.5 542.356 91.5 542.356 87.2C542.356 82.8 541.656 78.75 540.256 75.05C538.856 71.35 536.856 68.15 534.256 65.45C531.756 62.65 528.806 60.5 525.406 59C522.006 57.5 518.256 56.75 514.156 56.75C510.056 56.75 506.256 57.5 502.756 59C499.356 60.5 496.356 62.65 493.756 65.45C491.256 68.15 489.306 71.35 487.906 75.05C486.506 78.75 485.806 82.8 485.806 87.2C485.806 93 487.006 98.2 489.406 102.8C491.906 107.3 495.256 110.85 499.456 113.45C503.756 116.05 508.656 117.35 514.156 117.35ZM587.741 140V35H633.191C639.791 35 645.691 36.5 650.891 39.5C656.091 42.5 660.191 46.6 663.191 51.8C666.191 56.9 667.691 62.75 667.691 69.35C667.691 76.05 666.191 82.1 663.191 87.5C660.191 92.9 656.091 97.15 650.891 100.25C645.691 103.35 639.791 104.9 633.191 104.9H613.391V140H587.741ZM613.091 82.25H629.741C631.941 82.25 633.891 81.75 635.591 80.75C637.391 79.65 638.841 78.15 639.941 76.25C641.041 74.35 641.591 72.2 641.591 69.8C641.591 67.3 641.041 65.15 639.941 63.35C638.841 61.55 637.391 60.15 635.591 59.15C633.891 58.15 631.941 57.65 629.741 57.65H613.091V82.25ZM706.108 109.25L699.508 87.5L751.408 35H781.858L706.108 109.25ZM687.058 140V35H712.708V140H687.058ZM754.558 140L715.708 88.7L732.958 73.85L784.558 140H754.558ZM796.436 140V118.4H814.136V56.6H796.436V35H857.486V56.6H839.786V118.4H857.486V140H796.436ZM881.589 140V35H904.539L942.639 96.95L926.439 96.8L964.989 35H987.189V140H962.289V108.2C962.289 99 962.489 90.75 962.889 83.45C963.389 76.05 964.189 68.8 965.289 61.7L968.139 69.5L939.189 114.35H928.989L900.639 69.8L903.489 61.7C904.689 68.4 905.489 75.35 905.889 82.55C906.389 89.65 906.639 98.2 906.639 108.2V140H881.589ZM1011.33 140V118.4H1029.03V56.6H1011.33V35H1072.38V56.6H1054.68V118.4H1072.38V140H1011.33Z" fill="#333333"/>
<path d="M102.621 90.2808L102.629 90.2933L102.637 90.3054L104.713 93.2904L104.715 93.2933L139.759 144.472C142.584 149.505 141.999 155.663 138.673 160.114L138.673 160.114L138.665 160.125C133.869 166.928 124.802 168.369 117.713 163.939L12.3509 98.1019C1.62216 91.3979 -2.54695 77.7491 2.95371 66.2882C5.78742 60.8715 9.95621 56.8508 15.472 54.2146L65.0915 33.4064L117.03 11.6215C110.677 15.9562 105.181 21.639 100.94 28.4271C89.7029 46.4098 89.4479 69.5567 100.952 87.5504C100.953 87.5518 100.954 87.5532 100.955 87.5546L102.621 90.2808Z" fill="#333333" stroke="white"/>
<path d="M97.0046 79.0267C96.6826 79.5844 96.3918 80.1573 96.1322 80.7428C88.9845 65.7649 88.9923 48.5858 96.595 34.5958C101.365 26.3552 108.33 19.8818 116.688 15.6737C118.284 15.046 123.763 12.7709 128.849 10.6512C131.557 9.523 134.192 8.42243 136.149 7.60398C137.128 7.19473 137.938 6.85597 138.503 6.61949L139.158 6.34546L139.33 6.27343L139.375 6.25496L139.386 6.25027L139.389 6.24909L139.389 6.24879C139.389 6.24873 139.389 6.24868 137.788 2.42423L139.389 6.24869L139.397 6.24546C143.506 4.5162 148.842 4.92853 153.118 7.39735C160.537 11.6811 162.661 20.1667 158.977 26.5462C158.397 27.5509 157.5 28.4955 156.109 29.8826L101.852 73.3166L101.191 73.846L100.838 74.4578C100.79 74.5036 100.742 74.5501 100.693 74.5972C99.591 75.6607 98.1391 77.0617 97.0046 79.0267Z" fill="white" stroke="#333333" stroke-width="9"/>
<path d="M57 88C66.3888 88 74 80.8366 74 72C74 63.1635 66.3888 56 57 56C47.6112 56 40 63.1635 40 72C40 80.8366 47.6112 88 57 88Z" fill="white"/>
</svg>
