<svg width="48" height="48" viewBox="0 0 48 48" fill="none" xmlns="http://www.w3.org/2000/svg">
<g clip-path="url(#clip0_323_39)">
<path d="M8.48318 18.5671L19.485 13.9534L32.5189 8.48654C30.5206 9.48562 28.8032 11.0348 27.5686 13.0106C25.0994 16.9621 25.0443 22.0475 27.5713 25.9992L27.9419 26.6054L28.4024 27.2678L36.1741 38.6175C36.8255 39.7738 36.6911 41.1883 35.9278 42.2099C34.8279 43.7703 32.7509 44.0958 31.1339 43.0854L7.77792 28.491C5.35249 26.9754 4.40874 23.8882 5.65444 21.295C6.29415 20.0713 7.23706 19.1621 8.48318 18.5671Z" fill="#333333"/>
<path d="M28.2917 25.036C28.0885 25.4922 27.9783 25.9881 27.962 26.4906C25.6803 23.1938 25.1705 18.8525 26.7505 15.0699C27.6578 13.0346 29.0755 11.3404 30.8289 10.1274C31.1099 9.96861 32.2292 9.30331 33.2796 8.67706C33.8224 8.35341 34.3508 8.03784 34.7434 7.8032L35.2154 7.52099L35.3467 7.44247L35.3811 7.42183L35.39 7.41654L35.3922 7.4152L35.3937 7.41429C36.3574 6.83522 37.6047 6.77733 38.6219 7.23019C40.386 8.01566 41.1114 10.0451 40.3121 11.8404C40.1719 12.1553 39.9497 12.4459 39.6802 12.7906L29.0981 23.8184L29.0376 23.8815L29.0021 23.9612L28.9844 24.001C28.9567 24.0359 28.9286 24.0709 28.9003 24.1062C28.6881 24.3708 28.4628 24.6516 28.2917 25.036Z" fill="white"/>
<path d="M35.3922 7.4152L35.39 7.41654L35.3811 7.42183L35.3467 7.44247L35.2154 7.52099L34.7434 7.8032C34.3508 8.03784 33.8224 8.35341 33.2796 8.67706C32.2292 9.30331 31.1099 9.96861 30.8289 10.1274C29.0755 11.3404 27.6578 13.0346 26.7505 15.0699C25.1705 18.8525 25.6803 23.1938 27.962 26.4906C27.9783 25.9881 28.0885 25.4922 28.2917 25.036C28.4628 24.6516 28.6881 24.3708 28.9003 24.1062C28.9286 24.0709 28.9567 24.0359 28.9844 24.001L29.0021 23.9612L29.0376 23.8815L29.0981 23.8184L39.6802 12.7906C39.9497 12.4459 40.1719 12.1553 40.3121 11.8404C41.1114 10.0451 40.386 8.01566 38.6219 7.23019C37.6047 6.77733 36.3574 6.83522 35.3937 7.41429L35.3922 7.4152ZM35.3922 7.4152L35.1362 6.98571" stroke="#333333" stroke-width="2"/>
<path d="M18.0001 26C20.2093 26 22.0001 24.433 22.0001 22.5C22.0001 20.567 20.2093 19 18.0001 19C15.791 19 14.0001 20.567 14.0001 22.5C14.0001 24.433 15.791 26 18.0001 26Z" fill="white"/>
</g>
<defs>
<clipPath id="clip0_323_39">
<rect width="48" height="48" fill="white"/>
</clipPath>
</defs>
</svg>
