<svg xmlns="http://www.w3.org/2000/svg" xmlns:xlink="http://www.w3.org/1999/xlink" width="250.010009765625" height="153.5936279296875" viewBox="0 0 250.010009765625 153.5936279296875" fill="none">
<rect x="61.577392578125" y="0" width="77.99695587158203" height="107.39879608154297"   fill="#DAE2F2" >
</rect>
<rect x="63.402587890625" y="3.18914794921875" width="72.78193664550781" height="9.468218803405762"   fill="#EAF0FE" >
</rect>
<rect x="64.447509765625" y="17.399246215820312" width="27.65167808532715" height="85.4522476196289"   fill="#EAF0FE" >
</rect>
<rect x="66.7962646484375" y="72.8104248046875" width="21.648582458496094" height="24.826021194458008"   fill="#DAE2F2" >
</rect>
<rect x="66.7962646484375" y="23.885604858398438" width="21.648582458496094" height="3.5033152103424072"   fill="#DAE2F2" >
</rect>
<rect x="66.7962646484375" y="31.777435302734375" width="21.648582458496094" height="3.5081698894500732"   fill="#DAE2F2" >
</rect>
<rect x="66.7962646484375" y="41.2474365234375" width="21.648582458496094" height="3.506349563598633"   fill="#DAE2F2" >
</rect>
<rect x="66.7962646484375" y="49.137237548828125" width="21.648582458496094" height="3.510192632675171"   fill="#DAE2F2" >
</rect>
<rect x="99.9239501953125" y="17.399246215820312" width="36.260597229003906" height="4.20561408996582"   fill="#EAF0FE" >
</rect>
<rect x="99.9239501953125" y="25.28216552734375" width="36.260597229003906" height="4.212514400482178"   fill="#EAF0FE" >
</rect>
<rect x="99.9239501953125" y="34.75421142578125" width="36.260597229003906" height="4.213525772094727"   fill="#EAF0FE" >
</rect>
<rect x="99.9239501953125" y="44.75379943847656" width="36.260597229003906" height="55.62339782714844"   fill="#EAF0FE" >
</rect>
<rect x="103.056884765625" y="50.890411376953125" width="30.78078842163086" height="25.024459838867188"   fill="#DAE2F2" >
</rect>
<rect x="64.447509765625" y="5.556671142578125" width="39.51994705200195" height="4.476289749145508"   fill="#DAE2F2" >
</rect>
<rect x="119.0992431640625" y="5.556671142578125" width="15.647089004516602" height="4.476289749145508"   fill="#DAE2F2" >
</rect>
<rect x="0" y="83.64364624023438" width="14.56063461303711" height="69.46309661865234"   fill="#DEF3F9" >
</rect>
<rect x="17.63427734375" y="101.99018859863281" width="16.048229217529297" height="51.11656188964844"   fill="#DEF3F9" >
</rect>
<rect x="38.2457275390625" y="94.1319580078125" width="14.57641315460205" height="58.974796295166016"   fill="#DEF3F9" >
</rect>
<rect x="55.89404296875" y="118.37521362304688" width="16.042346954345703" height="34.73154830932617"   fill="#DEF3F9" >
</rect>
<path d="M220.089 122.837C235.995 118.637 245.492 102.337 241.289 86.4341C237.087 70.5247 220.787 61.0377 204.888 65.235C188.976 69.4384 179.485 85.7322 183.689 101.64C187.886 117.547 204.184 127.038 220.089 122.837ZM227.637 90.0368C225.426 81.6744 216.857 76.6761 208.491 78.889C200.124 81.0979 195.13 89.6706 197.339 98.035C199.552 106.401 208.123 111.388 216.489 109.181C224.855 106.97 229.84 98.4031 227.637 90.0368Z" fill-rule="evenodd"  fill="#DAE2F2" >
</path>
<path d="M210.024 57.5867C207.321 55.6023 198.734 58.1106 197.045 61.0154C195.409 63.8251 200.367 73.5872 200.367 73.5872L213.345 70.1605C213.345 70.1605 212.649 59.5084 210.024 57.5867Z"   fill="#DAE2F2" >
</path>
<path d="M214.221 131.003C217.12 132.69 225.826 130.637 227.201 127.57C228.528 124.605 223.88 114.996 223.88 114.996L210.901 118.425C210.901 118.425 211.409 129.362 214.221 131.003Z"   fill="#DAE2F2" >
</path>
<path d="M183.25 71.6514C180.025 72.5758 176.756 80.9037 178.019 84.0128C179.244 87.0268 190 89.0799 190 89.0799L195.229 76.7145C195.229 76.7145 186.371 70.7532 183.25 71.6514Z"   fill="#DAE2F2" >
</path>
<path d="M176.629 96.176C174.224 98.5245 175.302 107.405 177.891 109.543C180.397 111.616 190.839 108.319 190.839 108.319L189.575 94.9522C189.575 94.9522 178.955 93.9064 176.629 96.176Z"   fill="#DAE2F2" >
</path>
<path d="M249.173 92.6866C251.267 90.061 249.106 81.3771 246.276 79.5727C243.54 77.8229 233.577 82.3824 233.577 82.3824L236.474 95.4882C236.474 95.4882 247.144 95.2232 249.173 92.6866Z"   fill="#DAE2F2" >
</path>
<path d="M237.154 67.9698C236.715 64.6382 229.766 59.0067 226.503 59.7936C223.344 60.5582 218.58 70.116 218.58 70.116L229.238 78.2882C229.238 78.2882 237.578 71.1942 237.154 67.9698Z"   fill="#DAE2F2" >
</path>
<path d="M185.804 121.324C186.245 124.649 193.194 130.283 196.459 129.494C199.622 128.735 204.374 119.177 204.374 119.177L193.726 111.005C193.726 111.005 185.378 118.099 185.804 121.324Z"   fill="#DAE2F2" >
</path>
<path d="M242.356 117.812C245.585 116.884 248.849 108.554 247.587 105.445C246.367 102.431 235.606 100.379 235.606 100.379L230.381 112.743C230.381 112.743 239.229 118.71 242.356 117.812Z"   fill="#DAE2F2" >
</path>
<path d="M203.79 53.6544C211.482 51.6215 216.078 43.7345 214.045 36.0397C212.014 28.3429 204.127 23.7511 196.429 25.7841C188.734 27.815 184.142 35.6999 186.175 43.3967C188.206 51.0935 196.095 55.6874 203.79 53.6544ZM207.439 37.7834C206.369 33.7377 202.224 31.3184 198.178 32.3885C194.127 33.4586 191.711 37.6053 192.781 41.653C193.854 45.7006 197.996 48.1139 202.046 47.0458C206.09 45.9758 208.509 41.831 207.439 37.7834Z" fill-rule="evenodd"  fill="#C8EEFB" >
</path>
<path d="M198.92 22.0823C197.607 21.1214 193.451 22.3351 192.635 23.7389C191.844 25.1003 194.24 29.8236 194.24 29.8236L200.52 28.1649C200.52 28.1649 200.189 23.0107 198.92 22.0823Z"   fill="#C8EEFB" >
</path>
<path d="M200.945 57.6029C202.353 58.4201 206.565 57.4269 207.23 55.9442C207.875 54.51 205.622 49.8596 205.622 49.8596L199.341 51.5183C199.341 51.5183 199.586 56.8099 200.945 57.6029Z"   fill="#C8EEFB" >
</path>
<path d="M185.96 28.887C184.399 29.3341 182.821 33.3635 183.432 34.8685C184.024 36.3269 189.227 37.3201 189.227 37.3201L191.756 31.3366C191.756 31.3366 187.473 28.4521 185.96 28.887Z"   fill="#C8EEFB" >
</path>
<path d="M182.758 40.7528C181.597 41.8897 182.119 46.1861 183.371 47.2238C184.579 48.2251 189.636 46.6291 189.636 46.6291L189.023 40.1602C189.023 40.1602 183.885 39.6545 182.758 40.7528Z"   fill="#C8EEFB" >
</path>
<path d="M217.86 39.0638C218.873 37.7955 217.828 33.5921 216.458 32.7182C215.133 31.8747 210.315 34.0796 210.315 34.0796L211.719 40.4211C211.719 40.4211 216.877 40.2937 217.86 39.0638Z"   fill="#C8EEFB" >
</path>
<path d="M212.042 27.1049C211.83 25.4927 208.47 22.768 206.888 23.1483C205.361 23.5184 203.055 28.1446 203.055 28.1446L208.213 32.0972C208.213 32.0972 212.247 28.6645 212.042 27.1049Z"   fill="#C8EEFB" >
</path>
<path d="M187.202 52.9221C187.413 54.5302 190.774 57.257 192.352 56.8767C193.88 56.5086 196.183 51.8824 196.183 51.8824L191.027 47.9298C191.027 47.9298 186.99 51.3625 187.202 52.9221Z"   fill="#C8EEFB" >
</path>
<path d="M214.563 51.2229C216.124 50.7739 217.704 46.7424 217.093 45.2394C216.499 43.779 211.294 42.7878 211.294 42.7878L208.765 48.7693C208.765 48.7693 213.048 51.6578 214.563 51.2229Z"   fill="#C8EEFB" >
</path>
<path d="M47.7694 46.443L47.7694 145.446C47.7694 147.264 49.244 148.735 51.0646 148.735L216.248 148.735C218.066 148.735 219.537 147.264 219.537 145.446L219.537 46.443C219.537 44.6306 218.066 43.1559 216.248 43.1559L51.0646 43.1559C49.244 43.1559 47.7694 44.6306 47.7694 46.443Z"   fill="#003AA5" >
</path>
<rect x="57.677734375" y="53.84855651855469" width="151.95030212402344" height="85.01554107666016"   fill="#B9DDFF" >
</rect>
<path d="M235.003 150.086L235.003 143.878L35.9683 143.878L35.9683 150.086C35.9683 152.026 37.5359 153.594 39.4738 153.594L231.502 153.594C233.43 153.594 235.003 152.026 235.003 150.086Z"   fill="#1F75FE" >
</path>
<g  opacity="0.5">
<rect x="68.5010986328125" y="62.40690612792969" width="133.51577758789062" height="76.69322967529297"   fill="#EEF9FF" >
</rect>
<rect x="71.6260986328125" y="64.68359375" width="124.58888244628906" height="6.76389217376709"   fill="#9ECAEF" >
</rect>
<rect x="73.4139404296875" y="74.83122253417969" width="47.33472442626953" height="61.02332305908203"   fill="#9ECAEF" >
</rect>
<rect x="77.4320068359375" y="114.40155029296875" width="37.06242370605469" height="17.727375030517578"   fill="#EEF9FF" >
</rect>
<rect x="77.4320068359375" y="79.46269226074219" width="37.06242370605469" height="2.5028302669525146"   fill="#EEF9FF" >
</rect>
<rect x="77.4320068359375" y="85.09945678710938" width="37.06242370605469" height="2.5048532485961914"   fill="#EEF9FF" >
</rect>
<rect x="77.4320068359375" y="91.86235046386719" width="37.06242370605469" height="2.5028302669525146"   fill="#EEF9FF" >
</rect>
<rect x="77.4320068359375" y="97.49407958984375" width="37.06242370605469" height="2.507887363433838"   fill="#EEF9FF" >
</rect>
<rect x="134.147705078125" y="74.83122253417969" width="62.0672607421875" height="3.0037012100219727"   fill="#9ECAEF" >
</rect>
<rect x="134.147705078125" y="80.462158203125" width="62.0672607421875" height="3.0067138671875"   fill="#9ECAEF" >
</rect>
<rect x="134.147705078125" y="87.22502136230469" width="62.0672607421875" height="3.0085554122924805"   fill="#9ECAEF" >
</rect>
<rect x="134.147705078125" y="94.36517333984375" width="62.0672607421875" height="39.721431732177734"   fill="#9ECAEF" >
</rect>
<rect x="139.503173828125" y="98.74943542480469" width="52.686065673828125" height="17.870567321777344"   fill="#EEF9FF" >
</rect>
<rect x="73.4139404296875" y="66.37567138671875" width="67.65188598632812" height="3.195038080215454"   fill="#EEF9FF" >
</rect>
<rect x="166.96337890625" y="66.37567138671875" width="26.792402267456055" height="3.195038080215454"   fill="#EEF9FF" >
</rect>
</g>
<path d="M64.939 27.5074C45.259 27.5074 29.301 43.4614 29.301 63.1434C29.301 82.8254 45.259 98.7814 64.939 98.7814C84.623 98.7814 100.575 82.8254 100.575 63.1434C100.575 43.4614 84.623 27.5074 64.939 27.5074Z"   fill="#29B9E6" >
</path>
<path d="M64.9391 33.679C48.6676 33.679 35.4768 46.8719 35.4768 63.1434C35.4768 79.4169 48.6676 92.6077 64.9391 92.6077C81.2107 92.6077 94.4035 79.4169 94.4035 63.1434C94.4035 46.8719 81.2107 33.679 64.9391 33.679Z"   fill="#B9DDFF" >
</path>
<circle cx="64.9394302368164" cy="63.142799377441406" r="22.888038635253906"   fill="#29B9E6" >
</circle>
<path d="M64.9391 49.9809C57.6691 49.9809 51.7766 55.8734 51.7766 63.1434C51.7766 70.4134 57.6691 76.3059 64.9391 76.3059C72.209 76.3059 78.0995 70.4134 78.0995 63.1434C78.0995 55.8734 72.209 49.9809 64.9391 49.9809Z"   fill="#F3FAFF" >
</path>
<path d="M64.9391 57.9387C62.0646 57.9387 59.7323 60.269 59.7323 63.1434C59.7323 66.0198 62.0646 68.3501 64.9391 68.3501C67.8135 68.3501 70.1437 66.0198 70.1437 63.1434C70.1437 60.269 67.8135 57.9387 64.9391 57.9387Z"   fill="#B9DDFF" >
</path>
<rect x="64.322998046875" y="62.996826171875" width="39.58512496948242" height="1.2887402772903442" transform="rotate(-47.78315026423407 64.322998046875 62.996826171875)"   fill="#003AA5" >
</rect>
<path d="M64.7793 62.8319C64.4131 62.8319 64.1158 63.107 64.1158 63.4468C64.1158 63.7867 64.4131 64.0597 64.7793 64.0597C65.1434 64.0597 65.4408 63.7867 65.4408 63.4468C65.4408 63.107 65.1434 62.8319 64.7793 62.8319Z"   fill="#003AA5" >
</path>
<path d="M81.9577 39.3076L81.7778 44.822L86.8565 43.8342L98.1342 29.8869L93.5889 29.8721L92.9606 25.7019L81.9577 39.3076Z"   fill="#5E4B85" >
</path>
<path d="M174.23 35.6736L106.245 35.6736L106.245 115.368L160.202 115.368C160.916 118.54 163.742 120.909 167.128 120.909C170.516 120.909 173.342 118.54 174.056 115.368L174.06 115.368L174.06 115.348C174.171 114.851 174.232 114.333 174.232 113.803L174.232 84.9716C174.232 84.8685 174.222 84.7653 174.22 84.6621L174.232 81.6421L174.23 35.6736Z"   fill="#EEF9FF" >
</path>
<path d="M111.169 109.984L100.033 109.984L100.033 114.133C100.033 116.967 101.858 119.39 104.443 120.401C105.181 120.688 105.984 120.84 106.818 120.881C106.795 120.887 106.777 120.899 106.757 120.909L167.128 120.909C163.201 120.909 160.02 117.727 160.02 113.803L160.02 109.984L114.243 109.984L111.169 109.984Z"   fill="#29B9E6" >
</path>
<path d="M129.438 94.6071L124.113 68.7203L119.636 94.6071L129.438 94.6071Z"   fill="#1F75FE" >
</path>
<path d="M138.687 94.6071L133.358 78.2251L128.887 94.6071L138.687 94.6071Z"   fill="#FFBD07" >
</path>
<path d="M119.646 94.6071L114.321 84.3351L109.844 94.6071L119.646 94.6071Z"   fill="#003AA5" >
</path>
<path d="M158.758 94.7147L153.428 68.8289L148.956 94.7147L158.758 94.7147Z"   fill="#1F75FE" >
</path>
<path d="M168.004 94.7147L162.678 78.3327L158.204 94.7147L168.004 94.7147Z"   fill="#FFBD07" >
</path>
<path d="M148.965 94.7147L143.638 84.4416L139.161 94.7147L148.965 94.7147Z"   fill="#003AA5" >
</path>
<rect x="111.56884765625" y="44.057525634765625" width="1.8589680194854736" height="14.422274589538574"   fill="#1F75FE" >
</rect>
<rect x="113.8187255859375" y="47.8660888671875" width="2.0467019081115723" height="10.613716125488281"   fill="#003AA5" >
</rect>
<rect x="116.447998046875" y="46.234283447265625" width="1.8569451570510864" height="12.245522499084473"   fill="#1F75FE" >
</rect>
<rect x="118.6962890625" y="51.26866149902344" width="2.0485057830810547" height="7.211137294769287"   fill="#003AA5" >
</rect>
<rect x="121.2957763671875" y="44.057525634765625" width="1.8569451570510864" height="14.422274589538574"   fill="#1F75FE" >
</rect>
<rect x="123.5457763671875" y="47.8660888671875" width="2.046685218811035" height="10.613716125488281"   fill="#003AA5" >
</rect>
<rect x="126.1749267578125" y="46.234283447265625" width="1.8569451570510864" height="12.245522499084473"   fill="#1F75FE" >
</rect>
<rect x="128.4232177734375" y="51.26866149902344" width="2.0484888553619385" height="7.211137294769287"   fill="#003AA5" >
</rect>
<rect x="131.022705078125" y="44.057525634765625" width="1.8549224138259888" height="14.422274589538574"   fill="#1F75FE" >
</rect>
<rect x="133.272705078125" y="47.8660888671875" width="2.04263973236084" height="10.613716125488281"   fill="#003AA5" >
</rect>
<rect x="135.900146484375" y="46.234283447265625" width="1.8587656021118164" height="12.245522499084473"   fill="#1F75FE" >
</rect>
<rect x="138.150146484375" y="51.26866149902344" width="2.046483039855957" height="7.211137294769287"   fill="#003AA5" >
</rect>
<rect x="143.77587890625" y="43.78587341308594" width="22.20566749572754" height="1.418196439743042"   fill="#29B9E6" >
</rect>
<rect x="143.77587890625" y="46.9376220703125" width="17.634506225585938" height="1.1258994340896606"   fill="#29B9E6" >
</rect>
<rect x="143.77587890625" y="49.942108154296875" width="23.325698852539062" height="1.1270910501480103"   fill="#29B9E6" >
</rect>
<rect x="143.77587890625" y="54.31867980957031" width="22.20566749572754" height="1.4173872470855713"   fill="#29B9E6" >
</rect>
<rect x="143.77587890625" y="57.469390869140625" width="17.634506225585938" height="1.127135157585144"   fill="#29B9E6" >
</rect>
<rect x="143.77587890625" y="60.47613525390625" width="23.325698852539062" height="1.1248880624771118"   fill="#29B9E6" >
</rect>
<rect x="114.542724609375" y="99.80903625488281" width="45.179931640625" height="0.900264322757721"   fill="#9ECAEF" >
</rect>
<rect x="112.8421630859375" y="102.00967407226562" width="48.580928802490234" height="0.900264322757721"   fill="#9ECAEF" >
</rect>
<rect x="122.7451171875" y="103.96542358398438" width="28.775115966796875" height="0.900264322757721"   fill="#9ECAEF" >
</rect>
</svg>
