<svg viewBox="0 0 400 300" fill="none" xmlns="http://www.w3.org/2000/svg"><path d="M318.695 124.639c20.88 12.33 33.37 28 33.37 45.04 0 12.82-7.07 24.87-19.47 35.3M154.098 100.988c14.49-2.18 29.92-3.35 45.94-3.35 17.69 0 34.68 1.43 50.48 4.07 11.47 1.91 22.31 4.46 32.34 7.55 2.04.63 4.04 1.28 6.01 1.95M65.84 203.564c-11.39-10.1-17.84-21.64-17.84-33.89 0-26.97 31.28-50.47 77.58-62.82" stroke="#31333A" stroke-width="2.126"/><path d="M200.033 118.221c-83.96 0-152.03 32.25-152.03 72.04 0 12.5 6.72 24.26 18.55 34.51 9.83 8.52 23.19 16 39.16 21.99 25.91 9.73 58.69 15.54 94.32 15.54 83.97 0 152.03-32.25 152.03-72.04 0-39.79-68.06-72.04-152.03-72.04Z" stroke="#31333A" stroke-width="2.126"/><path d="M238.645 239.375c-12.33 1.53-25.27 2.34-38.61 2.34-50.25 0-94.8-11.55-122.48-29.35M287.996 228.443c-9.29 3.13-19.36 5.77-30.03 7.86" stroke="#31333A" stroke-width="2.126"/><path fill-rule="evenodd" clip-rule="evenodd" d="M70.11 201.08c-2.76 0-5 2.24-5 5s2.24 5 5 5 5-2.24 5-5-2.24-5-5-5Z" fill="#31333A"/><path fill-rule="evenodd" clip-rule="evenodd" d="m140.192 142.07-1.62.31c-4.61.88-9.09-2.16-9.98-6.76l-.58-3.04-11.77-1.4c-.3-.04-.59-.12-.86-.24a2.69 2.69 0 0 1-1.17-.49l-10.66-7.87c-1.39-1.02-1.54-3.2-.34-4.82a4.03 4.03 0 0 1 1.75-1.37c.12-.29.27-.58.47-.86 1.21-1.63 3.32-2.12 4.71-1.1l6.28 4.63c.41-.13.85-.18 1.28-.13l17.71 2.12c.06 0 .11.02.16.03l.57-.11c4.61-.88 9.09 2.16 9.98 6.76l.83 4.37c.88 4.6-2.16 9.09-6.76 9.97Z" fill="#fff"/><path d="m138.572 142.38 1.62-.31c4.6-.88 7.64-5.37 6.76-9.97l-.83-4.37c-.89-4.6-5.37-7.64-9.98-6.76l-.57.11c-.05-.01-.1-.03-.16-.03l-17.71-2.12c-.43-.05-.87 0-1.28.13l-6.28-4.63c-1.39-1.02-3.5-.53-4.71 1.1-.2.28-.35.57-.47.86-.66.27-1.28.72-1.75 1.37-1.2 1.62-1.05 3.8.34 4.82l10.66 7.87c.35.26.75.42 1.17.49.27.12.56.2.86.24l11.77 1.4.58 3.04c.89 4.6 5.37 7.64 9.98 6.76Z" stroke="#31333A" stroke-width="2.126"/><path fill-rule="evenodd" clip-rule="evenodd" d="m152.806 141.754 1.71 8.9 4.32 22.54c.02.07 4.57 28.96 4.58 29.03-2.59 8.186-13.787 3.195-19.167.797-.831-.37-1.523-.679-2.023-.867-1.25-.47-8.41-8.9-9.61-9.39l-6-46-.97-5.06c-.41-2.16 1.02-4.27 3.19-4.69l.15-.03 18.12-3.47.04-.01c2.17-.41 4.28 1.02 4.69 3.18l.97 5.07Z" fill="#fff"/><path d="m154.516 150.654-1.71-8.9-.97-5.07c-.41-2.16-2.52-3.59-4.69-3.18l-.04.01-18.12 3.47-.15.03c-2.17.42-3.6 2.53-3.19 4.69l.97 5.06 6 46c1.2.49 8.36 8.92 9.61 9.39 3.74 1.41 18.2 9.52 21.19.07-.01-.07-4.56-28.96-4.58-29.03l-4.32-22.54Z" stroke="#31333A" stroke-width="2.126"/><path fill-rule="evenodd" clip-rule="evenodd" d="m126.618 146.775 26.193-5.022-.708-3.692a5.407 5.407 0 0 0-6.332-4.295l-15.566 2.984a5.407 5.407 0 0 0-4.295 6.332l.708 3.693Z" fill="#fff"/><path d="m152.331 133.591-26.195 5.021 1.325 6.914 26.195-5.021-1.325-6.914Z" stroke="#31333A" stroke-width="2.126"/><path fill-rule="evenodd" clip-rule="evenodd" d="M300.064 117.516c.66.27 1.27.72 1.74 1.37 1.21 1.62 1.05 3.8-.33 4.82l-10.67 7.87c-.35.26-.75.42-1.16.49-.28.12-.56.2-.86.24l-11.78 1.4-.58 3.04c-.88 4.6-5.37 7.64-9.97 6.76l-1.62-.31c-4.61-.88-7.65-5.37-6.77-9.97l.84-4.37c.88-4.6 5.37-7.64 9.97-6.76l.57.11c.06-.01.11-.03.16-.03l17.72-2.12c.43-.05.86 0 1.28.13l6.27-4.63c1.39-1.02 3.51-.53 4.71 1.1.2.28.35.57.48.86Z" fill="#fff"/><path d="M301.804 118.886c-.47-.65-1.08-1.1-1.74-1.37a4.91 4.91 0 0 0-.48-.86c-1.2-1.63-3.32-2.12-4.71-1.1l-6.27 4.63c-.42-.13-.85-.18-1.28-.13l-17.72 2.12c-.05 0-.1.02-.16.03l-.57-.11c-4.6-.88-9.09 2.16-9.97 6.76l-.84 4.37c-.88 4.6 2.16 9.09 6.77 9.97l1.62.31c4.6.88 9.09-2.16 9.97-6.76l.58-3.04 11.78-1.4c.3-.04.58-.12.86-.24.41-.07.81-.23 1.16-.49l10.67-7.87c1.38-1.02 1.54-3.2.33-4.82Z" stroke="#31333A" stroke-width="2.126"/><path fill-rule="evenodd" clip-rule="evenodd" d="M253.182 137.81a4.03 4.03 0 0 1 4.69-3.18l.04.01 18.13 3.47.15.03c2.17.42 3.6 2.53 3.18 4.69l-.97 5.06-11.03 58.6c-1.814.633-6.381-1.441-11.272-3.662-5.302-2.408-10.983-4.988-13.948-4.478-.07-.45 8.83-49.08 8.83-49.08l1.23-6.39.97-5.07Z" fill="#fff"/><path d="M257.872 134.63a4.03 4.03 0 0 0-4.69 3.18l-.97 5.07-1.23 6.39s-8.9 48.63-8.83 49.08c5.7-.98 21.44 9.46 25.22 8.14l11.03-58.6.97-5.06c.42-2.16-1.01-4.27-3.18-4.69l-.15-.03-18.13-3.47-.04-.01Z" stroke="#31333A" stroke-width="2.126"/><path fill-rule="evenodd" clip-rule="evenodd" d="m274.817 137.872-15.566-2.984a5.408 5.408 0 0 0-6.334 4.304l-.706 3.683 26.193 5.021.706-3.682a5.434 5.434 0 0 0-.83-4.059 5.403 5.403 0 0 0-3.463-2.283Z" fill="#fff"/><path d="m251.366 141.631 26.195 5.021 1.325-6.914-26.195-5.021-1.325 6.914Z" stroke="#31333A" stroke-width="2.126"/><path fill-rule="evenodd" clip-rule="evenodd" d="M145.518 189.129c.98-7.42 4.21-33.14 9-38.47.43-.49.88-.97 1.35-1.44 6.59-6.58 15.65-10.66 25.64-10.66h40.75c9.42 0 18.03 3.64 24.51 9.59 6.36 5.83 10.65 32.89 11.59 41.9a184.33 184.33 0 0 1-16.41 3.55c-11.96 2.06-24.88 3.17-38.33 3.17-15.9 0-31.04-1.56-44.75-4.37-4.62-.95-9.08-2.04-13.35-3.27Z" fill="#fff"/><path d="M154.518 150.659c-4.79 5.33-8.02 31.05-9 38.47 4.27 1.23 8.73 2.32 13.35 3.27 13.71 2.81 28.85 4.37 44.75 4.37 13.45 0 26.37-1.11 38.33-3.17 5.7-.97 11.18-2.16 16.41-3.55-.94-9.01-5.23-36.07-11.59-41.9-6.48-5.95-15.09-9.59-24.51-9.59h-40.75c-9.99 0-19.05 4.08-25.64 10.66-.47.47-.92.95-1.35 1.44Z" stroke="#31333A" stroke-width="2.126"/><path fill-rule="evenodd" clip-rule="evenodd" d="M166.419 197.365h71.59a5.7 5.7 0 0 0 5.7-5.7v-18.3a5.7 5.7 0 0 0-5.7-5.7h-71.59a5.7 5.7 0 0 0-5.7 5.7v18.3a5.7 5.7 0 0 0 5.7 5.7Z" fill="#AFAEB4"/><path d="M244.773 168.729h-82.992V196.3h82.992v-27.571Z" stroke="#31333A" stroke-width="2.126"/><path fill-rule="evenodd" clip-rule="evenodd" d="M160.398 104.478a6.3 6.3 0 0 0-6.3 6.3 6.3 6.3 0 0 0 6.3 6.3 6.3 6.3 0 0 0 6.3-6.3 6.3 6.3 0 0 0-6.3-6.3Z" fill="#fff"/><path d="M160.398 104.478a6.3 6.3 0 0 0-6.3 6.3 6.3 6.3 0 0 0 6.3 6.3 6.3 6.3 0 0 0 6.3-6.3 6.3 6.3 0 0 0-6.3-6.3Z" stroke="#31333A" stroke-width="2.126"/><path fill-rule="evenodd" clip-rule="evenodd" d="M237.449 104.478a6.3 6.3 0 0 0-6.3 6.3 6.3 6.3 0 0 0 6.3 6.3 6.3 6.3 0 0 0 6.3-6.3 6.3 6.3 0 0 0-6.3-6.3Z" fill="#fff"/><path d="M237.449 104.478a6.3 6.3 0 0 0-6.3 6.3 6.3 6.3 0 0 0 6.3 6.3 6.3 6.3 0 0 0 6.3-6.3 6.3 6.3 0 0 0-6.3-6.3Z" stroke="#31333A" stroke-width="2.126"/><path fill-rule="evenodd" clip-rule="evenodd" d="M200.032 145.971a8.89 8.89 0 0 0 8.89-8.89v-3.71a8.89 8.89 0 0 0-8.89-8.89 8.89 8.89 0 0 0-8.89 8.89v3.71a8.89 8.89 0 0 0 8.89 8.89Z" fill="#fff"/><path d="M209.986 125.545h-17.781v19.36h17.781v-19.36Z" stroke="#31333A" stroke-width="2.126"/><path fill-rule="evenodd" clip-rule="evenodd" d="M212.61 76.016c.39-.58 1.19-.72 1.78-.32 14 9.54 20.38 26.92 15.91 43.24-6.92 8.77-18.17 14.47-30.88 14.47-3.39 0-6.68-.41-9.81-1.17-.48-.12-.95-.24-1.42-.38-.04 0-.07-.02-.11-.02-8.6-2.55-15.97-7.91-21.06-14.99l-.2-.29c-3.5-5.3-5.52-11.51-5.52-18.15 0-2.3.24-4.54.71-6.72a50.76 50.76 0 0 0 14.35 2.01c10.52 0 20.08-3.06 27.16-8.06 3.65-2.51 6.73-5.76 9.04-9.54.01-.03.03-.05.05-.08Z" fill="#fff"/><path d="M214.39 75.696c-.59-.4-1.39-.26-1.78.32-.02.03-.04.05-.05.08a31.533 31.533 0 0 1-9.04 9.54c-7.08 5-16.64 8.06-27.16 8.06-4.86.02-9.7-.66-14.35-2.01-.47 2.18-.71 4.42-.71 6.72 0 6.64 2.02 12.85 5.52 18.15l.2.29c5.09 7.08 12.46 12.44 21.06 14.99.04 0 .07.02.11.02.47.14.94.26 1.42.38 3.13.76 6.42 1.17 9.81 1.17 12.71 0 23.96-5.7 30.88-14.47 4.47-16.32-1.91-33.7-15.91-43.24Z" stroke="#31333A" stroke-width="2.126"/><path fill-rule="evenodd" clip-rule="evenodd" d="M156.34 90.323c-1.1-.48-2.16-1-3.18-1.55a4.665 4.665 0 0 1 .41-8.35c3.14-1.39 6.43-2.43 9.8-3.11 9.24-19.1 31.73-27.75 51.39-19.76a39.819 39.819 0 0 1 24.87 36.84c.01 9.4-3.34 18.5-9.44 25.66 4.58-16.06-1.39-33.27-14.92-43.04-.04-.03-.08-.06-.11-.08a2.262 2.262 0 0 0-3.12.68 31.817 31.817 0 0 1-8.52 8.71c-7.09 5-16.65 8.07-27.16 8.07a55.23 55.23 0 0 1-5.89-.34 45.418 45.418 0 0 0-2.73 15.57c0 3.36.37 6.7 1.09 9.97a39.502 39.502 0 0 1-9.8-26.07c0-.7.03-1.4.07-2.1-.94-.34-1.87-.71-2.76-1.1Z" fill="#31333A"/><path d="M153.16 88.773c1.02.55 2.08 1.07 3.18 1.55.89.39 1.82.76 2.76 1.1-.04.7-.07 1.4-.07 2.1a39.502 39.502 0 0 0 9.8 26.07 46.35 46.35 0 0 1-1.09-9.97c-.01-5.31.92-10.58 2.73-15.57 1.96.22 3.92.33 5.89.34 10.51 0 20.07-3.07 27.16-8.07 3.37-2.33 6.27-5.28 8.52-8.71a2.262 2.262 0 0 1 3.12-.68c.03.02.07.05.11.08 13.53 9.77 19.5 26.98 14.92 43.04a39.51 39.51 0 0 0 9.44-25.66 39.819 39.819 0 0 0-24.87-36.84c-19.66-7.99-42.15.66-51.39 19.76-3.37.68-6.66 1.72-9.8 3.11a4.665 4.665 0 0 0-.41 8.35Z" stroke="#31333A"/><path d="M199.42 63.397c-21.05 0-38.12 15.67-38.12 35 0 19.339 17.07 35.009 38.12 35.009 21.06 0 38.13-15.67 38.13-35.01 0-19.33-17.07-35-38.13-35Z" stroke="#31333A" stroke-width="2.126"/><path fill-rule="evenodd" clip-rule="evenodd" d="M214.105 109.295c.89 0 1.74-.35 2.36-.98.63-.62.98-1.47.98-2.36 0-.88-.35-1.73-.98-2.36-.63-.62-1.48-.97-2.36-.97-1.84 0-3.33 1.49-3.33 3.33 0 .88.35 1.73.97 2.36.63.63 1.48.98 2.36.98Z" fill="#31333A"/><path d="M217.943 103.125h-6.668v5.668h6.668v-5.668Z" stroke="#31333A"/><path fill-rule="evenodd" clip-rule="evenodd" d="M185.211 109.295c.89 0 1.74-.35 2.36-.98.63-.62.98-1.47.98-2.36 0-.88-.35-1.73-.98-2.36-.63-.62-1.48-.97-2.36-.97-1.84 0-3.33 1.49-3.33 3.33 0 .88.35 1.73.97 2.36.63.63 1.48.98 2.36.98Z" fill="#31333A"/><path d="M189.049 103.125h-6.668v5.668h6.668v-5.668Z" stroke="#31333A"/><path d="m199.825 107.694-1.35 2.35c-.39.67-.79 1.4-.74 2.18.06.78.78 1.56 1.54 1.36" stroke="#31333A" stroke-width="2"/><path fill-rule="evenodd" clip-rule="evenodd" d="M158.87 86.464c-2.82 0-5.1 2.28-5.1 5.1s2.28 5.1 5.1 5.1 5.1-2.28 5.1-5.1-2.28-5.1-5.1-5.1Z" fill="#31333A"/><path fill-rule="evenodd" clip-rule="evenodd" d="m135.085 188.855 131-.84c6.68-.04 11.47 3.56 10.7 7.97l-10.51 38.73c-20.35 4.8-43.28 7.49-67.55 7.49-22.43 0-43.72-2.3-62.89-6.44l-11.35-38.81c-.82-4.4 3.92-8.06 10.6-8.1Z" fill="#DCDDDD"/><path d="m266.085 188.015-131 .84c-6.68.04-11.42 3.7-10.6 8.1l11.35 38.81c19.17 4.14 40.46 6.44 62.89 6.44 24.27 0 47.2-2.69 67.55-7.49l10.51-38.73c.77-4.41-4.02-8.01-10.7-7.97Z" stroke="#31333A" stroke-width="2.126"/><path fill-rule="evenodd" clip-rule="evenodd" d="M217.441 40.622c-7.71 0-13.96 6.25-13.96 13.96 0 7.71 6.25 13.96 13.96 13.96 7.71 0 13.96-6.25 13.96-13.96 0-7.71-6.25-13.96-13.96-13.96Z" fill="#31333A"/><path fill-rule="evenodd" clip-rule="evenodd" d="M169.472 177.596c.37 2.96 3.52 5.31 7.05 5.29l49.11-.44c3.52-.02 6.64-2.41 6.97-5.38a4.953 4.953 0 0 1 4.86-4.09l35.96-.17c5.15-.03 9.36 4.43 9.39 9.97l.03 4.41c.04 5.53-4.11 10.05-9.27 10.08l-145.72.93c-5.16.03-9.37-4.43-9.4-9.97l-.03-4.41c-.04-5.54 4.12-10.05 9.27-10.08l36.88-.17a4.963 4.963 0 0 1 4.9 4.01v.02Z" fill="#5578EC"/><path d="M176.522 182.886c-3.53.02-6.68-2.33-7.05-5.29v-.02a4.963 4.963 0 0 0-4.9-4.01l-36.88.17c-5.15.03-9.31 4.54-9.27 10.08l.03 4.41c.03 5.54 4.24 10 9.4 9.97l145.72-.93c5.16-.03 9.31-4.55 9.27-10.08l-.03-4.41c-.03-5.54-4.24-10-9.39-9.97l-35.96.17c-2.4.01-4.44 1.73-4.86 4.09-.33 2.97-3.45 5.36-6.97 5.38l-49.11.44Z" stroke="#3351E5" stroke-width="2.126"/><path fill-rule="evenodd" clip-rule="evenodd" d="M181.727 229.217h40.95c4.18 0 7.58-3.4 7.58-7.58 0-4.19-3.39-7.59-7.58-7.59h-40.95c-2.01 0-3.94.8-5.37 2.22a7.625 7.625 0 0 0-2.22 5.37c0 4.19 3.4 7.58 7.59 7.58Z" fill="#5578EC"/><path d="M231.323 215.11h-56.124v13.049h56.124V215.11Z" stroke="#3351E5" stroke-width="2.126"/><path fill-rule="evenodd" clip-rule="evenodd" d="m177.418 175.654 5.287-.594a5.19 5.19 0 0 0 4.577-5.738l-2.948-26.234a5.19 5.19 0 0 0-5.737-4.578l-7.294.82a3.138 3.138 0 0 0-2.123 1.174 3.143 3.143 0 0 0-.674 2.33l3.175 28.242a5.191 5.191 0 0 0 5.737 4.578Z" fill="#DCDDDD"/><path d="m184.927 138.869-15.6 1.753 3.87 34.434 15.6-1.754-3.87-34.433Z" stroke="#31333A" stroke-width="2.126"/><path fill-rule="evenodd" clip-rule="evenodd" d="M179.1 163.802c-1.66 0-3.01 1.35-3.01 3.01 0 1.66 1.35 3.01 3.01 3.01 1.66 0 3.01-1.35 3.01-3.01 0-1.66-1.35-3.01-3.01-3.01Z" fill="#DCDDDD"/><path d="M179.1 163.802c-1.66 0-3.01 1.35-3.01 3.01 0 1.66 1.35 3.01 3.01 3.01 1.66 0 3.01-1.35 3.01-3.01 0-1.66-1.35-3.01-3.01-3.01Z" stroke="#31333A" stroke-width="2.126"/><path fill-rule="evenodd" clip-rule="evenodd" d="m232.329 139.327-7.294-.82a5.194 5.194 0 0 0-3.817 1.1 5.193 5.193 0 0 0-1.92 3.478l-2.949 26.234a5.19 5.19 0 0 0 4.578 5.738l5.287.594a5.19 5.19 0 0 0 5.737-4.578l3.174-28.242a3.139 3.139 0 0 0-.674-2.33 3.134 3.134 0 0 0-2.122-1.174Z" fill="#DCDDDD"/><path d="m214.834 173.301 15.6 1.754 3.87-34.434-15.6-1.753-3.87 34.433Z" stroke="#31333A" stroke-width="2.126"/><path fill-rule="evenodd" clip-rule="evenodd" d="M224.531 163.802c-1.66 0-3.01 1.35-3.01 3.01 0 1.66 1.35 3.01 3.01 3.01 1.66 0 3.01-1.35 3.01-3.01 0-1.66-1.35-3.01-3.01-3.01Z" fill="#DCDDDD"/><path d="M224.531 163.802c-1.66 0-3.01 1.35-3.01 3.01 0 1.66 1.35 3.01 3.01 3.01 1.66 0 3.01-1.35 3.01-3.01 0-1.66-1.35-3.01-3.01-3.01Z" stroke="#31333A" stroke-width="2.126"/><path fill-rule="evenodd" clip-rule="evenodd" d="M189.465 160.812c-.19 0-.36-.11-.52-.21-7.47-4.83-12.99-12.58-15.12-21.21l-.63-1.01 16.47-.28s.58.41 1.68 3.24c1.1 2.84 5.89 5 5.89 5a101.89 101.89 0 0 1-6.94 13.81c-.2.32-.46.67-.83.66Z" fill="#fff"/><path d="M188.945 160.602c.16.1.33.21.52.21.37.01.63-.34.83-.66 2.66-4.42 4.98-9.04 6.94-13.81 0 0-4.79-2.16-5.89-5-1.1-2.83-1.68-3.24-1.68-3.24l-16.47.28.63 1.01c2.13 8.63 7.65 16.38 15.12 21.21Z" stroke="#31333A" stroke-width="2"/><path d="M177.274 138.826c2.31 7.62 7.51 14.33 14.23 18.39" stroke="#31333A" stroke-width="2"/><path fill-rule="evenodd" clip-rule="evenodd" d="M207.979 141.342c1.1-2.83 1.68-3.24 1.68-3.24l16.47.28-.63 1.01c-2.13 8.63-7.65 16.38-15.12 21.21-.16.1-.33.21-.52.21-.37.01-.63-.34-.83-.66a101.89 101.89 0 0 1-6.94-13.81s4.79-2.16 5.89-5Z" fill="#fff"/><path d="M209.659 138.102s-.58.41-1.68 3.24c-1.1 2.84-5.89 5-5.89 5 1.96 4.77 4.28 9.39 6.94 13.81.2.32.46.67.83.66.19 0 .36-.11.52-.21 7.47-4.83 12.99-12.58 15.12-21.21l.63-1.01-16.47-.28Z" stroke="#31333A" stroke-width="2"/><path d="M222.053 138.826c-2.31 7.62-7.51 14.33-14.23 18.39" stroke="#31333A" stroke-width="2"/><path d="M216.862 95.15c-5.78 0-10.47 4.69-10.47 10.469 0 5.78 4.69 10.47 10.47 10.47s10.47-4.69 10.47-10.47-4.69-10.47-10.47-10.47ZM181.986 95.83c-5.78 0-10.47 4.689-10.47 10.469 0 5.78 4.69 10.47 10.47 10.47s10.47-4.69 10.47-10.47-4.69-10.47-10.47-10.47Z" stroke="#31333A" stroke-width="1.5"/><path d="M191.49 102.713c3.76-4.02 10.43-3.89 14.92.31" stroke="#31333A" stroke-width="1.5"/><path d="M198.205 123.903s2.83-.76 4.94-.03" stroke="#31333A" stroke-width="2.126"/><path fill-rule="evenodd" clip-rule="evenodd" d="M295.588 73.5c2.43 1.29 4.12-.45 4.12-.45s1.28 1.01 2.19 1.22c1.59.36 2.87.51 4.14-1.52.71-1.14.51-2.86-.52-3.6 2.23.93 6.28.51 7.8-3.65.47-1.31.24-3.28-2.72-4.25-1.71-.56-4.02.62-4.67 1.09-1.76 1.28-8.72 5.07-9.28 4.58l-1.44.68c-2.83 2.19-1.55 4.88.38 5.9Z" fill="#DCDDDD"/><path d="M295.588 73.5c2.43 1.29 4.12-.45 4.12-.45s1.28 1.01 2.19 1.22c1.59.36 2.87.51 4.14-1.52.71-1.14.51-2.86-.52-3.6-.19-.08-.37-.17-.53-.27.19.06.37.15.53.27 2.23.93 6.28.51 7.8-3.65.47-1.31.24-3.28-2.72-4.25-1.71-.56-4.02.62-4.67 1.09-1.76 1.28-8.72 5.07-9.28 4.58l-1.44.68c-2.83 2.19-1.55 4.88.38 5.9Zm9.4-4.62c.16.1.34.19.53.27a1.77 1.77 0 0 0-.53-.27Z" stroke="#31333A" stroke-width="2"/><path fill-rule="evenodd" clip-rule="evenodd" d="M272.129 54.78c-.72-.18-1.56-8.06-1.5-10.23.02-.8-.32-3.38-1.76-4.47-2.47-1.89-4.23-.96-5.03.17-2.57 3.61-.62 7.19 1.42 8.5-1.2-.43-2.73.38-3.26 1.62-.95 2.19-.1 3.16 1.1 4.27.68.63 2.24 1.11 2.24 1.11s-.48 2.38 1.97 3.65c1.94 1 4.88.53 5.08-3.05l-.26-1.57Z" fill="#DCDDDD"/><path d="M272.129 54.78c-.72-.18-1.56-8.06-1.5-10.23.02-.8-.32-3.38-1.76-4.47-2.47-1.89-4.23-.96-5.03.17-2.57 3.61-.62 7.19 1.42 8.5.18.07.35.16.52.28-.17-.07-.35-.17-.52-.28-1.2-.43-2.73.38-3.26 1.62-.95 2.19-.1 3.16 1.1 4.27.68.63 2.24 1.11 2.24 1.11s-.48 2.38 1.97 3.65c1.94 1 4.88.53 5.08-3.05l-.26-1.57Zm-6.35-5.75c-.17-.12-.34-.21-.52-.28.17.11.35.21.52.28Z" stroke="#31333A" stroke-width="2"/><path fill-rule="evenodd" clip-rule="evenodd" d="M296.776 58.319c1.46.76 2.35 2.18 2.52 3.71.11.91-.05 1.87-.51 2.74l-4.6 8.75c-1.22 2.33-4.12 3.24-6.45 2.02l-17.87-9.39c-2.32-1.22-3.23-4.13-2.01-6.45l4.6-8.75a4.75 4.75 0 0 1 1.98-1.99c1.35-.72 3.02-.79 4.48-.02l17.86 9.38Z" fill="#fff"/><path d="M299.296 62.029c-.17-1.53-1.06-2.95-2.52-3.71l-17.86-9.38c-1.46-.77-3.13-.7-4.48.02a4.75 4.75 0 0 0-1.98 1.99l-4.6 8.75c-1.22 2.32-.31 5.23 2.01 6.45l17.87 9.39c2.33 1.22 5.23.31 6.45-2.02l4.6-8.75c.46-.87.62-1.83.51-2.74Z" stroke="#31333A" stroke-width="2.126"/><path fill-rule="evenodd" clip-rule="evenodd" d="M280.799 58.224c3.04-.95 6.31.77 7.26 3.82l4.05 13.03c.05.14.08.29.11.43-1.35.73-3.03.79-4.48.03l-17.87-9.38a4.79 4.79 0 0 1-2.52-3.71c.13-.06.27-.12.41-.16l13.04-4.06Z" fill="#fff"/><path d="M288.059 62.044c-.95-3.05-4.22-4.77-7.26-3.82l-13.04 4.06c-.14.04-.28.1-.41.16a4.79 4.79 0 0 0 2.52 3.71l17.87 9.38c1.45.76 3.13.7 4.48-.03-.03-.14-.06-.29-.11-.43l-4.05-13.03Z" stroke="#31333A" stroke-width="2.126"/><path fill-rule="evenodd" clip-rule="evenodd" d="M296.782 58.319c1.45.76 2.35 2.18 2.52 3.71-.14.06-.27.11-.42.16l-13.03 4.05c-3.04.95-6.32-.76-7.26-3.81l-4.06-13.03c-.04-.15-.07-.29-.1-.44 1.35-.72 3.03-.79 4.48-.02l17.87 9.38Z" fill="#fff"/><path d="M299.302 62.029a4.774 4.774 0 0 0-2.52-3.71l-17.87-9.38c-1.45-.77-3.13-.7-4.48.02.03.15.06.29.1.44l4.06 13.03c.94 3.05 4.22 4.76 7.26 3.81l13.03-4.05c.15-.05.28-.1.42-.16Z" stroke="#31333A" stroke-width="2.126"/><path fill-rule="evenodd" clip-rule="evenodd" d="M136.503 65.806c-.33-.89-1.38-1.52-2.24-1.26 1.49-.85 3-3.3 1.32-5.94-.52-.82-1.72-1.54-3.54-.31-1.05.72-1.38 2.52-1.4 3.08-.04 1.53-.93 7.06-1.44 7.16l-.24 1.1c0 2.52 2.06 2.97 3.46 2.33 1.77-.8 1.52-2.5 1.52-2.5s1.12-.28 1.63-.7c.88-.73 1.52-1.38.93-2.96Z" fill="#fff"/><path d="M136.503 65.806c-.33-.89-1.38-1.52-2.24-1.26-.12.07-.25.13-.37.18.12-.09.24-.15.37-.18 1.49-.85 3-3.3 1.32-5.94-.52-.82-1.72-1.54-3.54-.31-1.05.72-1.38 2.52-1.4 3.08-.04 1.53-.93 7.06-1.44 7.16l-.24 1.1c0 2.52 2.06 2.97 3.46 2.33 1.77-.8 1.52-2.5 1.52-2.5s1.12-.28 1.63-.7c.88-.73 1.52-1.38.93-2.96Zm-2.24-1.26c-.13.03-.25.09-.37.18.12-.05.25-.11.37-.18Z" stroke="#31333A" stroke-width="1.5"/><path fill-rule="evenodd" clip-rule="evenodd" d="M109.488 81.217s1.12 1.29 2.88.47c1.4-.65 2.4-2.49.49-4.14l-.99-.53c-.41.32-5.18-2.61-6.37-3.57-.44-.36-2.02-1.28-3.25-.95-2.12.57-2.36 1.96-2.07 2.89.91 2.99 3.75 3.44 5.36 2.86-.76.49-.96 1.69-.5 2.52.81 1.48 1.72 1.42 2.86 1.23.64-.11 1.59-.78 1.59-.78Z" fill="#fff"/><path d="M109.488 81.217s1.12 1.29 2.88.47c1.4-.65 2.4-2.49.49-4.14l-.99-.53c-.41.32-5.18-2.61-6.37-3.57-.44-.36-2.02-1.28-3.25-.95-2.12.57-2.36 1.96-2.07 2.89.91 2.99 3.75 3.44 5.36 2.86.11-.07.24-.13.38-.16-.12.06-.24.12-.38.16-.76.49-.96 1.69-.5 2.52.81 1.48 1.72 1.42 2.86 1.23.64-.11 1.59-.78 1.59-.78Zm-3.57-3.13c-.14.03-.27.09-.38.16.14-.04.26-.1.38-.16Z" stroke="#31333A" stroke-width="1.5"/><path fill-rule="evenodd" clip-rule="evenodd" d="M131.837 72.752c.77 1.69.03 3.7-1.66 4.47l-12.93 5.95c-1.69.77-3.7.02-4.48-1.66l-2.91-6.34c-.29-.63-.36-1.31-.25-1.96a3.35 3.35 0 0 1 1.91-2.51l12.94-5.94a3.34 3.34 0 0 1 3.15.18c.56.34 1.03.84 1.32 1.48l2.91 6.33Z" fill="#DCDDDD"/><path d="M130.177 77.222c1.69-.77 2.43-2.78 1.66-4.47l-2.91-6.33c-.29-.64-.76-1.14-1.32-1.48a3.34 3.34 0 0 0-3.15-.18l-12.94 5.94a3.35 3.35 0 0 0-1.91 2.51c-.11.65-.04 1.33.25 1.96l2.91 6.34a3.401 3.401 0 0 0 4.48 1.66l12.93-5.95Z" stroke="#31333A" stroke-width="1.417"/><path fill-rule="evenodd" clip-rule="evenodd" d="m122.777 71.232 9.03 3.35c.1.04.19.08.29.13a3.378 3.378 0 0 1-1.92 2.52l-12.93 5.94a3.39 3.39 0 0 1-3.16-.19c.02-.1.05-.2.09-.3l3.35-9.03c.77-2.11 3.14-3.2 5.25-2.42Z" fill="#fff"/><path d="m131.807 74.582-9.03-3.35c-2.11-.78-4.48.31-5.25 2.42l-3.35 9.03c-.04.1-.07.2-.09.3.93.56 2.1.67 3.16.19l12.93-5.94a3.378 3.378 0 0 0 1.92-2.52c-.1-.05-.19-.09-.29-.13Z" stroke="#31333A" stroke-width="1.417"/><path fill-rule="evenodd" clip-rule="evenodd" d="m127.524 65.242-3.35 9.03a4.094 4.094 0 0 1-5.25 2.42l-9.03-3.35c-.1-.03-.2-.08-.29-.13.18-1.06.86-2.03 1.91-2.51l12.94-5.94c1.05-.49 2.23-.38 3.16.18-.03.11-.06.21-.09.3Z" fill="#fff"/><path d="m124.174 74.272 3.35-9.03c.03-.09.06-.19.09-.3-.93-.56-2.11-.67-3.16-.18l-12.94 5.94a3.373 3.373 0 0 0-1.91 2.51c.09.05.19.1.29.13l9.03 3.35c2.1.78 4.47-.3 5.25-2.42ZM126.594 91.281l4.05 10.84M133.278 94.348l1.87 5.05M129.824 84.988l1.87 5.05M276.157 96.337l6.8-15.49M260.207 94.092l6.8-15.49M267.697 95.833l3.2-7.2M273.617 82.496l3.2-7.2" stroke="#31333A" stroke-width="1.417"/><path fill-rule="evenodd" clip-rule="evenodd" d="M309.107 208.251c.44.08.9-.07 1.22-.39l5.09-5.17c.8-.81 2.18-.35 2.34.78l1.01 7.18c.06.45.34.84.74 1.04l6.49 3.25c1.02.51 1.01 1.97-.01 2.47l-6.52 3.17c-.41.2-.7.59-.76 1.03l-1.09 7.18c-.17 1.13-1.55 1.57-2.35.75l-5.03-5.22c-.32-.33-.77-.48-1.22-.41l-7.16 1.19c-1.12.19-1.97-1-1.44-2l3.42-6.41c.21-.4.21-.88 0-1.28l-3.34-6.44c-.52-1.01.34-2.19 1.46-1.99l7.15 1.27Z" fill="#fff"/><path d="M310.327 207.861c-.32.32-.78.47-1.22.39l-7.15-1.27c-1.12-.2-1.98.98-1.46 1.99l3.34 6.44c.21.4.21.88 0 1.28l-3.42 6.41c-.53 1 .32 2.19 1.44 2l7.16-1.19c.45-.07.9.08 1.22.41l5.03 5.22c.8.82 2.18.38 2.35-.75l1.09-7.18c.06-.44.35-.83.76-1.03l6.52-3.17c1.02-.5 1.03-1.96.01-2.47l-6.49-3.25c-.4-.2-.68-.59-.74-1.04l-1.01-7.18c-.16-1.13-1.54-1.59-2.34-.78l-5.09 5.17Z" stroke="#31333A" stroke-width="2.126"/><path fill-rule="evenodd" clip-rule="evenodd" d="m316.885 134.693 6.93 12h-13.86l6.93-12Z" fill="#5578EC"/><path d="m323.815 146.693-6.93-12-6.93 12h13.86Z" stroke="#3351E5" stroke-width="2.126"/></svg>