<svg viewBox="0 0 400 300" fill="none" xmlns="http://www.w3.org/2000/svg"><path d="M176.93 71.05c.75-.23 1.49-.45 2.24-.67 79.45-23.62 152.7-12.48 164.2 25.22 3.74 12.27.49 25.85-8.33 39.45M79.48 211.521c-13.84-6.34-23.38-15.49-26.95-27.21-9.88-32.4 29.02-73.97 90.37-100.73" stroke="#31333A" stroke-width="2.126"/><path d="M57.922 187.12c2.46-11.69 9.82-23.9 21.1-35.75 3.31-3.49 6.98-6.95 10.96-10.35 11.4-9.77 25.39-19.07 41.38-27.38 15.5-8.07 32.87-15.19 51.57-20.9 25.8-7.87 51.01-12.07 73.72-12.9 8.45-.31 16.55-.15 24.22.47" stroke="#31333A" stroke-width="2.126"/><path fill-rule="evenodd" clip-rule="evenodd" d="M310.293 188.445c-5.7 4.37-11.91 8.61-18.58 12.68l-1.44.87-.03.01c-.96.58-1.93 1.15-2.92 1.72-10.1 5.89-21.17 11.37-33.03 16.3a316.644 316.644 0 0 1-38.97 13.3c-13.8 3.75-27.36 6.45-40.38 8.14-12.36 1.6-24.24 2.29-35.37 2.11-.12 0-.23 0-.34-.01-2.16-.04-4.3-.11-6.4-.22a170.912 170.912 0 0 1-15.52-1.43c-5.13-.7-10.02-1.64-14.63-2.8l-23.66-87.74-4.64-17.2c-2.27-8.41 2.71-17.07 11.12-19.34l186.33-50.25c8.41-2.27 17.07 2.71 19.34 11.12l1.62 5.99 26.74 99.19c-2.9 2.56-5.99 5.09-9.24 7.56Z" fill="#DCDDDD"/><path d="M291.713 201.125c6.67-4.07 12.88-8.31 18.58-12.68 3.25-2.47 6.34-5 9.24-7.56l-26.74-99.19-1.62-5.99c-2.27-8.41-10.93-13.39-19.34-11.12l-186.33 50.25c-8.41 2.27-13.39 10.93-11.12 19.34l4.64 17.2 23.66 87.74c4.61 1.16 9.5 2.1 14.63 2.8a170.912 170.912 0 0 0 15.52 1.43c2.1.11 4.24.18 6.4.22.11.01.22.01.34.01 11.13.18 23.01-.51 35.37-2.11 13.02-1.69 26.58-4.39 40.38-8.14a316.644 316.644 0 0 0 38.97-13.3c11.86-4.93 22.93-10.41 33.03-16.3.99-.57 1.96-1.14 2.92-1.72l.03-.01 1.44-.87Z" stroke="#31333A" stroke-width="2.126"/><path fill-rule="evenodd" clip-rule="evenodd" d="M280.871 80.318c.33.61.6 1.27.79 1.97l28.61 106.07c.01.03.02.06.02.09-5.7 4.37-11.91 8.61-18.58 12.68l-1.44.87-.03.01c-.96.58-1.93 1.15-2.92 1.72l-34.93 9.42-39.68 10.7-39.68 10.7-33.46 9.03c-.12 0-.23 0-.34-.01-2.16-.04-4.3-.11-6.4-.22a170.912 170.912 0 0 1-15.52-1.43c-.2-.44-.37-.91-.5-1.39l-8.36-31.01 1.77-7.53c.33-1.41-.55-2.83-1.96-3.16l-2.87-.67-15.41-57.13-1.77-6.57c-1.28-4.72 1.52-9.59 6.25-10.86l36.9-9.95 17.75-4.79 4.25 2.17c2 1.02 4.45.22 5.47-1.78l1.78-3.49 96.04-25.91 14.14-3.81a8.88 8.88 0 0 1 10.08 4.28Z" fill="#fff"/><path fill-rule="evenodd" clip-rule="evenodd" d="M302.111 78.203c-2.76 0-5 2.24-5 5s2.24 5 5 5 5-2.24 5-5-2.24-5-5-5Z" fill="#31333A"/><path fill-rule="evenodd" clip-rule="evenodd" d="m123.505 209.44 39.627-10.904-3.279-11.917-39.627 10.904 3.279 11.917Z" fill="#5578EC"/><path d="m160.46 186.967-39.624 10.903 3.015 10.957 39.624-10.903-3.015-10.957Z" stroke="#3351E5" stroke-width=".992"/><path fill-rule="evenodd" clip-rule="evenodd" d="m163.129 198.537 39.627-10.904-3.279-11.917-39.627 10.904 3.279 11.917Z" fill="#5578EC"/><path d="m200.083 176.063-39.624 10.904 3.015 10.957 39.624-10.903-3.015-10.958Z" stroke="#3351E5" stroke-width=".992"/><path fill-rule="evenodd" clip-rule="evenodd" d="m202.752 187.634 39.627-10.904-3.279-11.917-39.627 10.904 3.279 11.917Z" fill="#5578EC"/><path d="m239.707 165.16-39.624 10.903 3.015 10.958 39.624-10.904-3.015-10.957Z" stroke="#3351E5" stroke-width=".992"/><path fill-rule="evenodd" clip-rule="evenodd" d="m242.376 176.731 39.627-10.905-3.279-11.917-39.627 10.904 3.279 11.918Z" fill="#5578EC"/><path d="m279.33 154.257-39.624 10.903 3.015 10.957 39.624-10.903-3.015-10.957Z" stroke="#3351E5" stroke-width=".992"/><path fill-rule="evenodd" clip-rule="evenodd" d="m126.783 221.355 39.627-10.905-3.279-11.917-39.627 10.905 3.279 11.917Z" fill="#5578EC"/><path d="m163.738 198.881-39.624 10.903 3.015 10.957 39.624-10.903-3.015-10.957Z" stroke="#3351E5" stroke-width=".992"/><path fill-rule="evenodd" clip-rule="evenodd" d="m166.407 210.451 39.627-10.904-3.279-11.917-39.627 10.904 3.279 11.917Z" fill="#EDEDED"/><path d="m203.366 187.98-39.624 10.904 3.013 10.949 39.624-10.903-3.013-10.95Z" stroke="#767777"/><path fill-rule="evenodd" clip-rule="evenodd" d="m206.03 199.548 39.627-10.904-3.279-11.917-39.627 10.904 3.279 11.917Z" fill="#EDEDED"/><path d="m242.99 177.077-39.624 10.903 3.013 10.95 39.624-10.903-3.013-10.95Z" stroke="#767777"/><path fill-rule="evenodd" clip-rule="evenodd" d="m245.654 188.645 39.627-10.905-3.279-11.917-39.627 10.905 3.279 11.917Z" fill="#EDEDED"/><path d="m282.613 166.174-39.624 10.903 3.013 10.95 39.624-10.903-3.013-10.95Z" stroke="#767777"/><path fill-rule="evenodd" clip-rule="evenodd" d="m130.061 233.269 39.628-10.905-3.28-11.917-39.627 10.905 3.279 11.917Z" fill="#5578EC"/><path d="m167.016 210.795-39.623 10.903 3.015 10.958 39.623-10.904-3.015-10.957Z" stroke="#3351E5" stroke-width=".992"/><path fill-rule="evenodd" clip-rule="evenodd" d="m169.685 222.365 39.628-10.904-3.28-11.917-39.627 10.904 3.279 11.917Z" fill="#EDEDED"/><path d="m206.644 199.895-39.623 10.903 3.013 10.95 39.623-10.904-3.013-10.949Z" stroke="#767777"/><path fill-rule="evenodd" clip-rule="evenodd" d="m209.309 211.462 39.627-10.904-3.28-11.917-39.627 10.904 3.28 11.917Z" fill="#EDEDED"/><path d="m246.268 188.991-39.623 10.904 3.013 10.949 39.623-10.903-3.013-10.95Z" stroke="#767777"/><path fill-rule="evenodd" clip-rule="evenodd" d="m248.933 200.559 39.627-10.905-3.28-11.917-39.627 10.905 3.28 11.917Z" fill="#EDEDED"/><path d="m285.891 178.088-39.623 10.903 3.013 10.95 39.623-10.903-3.013-10.95Z" stroke="#767777"/><path fill-rule="evenodd" clip-rule="evenodd" d="m130.062 233.263 39.62-10.9 3.28 11.91-33.73 9.29c-2.16-.04-4.3-.11-6.4-.22l-2.77-10.08Z" fill="#5578EC"/><path d="m169.682 222.363-39.62 10.9 2.77 10.08c2.1.11 4.24.18 6.4.22l33.73-9.29-3.28-11.91Z" stroke="#3351E5" stroke-width=".992"/><path fill-rule="evenodd" clip-rule="evenodd" d="m172.964 234.279 39.627-10.904-3.279-11.917-39.627 10.904 3.279 11.917Z" fill="#EDEDED"/><path d="m209.922 211.809-39.623 10.903 3.013 10.95 39.623-10.904-3.013-10.949Z" stroke="#767777"/><path fill-rule="evenodd" clip-rule="evenodd" d="m212.587 223.376 39.627-10.904-3.279-11.917-39.627 10.904 3.279 11.917Z" fill="#EDEDED"/><path d="m249.546 200.905-39.623 10.904 3.013 10.949 39.624-10.903-3.014-10.95Z" stroke="#767777"/><path fill-rule="evenodd" clip-rule="evenodd" d="m248.932 200.553 39.62-10.9 3.16 11.47-1.44.87-.03.01-38.03 10.47-3.28-11.92Z" fill="#EDEDED"/><path d="m288.552 189.653-39.62 10.9 3.28 11.92 38.03-10.47.03-.01 1.44-.87-3.16-11.47Z" stroke="#767777"/><path fill-rule="evenodd" clip-rule="evenodd" d="m172.961 234.273.07.27 1.91 6.92c-12.36 1.6-24.24 2.29-35.37 2.11-.12 0-.23 0-.34-.01l33.73-9.29Z" fill="#5578EC"/><path d="m173.031 234.543-.07-.27-33.73 9.29c.11.01.22.01.34.01 11.13.18 23.01-.51 35.37-2.11l-1.91-6.92Z" stroke="#3351E5" stroke-width=".992"/><path fill-rule="evenodd" clip-rule="evenodd" d="m212.582 223.374.13.47 2.61 9.48c-13.8 3.75-27.36 6.45-40.38 8.14l-1.91-6.92-.07-.27 39.62-10.9Z" fill="#EDEDED"/><path d="m212.712 223.844-.13-.47-39.62 10.9.07.27 1.91 6.92c13.02-1.69 26.58-4.39 40.38-8.14l-2.61-9.48Z" stroke="#767777"/><path fill-rule="evenodd" clip-rule="evenodd" d="m252.212 212.474.18.67 1.9 6.88a316.644 316.644 0 0 1-38.97 13.3l-2.61-9.48-.13-.47 39.63-10.9Z" fill="#EDEDED"/><path d="m252.392 213.144-.18-.67-39.63 10.9.13.47 2.61 9.48a316.644 316.644 0 0 0 38.97-13.3l-1.9-6.88Z" stroke="#767777"/><path fill-rule="evenodd" clip-rule="evenodd" d="m252.392 213.144-.18-.67 38.03-10.47c-.96.58-1.93 1.15-2.92 1.72-10.1 5.89-21.17 11.37-33.03 16.3l-1.9-6.88Z" fill="#EDEDED"/><path d="m252.212 212.474.18.67 1.9 6.88c11.86-4.93 22.93-10.41 33.03-16.3.99-.57 1.96-1.14 2.92-1.72l-38.03 10.47Z" stroke="#767777" stroke-width="1.001"/><path fill-rule="evenodd" clip-rule="evenodd" d="M213.049 153.917c-3.62 6.32-10.32 11.08-18.51 12.3-2.19.33-4.34.38-6.44.19-.32-.03-.63-.06-.95-.1-.02 0-.05-.01-.07-.01a26.116 26.116 0 0 1-15.02-7.63c-.05-.06-.1-.11-.15-.17-2.77-3.08-4.67-6.89-5.31-11.17-.22-1.48-.28-2.95-.19-4.39 3.13.42 6.32.39 9.45-.09 6.77-1.01 12.64-3.91 16.72-7.81 2.11-1.97 3.78-4.36 4.91-7.02 0-.02.01-.03.02-.05.2-.42.7-.59 1.12-.38a25.834 25.834 0 0 1 14.42 26.33Z" fill="#fff"/><path d="M194.539 166.217c8.19-1.22 14.89-5.98 18.51-12.3a25.834 25.834 0 0 0-14.42-26.33.824.824 0 0 0-1.12.38c-.01.02-.02.03-.02.05-1.13 2.66-2.8 5.05-4.91 7.02-4.08 3.9-9.95 6.8-16.72 7.81-3.13.48-6.32.51-9.45.09-.09 1.44-.03 2.91.19 4.39.64 4.28 2.54 8.09 5.31 11.17.05.06.1.11.15.17 3.97 4.07 9.23 6.81 15.02 7.63.02 0 .05.01.07.01.32.04.63.07.95.1 2.1.19 4.25.14 6.44-.19Z" stroke="#31333A" stroke-width=".992"/><path fill-rule="evenodd" clip-rule="evenodd" d="M213.082 154.644c1.4-10.79-4.1-21.3-13.76-26.3-.03-.01-.05-.03-.08-.04-.74-.33-1.61 0-1.94.74-1.12 2.43-2.7 4.61-4.66 6.44-4.08 3.9-9.95 6.8-16.72 7.81-1.27.19-2.55.3-3.83.35-.69 3.39-.77 6.88-.26 10.3.32 2.16.88 4.28 1.66 6.32-4.77-4.04-7.9-9.68-8.82-15.86-.07-.45-.12-.91-.16-1.36-.64-.13-1.27-.27-1.89-.44-.75-.21-1.48-.44-2.19-.7-.63-.23-1.15-.66-1.51-1.23a3.04 3.04 0 0 1 .97-4.19c1.89-1.2 3.91-2.18 6.01-2.95 4.12-13.2 17.78-20.93 31.22-17.68 10.26 2.47 18 10.91 19.57 21.35.92 6.06-.37 12.24-3.61 17.44Z" fill="#31333A"/><path d="M199.322 128.344c9.66 5 15.16 15.51 13.76 26.3 3.24-5.2 4.53-11.38 3.61-17.44a25.923 25.923 0 0 0-19.57-21.35c-13.44-3.25-27.1 4.48-31.22 17.68-2.1.77-4.12 1.75-6.01 2.95a3.04 3.04 0 0 0-.97 4.19c.36.57.88 1 1.51 1.23.71.26 1.44.49 2.19.7.62.17 1.25.31 1.89.44.04.45.09.91.16 1.36.92 6.18 4.05 11.82 8.82 15.86-.78-2.04-1.34-4.16-1.66-6.32-.51-3.42-.43-6.91.26-10.3 1.28-.05 2.56-.16 3.83-.35 6.77-1.01 12.64-3.91 16.72-7.81 1.96-1.83 3.54-4.01 4.66-6.44.33-.74 1.2-1.07 1.94-.74.03.01.05.03.08.04Z" stroke="#31333A"/><path d="m183.002 153.82 2.48-4.91M181.785 150.127l4.91 2.48M198.209 149.608l2.48-4.91M196.992 145.915l4.91 2.48M187.798 121.099c-13.57 2.027-23.059 13.768-21.197 26.23 1.862 12.462 14.369 20.916 27.938 18.889 13.57-2.028 23.069-13.77 21.207-26.232-1.862-12.462-14.379-20.915-27.948-18.887Z" stroke="#31333A" stroke-width="2.126"/><path fill-rule="evenodd" clip-rule="evenodd" d="m150.153 175.703 9.82-2.72-2.13-7.69 4.27-1.18-1.82-6.57-4.27 1.18-6.16-22.23-9.81 2.72.02.07-10.89 28.33 2.03 5.06 16.81-4.66 2.13 7.69Zm-7.091-25.613-.18.02-.56 2.18-5.09 11.64 8.98-2.49-3.15-11.35ZM249.052 130.857l-6.16-22.23-9.81 2.72.02.07-10.89 28.33 2.02 5.06 16.82-4.66 2.13 7.69 9.82-2.72-2.13-7.69 4.27-1.18-1.82-6.57-4.27 1.18Zm-12.962-8.633-.18.02-.56 2.18-5.09 11.64 8.98-2.49-3.15-11.35Z" fill="#31333A"/><path fill-rule="evenodd" clip-rule="evenodd" d="M270.611 91.203c-1.93 0-3.5 1.57-3.5 3.5s1.57 3.5 3.5 3.5 3.5-1.57 3.5-3.5-1.57-3.5-3.5-3.5ZM107.611 135.203c-1.93 0-3.5 1.57-3.5 3.5s1.57 3.5 3.5 3.5 3.5-1.57 3.5-3.5-1.57-3.5-3.5-3.5Z" fill="#B5B5B6"/><path fill-rule="evenodd" clip-rule="evenodd" d="m322.571 141.741 10.79 8.7-12.93 4.99 2.14-13.69Z" fill="#5578EC"/><path d="m333.361 150.441-10.79-8.7-2.14 13.69 12.93-4.99Z" stroke="#3351E5" stroke-width="2.126"/><path d="M309.672 85.38c20.71 6.06 35.11 16.871 39.7 31.911 5.98 19.62-5.91 42.59-29.84 63.59-2.9 2.56-5.99 5.09-9.24 7.56-5.7 4.37-11.91 8.61-18.58 12.68l-1.44.87-.03.01c-.96.58-1.93 1.15-2.92 1.72-10.1 5.89-21.17 11.37-33.03 16.3a316.644 316.644 0 0 1-38.97 13.3c-13.8 3.75-27.36 6.45-40.38 8.14-12.36 1.6-24.24 2.29-35.37 2.11-.12 0-.23 0-.34-.01-2.16-.04-4.3-.11-6.4-.22a170.912 170.912 0 0 1-15.52-1.43c-5.13-.7-10.02-1.64-14.63-2.8-5.92-1.48-11.4-3.32-16.33-5.52-9.94-4.41-17.73-10.23-22.78-17.39-2.22-3.14-3.92-6.55-5.03-10.2" stroke="#31333A" stroke-width="2.126"/><path d="M53.13 118.649h9.63M72.945 96.835v9.63M53.748 103.292l8.4 4.72" stroke="#31333A" stroke-width="2"/><path fill-rule="evenodd" clip-rule="evenodd" d="M60.111 205.203c-2.76 0-5 2.24-5 5s2.24 5 5 5 5-2.24 5-5-2.24-5-5-5Z" fill="#fff"/><path d="M60.111 205.203c-2.76 0-5 2.24-5 5s2.24 5 5 5 5-2.24 5-5-2.24-5-5-5Z" stroke="#31333A" stroke-width="2.126"/><path fill-rule="evenodd" clip-rule="evenodd" d="m144.882 74.775 6.32-3.57c.39-.22.65-.63.69-1.08l.65-7.22c.1-1.14 1.46-1.67 2.3-.9l5.34 4.91c.34.31.8.43 1.24.33l7.07-1.62c1.11-.26 2.03.87 1.56 1.91l-3.01 6.6c-.19.41-.17.89.07 1.28l3.72 6.22c.59.98-.2 2.21-1.33 2.08l-7.21-.83c-.45-.05-.9.12-1.2.46l-4.76 5.47c-.75.86-2.16.49-2.39-.63l-1.44-7.11c-.09-.45-.39-.82-.81-.99l-6.67-2.85c-1.05-.45-1.13-1.9-.14-2.46Z" fill="#DCDDDD"/><path fill-rule="evenodd" clip-rule="evenodd" d="M164.728 140.861a3.55 3.55 0 1 0 .002 7.102 3.55 3.55 0 0 0-.002-7.102Z" fill="#31333A"/></svg>