<svg viewBox="0 0 400 300" fill="none" xmlns="http://www.w3.org/2000/svg"><path fill-rule="evenodd" clip-rule="evenodd" d="M166.771 251.675c-5.22.25-10.3.3-15.23.15-4.73-.13-9.31-.44-13.71-.92-1.47-.16-2.9-.34-4.33-.54-11.33-1.57-21.35-4.32-29.59-8.17 16.53-22.49 52.69-44.01 97.47-55.45 44.79-11.44 86.83-9.9 112.12 1.9-6.65 9.05-16.47 17.95-28.77 26.09-3.69 2.45-7.62 4.84-11.75 7.13-5.24 2.92-10.8 5.7-16.66 8.31-12.27 5.49-25.84 10.23-40.29 13.92-17.07 4.36-33.76 6.84-49.26 7.58Z" fill="#AFAEB4"/><path fill-rule="evenodd" clip-rule="evenodd" d="M266.27 224.554c-.97.47-1.95.92-2.94 1.36-2.96 1.35-5.97 2.67-9.04 3.94-4.76 1.98-9.65 3.88-14.65 5.66-4.79 1.72-9.68 3.35-14.67 4.87-3.23.98-6.45 1.91-9.65 2.77-13.8 3.75-27.36 6.45-40.38 8.14-10.93 1.41-21.49 2.12-31.48 2.14l-27.17-75.38c-1.73-4.8 2.93-9.79 10.43-11.07l147.21-25.06c7.51-1.28 13.56 1.9 13.51 6.99l-.57 64.9c-6.49 3.77-13.37 7.36-20.6 10.74Z" fill="#E7E7E7"/><path d="M263.33 225.914c.99-.44 1.97-.89 2.94-1.36 7.23-3.38 14.11-6.97 20.6-10.74l.57-64.9c.05-5.09-6-8.27-13.51-6.99l-147.21 25.06c-7.5 1.28-12.16 6.27-10.43 11.07l27.17 75.38c9.99-.02 20.55-.73 31.48-2.14 13.02-1.69 26.58-4.39 40.38-8.14 3.2-.86 6.42-1.79 9.65-2.77 4.99-1.52 9.88-3.15 14.67-4.87 5-1.78 9.89-3.68 14.65-5.66 3.07-1.27 6.08-2.59 9.04-3.94Z" stroke="#31333A" stroke-width="2.126"/><path d="m151.275 182.426 20.32 66.2M263.331 221.358l-.04-.79-2.39-56.06M177.911 178.296l17.64 67M239.641 233.967l-.51-6.19-4.84-59.08M206.275 173.59l11.35 66.69M131.5 204.227l151.27-25.75" stroke="#AFAEB4" stroke-width="2.126"/><path d="m258.331 225.912-19.2 3.27-92.56 15.76" stroke="#AFAEB4" stroke-width="2.126"/><path d="M176.931 81.466c.75-.22 1.49-.45 2.24-.67 79.45-23.62 152.7-12.48 164.2 25.22 3.74 12.27.49 25.85-8.33 39.45M79.48 221.936c-13.84-6.34-23.37-15.49-26.95-27.21-9.88-32.4 29.02-73.97 90.37-100.73" stroke="#31333A" stroke-width="2.126"/><path d="M57.922 197.536c2.46-11.69 9.82-23.9 21.1-35.75 3.31-3.49 6.98-6.95 10.96-10.35 11.4-9.77 25.39-19.07 41.38-27.38 15.5-8.07 32.87-15.19 51.57-20.9 25.8-7.87 51.01-12.07 73.72-12.9 8.45-.31 16.55-.15 24.22.47M309.672 95.797c20.71 6.07 35.11 16.87 39.7 31.91 5.98 19.62-5.91 42.59-29.84 63.59-2.9 2.56-5.99 5.09-9.24 7.56-5.7 4.37-11.91 8.61-18.58 12.68l-1.44.87-.03.01c-.96.58-1.93 1.15-2.92 1.72-10.1 5.89-21.17 11.37-33.03 16.3a316.644 316.644 0 0 1-38.97 13.3c-13.8 3.75-27.36 6.45-40.38 8.14-12.36 1.6-24.24 2.29-35.37 2.11-.12 0-.23 0-.34-.01-2.16-.04-4.3-.11-6.4-.22a170.912 170.912 0 0 1-15.52-1.43c-5.13-.7-10.02-1.64-14.63-2.8-5.92-1.48-11.4-3.32-16.33-5.52-9.94-4.41-17.73-10.23-22.78-17.38-2.22-3.15-3.92-6.55-5.03-10.21" stroke="#31333A" stroke-width="2.126"/><path fill-rule="evenodd" clip-rule="evenodd" d="m336.577 154.688-13.66 2.32 4.82-12.99 8.84 10.67Z" fill="#5578EC"/><path d="m322.917 157.008 13.66-2.32-8.84-10.67-4.82 12.99Z" stroke="#3351E5" stroke-width="2.126"/><path fill-rule="evenodd" clip-rule="evenodd" d="M142.644 96.093c-.32.16-.54.46-.6.81l-.84 5.62c-.14.89-1.23 1.23-1.85.59l-3.94-4.09c-.25-.26-.6-.38-.95-.32l-5.61.93c-.89.15-1.55-.78-1.13-1.57l2.67-5.02c.17-.31.17-.68.01-1l-2.62-5.05c-.41-.79.26-1.71 1.14-1.55l5.6.99c.35.06.71-.06.96-.31l3.99-4.05c.63-.63 1.71-.28 1.83.61l.79 5.63c.05.35.27.66.59.82l5.08 2.54c.8.4.79 1.54-.01 1.93l-5.11 2.49Z" fill="#fff"/><path d="M142.044 96.903c.06-.35.28-.65.6-.81l5.11-2.49c.8-.39.81-1.53.01-1.93l-5.08-2.54c-.32-.16-.54-.47-.59-.82l-.79-5.63c-.12-.89-1.2-1.24-1.83-.61l-3.99 4.05c-.25.25-.61.37-.96.31l-5.6-.99c-.88-.16-1.55.76-1.14 1.55l2.62 5.05c.16.32.16.69-.01 1l-2.67 5.02c-.42.79.24 1.72 1.13 1.57l5.61-.93c.35-.06.7.06.95.32l3.94 4.09c.62.64 1.71.3 1.85-.59l.84-5.62Z" stroke="#31333A" stroke-width="2.126"/><path fill-rule="evenodd" clip-rule="evenodd" d="M62.432 219.577c-2.76 0-5 2.24-5 5s2.24 5 5 5 5-2.24 5-5-2.24-5-5-5Z" fill="#fff"/><path d="M62.432 219.577c-2.76 0-5 2.24-5 5s2.24 5 5 5 5-2.24 5-5-2.24-5-5-5Z" stroke="#31333A" stroke-width="2.126"/><path fill-rule="evenodd" clip-rule="evenodd" d="M205.859 92.823c.01-.04.02-.06.04-.1.33-.73 1.2-1.04 1.94-.7 17.56 8.05 28.06 26.36 26.15 45.55-6.09 11.18-17.65 19.75-31.93 22.18-3.82.65-7.59.82-11.26.56-.56-.04-1.11-.09-1.66-.15-.04 0-.09-.01-.13-.01-10.15-1.22-19.46-5.83-26.54-12.81-.1-.1-.19-.2-.28-.29-4.95-5.29-8.41-11.89-9.68-19.35a37 37 0 0 1-.49-7.69c5.5.63 11.06.47 16.52-.48 11.82-2.02 21.98-7.29 28.99-14.26 3.62-3.52 6.46-7.76 8.33-12.45Z" fill="#fff"/><path d="M205.899 92.723c-.02.04-.03.06-.04.1a35.928 35.928 0 0 1-8.33 12.45c-7.01 6.97-17.17 12.24-28.99 14.26-5.46.95-11.02 1.11-16.52.48a37 37 0 0 0 .49 7.69c1.27 7.46 4.73 14.06 9.68 19.35.09.09.18.19.28.29 7.08 6.98 16.39 11.59 26.54 12.81.04 0 .09.01.13.01.55.06 1.1.11 1.66.15 3.67.26 7.44.09 11.26-.56 14.28-2.43 25.84-11 31.93-22.18 1.91-19.19-8.59-37.5-26.15-45.55-.74-.34-1.61-.03-1.94.7Z" stroke="#31333A" stroke-width="2.126"/><path fill-rule="evenodd" clip-rule="evenodd" d="M209.077 93.33c-.05-.02-.089-.05-.139-.07a2.577 2.577 0 0 0-3.371 1.37 36.3 36.3 0 0 1-7.92 11.42c-7.01 6.97-17.16 12.25-28.97 14.26-2.219.37-4.45.62-6.69.75a51.939 51.939 0 0 0-.09 18.02c.64 3.77 1.69 7.46 3.13 11.01a45.004 45.004 0 0 1-16-27.44c-.13-.79-.24-1.58-.33-2.38-1.12-.2-2.23-.43-3.31-.7-1.32-.33-2.61-.71-3.87-1.14a5.323 5.323 0 0 1-2.67-2.1c-1.61-2.45-.92-5.75 1.53-7.36 3.27-2.16 6.77-3.96 10.42-5.37 6.74-23.24 30.361-37.26 53.981-32.04 18.04 3.96 31.88 18.45 35.009 36.64a44.97 44.97 0 0 1-5.71 30.65c2.081-18.92-7.919-37.12-25-45.52Z" fill="#31333A"/><path d="M208.938 93.26c.05.02.089.05.139.07 17.08 8.4 27.08 26.6 25 45.52a44.97 44.97 0 0 0 5.71-30.65c-3.13-18.19-16.969-32.68-35.009-36.64-23.62-5.22-47.241 8.8-53.981 32.04a54.638 54.638 0 0 0-10.42 5.37c-2.45 1.61-3.14 4.91-1.53 7.36.64.98 1.58 1.71 2.67 2.1 1.26.43 2.55.81 3.87 1.14 1.08.27 2.19.5 3.31.7.09.8.2 1.59.33 2.38a45.004 45.004 0 0 0 16 27.44 52.794 52.794 0 0 1-3.13-11.01c-1.02-5.96-.99-12.06.09-18.02 2.24-.13 4.47-.38 6.69-.75 11.811-2.01 21.96-7.29 28.97-14.26 3.35-3.26 6.04-7.14 7.92-11.42a2.577 2.577 0 0 1 3.371-1.37Z" stroke="#31333A"/><path d="M198.634 149.629c-.2-1.17.79-2.32 2.22-2.56 1.42-.25 2.74.51 2.94 1.68" stroke="#31333A" stroke-width="2.126"/><path d="M188.666 81.06c-23.669 4.029-39.855 24.911-36.156 46.639 3.698 21.727 25.881 36.078 49.55 32.049 23.67-4.029 39.855-24.911 36.157-46.638-3.699-21.728-25.881-36.079-49.551-32.05Z" stroke="#31333A" stroke-width="2.126"/><path fill-rule="evenodd" clip-rule="evenodd" d="M213.951 129.837a3.8 3.8 0 1 0-1.275-7.492 3.8 3.8 0 1 0 1.275 7.492ZM181.474 135.365a3.798 3.798 0 0 0 3.108-4.383 3.799 3.799 0 0 0-4.384-3.109 3.798 3.798 0 0 0-3.108 4.384 3.797 3.797 0 0 0 4.384 3.108Z" fill="#31333A"/><path d="m197.586 130.776-1.06 2.89c-.31.84-.62 1.74-.41 2.6.21.87 1.17 1.61 1.98 1.23" stroke="#31333A" stroke-width="2"/><path fill-rule="evenodd" clip-rule="evenodd" d="m290.313 155.661-175.15 29.81c-6.19 1.06-12.07-3.13-13.13-9.35l-.85-4.96c-1.05-6.22 3.11-12.12 9.31-13.17l175.14-29.82c6.2-1.05 12.08 3.14 13.14 9.36l.84 4.95c1.06 6.23-3.1 12.13-9.3 13.18Z" fill="#5578EC"/><path d="m115.163 185.471 175.15-29.81c6.2-1.05 10.36-6.95 9.3-13.18l-.84-4.95c-1.06-6.22-6.94-10.41-13.14-9.36l-175.14 29.82c-6.2 1.05-10.36 6.95-9.31 13.17l.85 4.96c1.06 6.22 6.94 10.41 13.13 9.35Z" stroke="#3351E5" stroke-width="2.126"/><path fill-rule="evenodd" clip-rule="evenodd" d="M140.328 141.195c3.43 0 6.2 2.78 6.2 6.21v13.42c-.01 3.07-2.23 5.62-5.16 6.11a6.205 6.205 0 0 1-7.25-6.11l.01-13.43c0-3.42 2.78-6.2 6.2-6.2Z" fill="#fff"/><path d="M146.528 147.405c0-3.43-2.77-6.21-6.2-6.21-3.42 0-6.2 2.78-6.2 6.2l-.01 13.43a6.205 6.205 0 0 0 12.41 0v-13.42Z" stroke="#31333A" stroke-width="2.126"/><path fill-rule="evenodd" clip-rule="evenodd" d="M152.314 138.411c3.21 0 5.81 2.6 5.81 5.81v12.59c-.01 2.87-2.09 5.26-4.83 5.72-.33.06-.65.09-.99.09a5.823 5.823 0 0 1-5.81-5.82l.01-12.58c0-3.21 2.61-5.81 5.81-5.81Z" fill="#fff"/><path d="M158.124 144.221c0-3.21-2.6-5.81-5.81-5.81-3.2 0-5.81 2.6-5.81 5.81l-.01 12.58c0 3.21 2.6 5.81 5.81 5.82.34 0 .66-.03.99-.09 2.74-.46 4.82-2.85 4.83-5.72v-12.59Z" stroke="#31333A" stroke-width="2.126"/><path fill-rule="evenodd" clip-rule="evenodd" d="M128.28 142.502c3.21 0 5.81 2.61 5.81 5.81v12.59c-.01 2.87-2.09 5.26-4.83 5.72-.33.06-.65.09-.99.09a5.823 5.823 0 0 1-5.81-5.82l.01-12.58c0-3.21 2.61-5.81 5.81-5.81Z" fill="#fff"/><path d="M134.09 148.312c0-3.2-2.6-5.81-5.81-5.81-3.2 0-5.81 2.6-5.81 5.81l-.01 12.58c0 3.21 2.6 5.81 5.81 5.82.34 0 .66-.03.99-.09 2.74-.46 4.82-2.85 4.83-5.72v-12.59Z" stroke="#31333A" stroke-width="2.126"/><path fill-rule="evenodd" clip-rule="evenodd" d="M266.231 138.338a6.216 6.216 0 0 1-3.8 7.91c-.34.11-.68.2-1.02.26a6.21 6.21 0 0 1-6.89-4.06l-4.45-12.67a6.216 6.216 0 0 1 3.8-7.91c3.23-1.13 6.77.57 7.91 3.8l4.45 12.67Z" fill="#fff"/><path d="M262.431 146.248a6.216 6.216 0 0 0 3.8-7.91l-4.45-12.67a6.216 6.216 0 0 0-7.91-3.8 6.216 6.216 0 0 0-3.8 7.91l4.45 12.67a6.21 6.21 0 0 0 6.89 4.06c.34-.06.68-.15 1.02-.26Z" stroke="#31333A" stroke-width="2.126"/><path fill-rule="evenodd" clip-rule="evenodd" d="M253.221 138.637c1.06 3.03-.53 6.35-3.56 7.41-.32.11-.64.19-.96.25-2.74.46-5.5-1.1-6.45-3.81l-4.17-11.87c-1.06-3.03.53-6.35 3.56-7.41 3.02-1.06 6.35.53 7.41 3.56l4.17 11.87Z" fill="#fff"/><path d="M249.661 146.047c3.03-1.06 4.62-4.38 3.56-7.41l-4.17-11.87c-1.06-3.03-4.39-4.62-7.41-3.56-3.03 1.06-4.62 4.38-3.56 7.41l4.17 11.87a5.822 5.822 0 0 0 6.45 3.81c.32-.06.64-.14.96-.25Z" stroke="#31333A" stroke-width="2.126"/><path fill-rule="evenodd" clip-rule="evenodd" d="M240.431 134.387a5.824 5.824 0 0 1-5.86 5.77c-.34-.01-.66-.04-.99-.1a5.818 5.818 0 0 1-4.78-5.76l-.43-5.45a5.809 5.809 0 0 1 5.86-5.76 5.83 5.83 0 0 1 5.77 5.86l.43 5.44Z" fill="#fff"/><path d="M234.571 140.157c3.21.02 5.83-2.56 5.86-5.77l-.43-5.44a5.83 5.83 0 0 0-5.77-5.86 5.809 5.809 0 0 0-5.86 5.76l.43 5.45a5.818 5.818 0 0 0 4.78 5.76c.33.06.65.09.99.1Z" stroke="#31333A" stroke-width="2.126"/><path fill-rule="evenodd" clip-rule="evenodd" d="M166.75 149.362a5.824 5.824 0 0 1-5.86 5.77c-.34-.01-.67-.04-.99-.1a5.818 5.818 0 0 1-4.78-5.76l-.43-5.45a5.809 5.809 0 0 1 5.86-5.76 5.83 5.83 0 0 1 5.77 5.86l.43 5.44Z" fill="#fff"/><path d="M160.89 155.132c3.21.02 5.83-2.56 5.86-5.77l-.43-5.44a5.83 5.83 0 0 0-5.77-5.86 5.809 5.809 0 0 0-5.86 5.76l.43 5.45a5.818 5.818 0 0 0 4.78 5.76c.32.06.65.09.99.1Z" stroke="#31333A" stroke-width="2.126"/><path fill-rule="evenodd" clip-rule="evenodd" d="M273.756 126.021a5.813 5.813 0 0 1-3.3 7.53c-.31.13-.63.22-.94.29-2.73.56-5.54-.9-6.59-3.58l-2.43-4.89a5.817 5.817 0 0 1 3.29-7.53c2.99-1.17 6.37.3 7.54 3.29l2.43 4.89Z" fill="#fff"/><path d="M270.456 133.551a5.813 5.813 0 0 0 3.3-7.53l-2.43-4.89c-1.17-2.99-4.55-4.46-7.54-3.29a5.817 5.817 0 0 0-3.29 7.53l2.43 4.89a5.822 5.822 0 0 0 6.59 3.58c.31-.07.63-.16.94-.29Z" stroke="#31333A" stroke-width="2.126"/><path fill-rule="evenodd" clip-rule="evenodd" d="m280.453 148.872 4.041-.688a2.807 2.807 0 0 0 1.807-1.13 2.803 2.803 0 0 0 .468-2.077l-.133-.779a2.801 2.801 0 0 0-1.129-1.806 2.798 2.798 0 0 0-2.078-.468l-4.042.688a2.8 2.8 0 0 0-1.806 1.129 2.8 2.8 0 0 0-.468 2.078l.133.779c.124.729.527 1.37 1.129 1.806a2.805 2.805 0 0 0 2.078.468ZM113.871 177.227l4.041-.688a2.802 2.802 0 0 0 1.807-1.129c.423-.61.592-1.349.468-2.078l-.133-.779a2.804 2.804 0 0 0-1.129-1.806 2.802 2.802 0 0 0-2.078-.468l-4.042.688a2.804 2.804 0 0 0-1.806 1.129 2.802 2.802 0 0 0-.468 2.078l.133.779a2.8 2.8 0 0 0 1.129 1.806 2.8 2.8 0 0 0 2.078.468Z" fill="#3351E5"/><path fill-rule="evenodd" clip-rule="evenodd" d="M146.852 116.45a5.185 5.185 0 1 0-.01 10.37 5.185 5.185 0 0 0 .01-10.37ZM205.89 49.204c-8.87 0-16.07 7.2-16.07 16.07 0 8.88 7.2 16.08 16.07 16.08 8.88 0 16.08-7.2 16.08-16.08 0-8.87-7.2-16.07-16.08-16.07Z" fill="#31333A"/><path fill-rule="evenodd" clip-rule="evenodd" d="M284.097 126.094a.715.715 0 1 0-.01 1.43.715.715 0 0 0 .01-1.43ZM283.773 123.801a.715.715 0 1 0-.01 1.43.715.715 0 0 0 .01-1.43ZM283.597 121.492a.715.715 0 1 0 .01 1.43.715.715 0 0 0-.01-1.43ZM283.589 119.177c-.39 0-.71.32-.71.71 0 .39.32.71.71.71.39 0 .71-.32.71-.71 0-.39-.32-.71-.71-.71ZM283.737 116.865c-.39 0-.71.32-.71.71 0 .39.32.71.71.71.39 0 .71-.32.71-.71 0-.39-.32-.71-.71-.71ZM284.041 114.57a.704.704 0 1 0 0 1.41c.39 0 .7-.31.7-.7 0-.39-.31-.71-.7-.71ZM284.49 112.3c-.38 0-.7.32-.7.7 0 .39.32.71.7.71.39 0 .71-.32.71-.71 0-.38-.32-.7-.71-.7ZM285.103 110.066c-.39 0-.7.31-.7.7a.704.704 0 1 0 1.41 0c0-.39-.32-.7-.71-.7ZM285.881 107.873c-.39 0-.7.31-.7.7 0 .39.31.7.7.7.39 0 .7-.31.7-.7 0-.39-.31-.7-.7-.7ZM286.883 105.732c-.39 0-.7.31-.7.7 0 .38.31.7.7.7.38 0 .7-.32.7-.7 0-.39-.32-.7-.7-.7ZM288.129 103.737a.696.696 0 1 0-.009 1.391.696.696 0 0 0 .009-1.391ZM289.625 101.988c-.38 0-.69.31-.69.69a.696.696 0 1 0 .69-.69ZM291.402 100.587c-.38 0-.69.31-.69.69 0 .38.31.69.69.69.38 0 .69-.31.69-.69 0-.38-.31-.69-.69-.69ZM293.466 99.632c-.38 0-.69.31-.69.69 0 .38.31.69.69.69.38 0 .69-.31.69-.69 0-.38-.31-.69-.69-.69ZM295.798 99.482c-.38 0-.69.31-.69.69 0 .38.31.69.69.69.38 0 .69-.31.69-.69 0-.38-.31-.69-.69-.69ZM297.329 100.975c-.38 0-.69.31-.69.69 0 .38.31.68.69.68.38 0 .68-.3.68-.68 0-.38-.3-.69-.68-.69ZM296.896 103.22c-.37 0-.68.31-.68.68 0 .38.31.69.68.69.38 0 .69-.31.69-.69a.69.69 0 0 0-.69-.68ZM295.358 104.925c-.37 0-.68.31-.68.68a.68.68 0 1 0 .68-.68ZM293.292 105.988c-.38 0-.68.3-.68.68 0 .38.3.68.68.68.38 0 .68-.3.68-.68 0-.38-.3-.68-.68-.68ZM291.026 106.255a.68.68 0 0 0 0 1.36c.37 0 .68-.31.68-.68a.68.68 0 0 0-.68-.68ZM288.669 106.01a.674.674 0 1 0 0 1.35c.37 0 .67-.3.67-.67 0-.38-.3-.68-.67-.68Z" fill="#292A2E"/><path fill-rule="evenodd" clip-rule="evenodd" d="M286.52 105.177c-.37 0-.67.3-.67.67a.674.674 0 1 0 .67-.67ZM284.934 103.604a.67.67 0 1 0 0 1.34.67.67 0 0 0 0-1.34ZM284.053 101.645a.67.67 0 1 0 0 1.34.67.67 0 0 0 0-1.34ZM284.121 99.125c-.37 0-.67.3-.67.67 0 .37.3.66.67.66.37 0 .66-.29.66-.66 0-.37-.29-.67-.66-.67ZM284.758 96.9c-.37 0-.67.3-.67.67a.666.666 0 1 0 .67-.67ZM285.789 94.934a.666.666 0 0 0 0 1.33c.37 0 .67-.3.67-.67 0-.36-.3-.66-.67-.66ZM287.178 93.197a.66.66 0 1 0 0 1.32c.37 0 .66-.29.66-.66a.66.66 0 0 0-.66-.66ZM288.861 91.663c-.36 0-.66.3-.66.66 0 .36.3.66.66.66.36 0 .66-.3.66-.66 0-.36-.3-.66-.66-.66ZM290.784 90.299c-.37 0-.66.29-.66.66 0 .36.29.65.66.65.36 0 .65-.29.65-.65a.65.65 0 0 0-.65-.66ZM292.882 89.078c-.36 0-.65.29-.65.65 0 .37.29.66.65.66.37 0 .66-.29.66-.66a.65.65 0 0 0-.66-.65ZM294.99 88.084c-.36 0-.65.29-.65.65 0 .36.29.66.65.66.36 0 .66-.3.66-.66 0-.36-.3-.65-.66-.65ZM297.165 87.316c-.36 0-.65.29-.65.65 0 .36.29.65.65.65.36 0 .65-.29.65-.65 0-.36-.29-.65-.65-.65ZM299.405 86.751c-.36 0-.65.29-.65.65 0 .36.29.65.65.65.36 0 .65-.29.65-.65 0-.36-.29-.65-.65-.65ZM301.693 86.371c-.36 0-.65.29-.65.65a.644.644 0 1 0 .65-.65ZM304.001 86.161a.644.644 0 1 0 .009 1.289.644.644 0 0 0-.009-1.289ZM306.33 86.106c-.35 0-.64.29-.64.64 0 .36.29.64.64.64.36 0 .64-.28.64-.64 0-.35-.28-.64-.64-.64ZM308.656 86.19c-.35 0-.64.29-.64.64 0 .35.29.64.64.64.35 0 .64-.29.64-.64 0-.35-.29-.64-.64-.64ZM89.53 109.743a.715.715 0 1 0-.01 1.43.715.715 0 0 0 .01-1.43ZM91.633 110.724a.715.715 0 1 0-.01 1.43.715.715 0 0 0 .01-1.43ZM93.654 111.847a.715.715 0 1 0 .01 1.43.715.715 0 0 0-.01-1.43ZM95.604 113.104c-.39 0-.71.32-.71.71 0 .39.32.71.71.71.39 0 .71-.32.71-.71 0-.39-.32-.71-.71-.71ZM97.465 114.49c-.39 0-.71.32-.71.71 0 .39.32.71.71.71.39 0 .71-.32.71-.71 0-.39-.32-.71-.71-.71ZM99.228 115.999a.704.704 0 1 0 0 1.41c.39 0 .7-.31.7-.7 0-.39-.31-.71-.7-.71ZM100.875 117.624c-.38 0-.7.32-.7.7 0 .39.32.71.7.71.39 0 .71-.32.71-.71 0-.38-.32-.7-.71-.7ZM102.417 119.357c-.39 0-.7.31-.7.7a.704.704 0 1 0 1.41 0c0-.39-.32-.7-.71-.7ZM103.836 121.207c-.39 0-.7.31-.7.7 0 .39.31.7.7.7.39 0 .7-.31.7-.7 0-.39-.31-.7-.7-.7ZM105.089 123.217c-.39 0-.7.31-.7.7 0 .38.31.7.7.7.38 0 .7-.32.7-.7 0-.39-.32-.7-.7-.7ZM106.086 125.352a.696.696 0 1 0-.009 1.391.696.696 0 0 0 .009-1.391ZM106.725 127.568c-.38 0-.69.31-.69.69a.696.696 0 1 0 .69-.69ZM106.934 129.824c-.38 0-.69.31-.69.69 0 .38.31.69.69.69.38 0 .69-.31.69-.69 0-.38-.31-.69-.69-.69ZM106.614 132.076c-.38 0-.69.31-.69.69 0 .38.31.69.69.69.38 0 .69-.31.69-.69 0-.38-.31-.69-.69-.69ZM105.471 134.114c-.38 0-.69.31-.69.69 0 .38.31.69.69.69.38 0 .69-.31.69-.69 0-.38-.31-.69-.69-.69ZM103.391 134.584c-.38 0-.69.31-.69.69 0 .38.31.68.69.68.38 0 .68-.3.68-.68 0-.38-.3-.69-.68-.69ZM101.735 133.006c-.37 0-.68.31-.68.68 0 .38.31.69.68.69.38 0 .69-.31.69-.69a.69.69 0 0 0-.69-.68ZM101.151 130.788c-.37 0-.68.31-.68.68a.68.68 0 1 0 .68-.68ZM101.391 128.479c-.38 0-.68.3-.68.68 0 .38.3.68.68.68.38 0 .68-.3.68-.68 0-.38-.3-.68-.68-.68ZM102.409 126.435a.68.68 0 0 0 0 1.36c.37 0 .68-.31.68-.68a.68.68 0 0 0-.68-.68ZM103.905 124.595a.674.674 0 1 0 0 1.35c.37 0 .67-.3.67-.67 0-.38-.3-.68-.67-.68Z" fill="#292A2E"/><path fill-rule="evenodd" clip-rule="evenodd" d="M105.766 123.259c-.37 0-.67.3-.67.67a.674.674 0 1 0 .67-.67ZM107.955 122.789a.67.67 0 1 0 0 1.34.67.67 0 0 0 0-1.34ZM110.082 123.121a.67.67 0 1 0 0 1.34.67.67 0 0 0 0-1.34ZM112.161 124.555c-.37 0-.67.3-.67.67 0 .37.3.66.67.66.37 0 .66-.29.66-.66 0-.37-.29-.67-.66-.67ZM113.684 126.304c-.37 0-.67.3-.67.67a.666.666 0 1 0 .67-.67ZM114.759 128.25a.666.666 0 0 0 0 1.33c.37 0 .67-.3.67-.67 0-.36-.3-.66-.67-.66ZM115.46 130.362a.66.66 0 1 0 0 1.32c.37 0 .66-.29.66-.66a.66.66 0 0 0-.66-.66ZM115.833 132.612c-.36 0-.66.3-.66.66 0 .36.3.66.66.66.36 0 .66-.3.66-.66 0-.36-.3-.66-.66-.66ZM115.931 134.969c-.37 0-.66.29-.66.66 0 .36.29.65.66.65.36 0 .65-.29.65-.65a.65.65 0 0 0-.65-.66ZM115.8 137.403c-.36 0-.65.29-.65.65 0 .37.29.66.65.66.37 0 .66-.29.66-.66a.65.65 0 0 0-.66-.65ZM115.488 139.714c-.36 0-.65.29-.65.65 0 .36.29.66.65.66.36 0 .66-.3.66-.66 0-.36-.3-.65-.66-.65ZM114.95 141.957c-.36 0-.65.29-.65.65 0 .36.29.65.65.65.36 0 .65-.29.65-.65 0-.36-.29-.65-.65-.65ZM114.207 144.145c-.36 0-.65.29-.65.65 0 .36.29.65.65.65.36 0 .65-.29.65-.65 0-.36-.29-.65-.65-.65ZM113.282 146.271c-.36 0-.65.29-.65.65a.644.644 0 1 0 .65-.65ZM112.188 148.329a.644.644 0 1 0 .009 1.289.644.644 0 0 0-.009-1.289ZM110.967 150.312c-.35 0-.64.29-.64.64 0 .36.29.64.64.64.36 0 .64-.28.64-.64 0-.35-.28-.64-.64-.64ZM109.634 152.217c-.35 0-.64.29-.64.64 0 .35.29.64.64.64.35 0 .64-.29.64-.64 0-.35-.29-.64-.64-.64ZM81.252 120.902a4.689 4.689 0 0 0 2.68-5.67 4.695 4.695 0 0 0-5.84-3.14 4.68 4.68 0 0 0-3.14 5.83 4.685 4.685 0 0 0 5.83 3.15c.16-.05.32-.11.47-.17Zm-.86-1.151a3.316 3.316 0 0 0 2.1-4.45 3.302 3.302 0 0 0-4-1.89 3.312 3.312 0 0 0-2.22 4.12 3.312 3.312 0 0 0 4.12 2.22ZM81.248 110.097c2.39-1 3.51-3.75 2.51-6.13-1-2.39-3.75-3.52-6.13-2.51a4.67 4.67 0 0 0-2.51 6.13 4.682 4.682 0 0 0 5.66 2.68c.16-.05.32-.11.47-.17Zm-4.863-3.041a3.308 3.308 0 0 0 6.1-2.56 3.307 3.307 0 0 0-4.33-1.77 3.3 3.3 0 0 0-1.77 4.33Z" fill="#292A2E"/><path fill-rule="evenodd" clip-rule="evenodd" d="M79.44 106.955c-3.39 0-6.13 1.83-6.13 4.09 0 2.27 2.74 4.1 6.13 4.1 3.38 0 6.13-1.83 6.13-4.1 0-2.26-2.75-4.09-6.13-4.09Z" fill="#fff"/><path fill-rule="evenodd" clip-rule="evenodd" d="M84.158 114.515c.7-.37 1.28-.95 1.65-1.66 1-1.92.26-4.28-1.66-5.28a8.545 8.545 0 0 0-4.72-1.31c-3.82 0-6.81 2.11-6.81 4.79s3 4.78 6.82 4.78c.92 0 1.83-.13 2.71-.39.71-.21 1.39-.53 2.01-.93Zm-.755-5.792a7.186 7.186 0 0 0-3.96-1.08c-.77 0-1.55.11-2.3.33h.01c-1.85.55-3.15 1.74-3.15 3.08 0 1.85 2.49 3.4 5.45 3.4 1.39.03 2.76-.35 3.95-1.09 1.28-.59 1.84-2.1 1.25-3.38-.25-.56-.7-1-1.25-1.26Z" fill="#292A2E"/><path fill-rule="evenodd" clip-rule="evenodd" d="m78.678 115.117.14-8.14 1.98.08.14 7.96-2.26.1ZM71.305 111.516a.636.636 0 0 0 0 1.27c.35 0 .64-.29.64-.64 0-.35-.29-.63-.64-.63ZM71.799 108.13a.636.636 0 0 0 0 1.27c.35 0 .64-.29.64-.64 0-.35-.29-.63-.64-.63ZM314.199 80.068a3.198 3.198 0 0 0-1.63 3.96 3.202 3.202 0 0 0 4.09 1.95c1.67-.6 2.54-2.43 1.95-4.1a3.203 3.203 0 0 0-4.1-1.94c-.11.03-.21.08-.31.13Zm.63.753c-1.18.42-1.8 1.71-1.38 2.89.03.08.06.15.09.22a2.274 2.274 0 0 0 2.8 1.16 2.274 2.274 0 0 0 1.38-2.89 2.266 2.266 0 0 0-2.89-1.38ZM314.571 87.45a3.19 3.19 0 0 0-1.5 4.27c.76 1.6 2.68 2.27 4.27 1.51 1.6-.77 2.27-2.68 1.51-4.28a3.214 3.214 0 0 0-3.96-1.64c-.11.04-.22.09-.32.14Zm3.425 1.903a2.269 2.269 0 0 0-3.02-1.06c-1.12.54-1.6 1.9-1.06 3.02.5 1.05 1.71 1.54 2.8 1.15.07-.02.15-.05.22-.09a2.26 2.26 0 0 0 1.06-3.02Z" fill="#292A2E"/><path fill-rule="evenodd" clip-rule="evenodd" d="M315.632 83.936c-2.307.116-4.122 1.459-4.044 3.007.078 1.548 2.019 2.702 4.326 2.586 2.317-.117 4.121-1.46 4.043-3.007-.077-1.549-2.008-2.703-4.325-2.586Z" fill="#fff"/><path fill-rule="evenodd" clip-rule="evenodd" d="M312.437 84.527c-.47.28-.85.7-1.08 1.19a2.69 2.69 0 0 0 1.32 3.55c1 .56 2.13.81 3.27.73 2.61-.13 4.58-1.67 4.49-3.5-.1-1.83-2.22-3.16-4.83-3.03-.62.03-1.24.15-1.83.36-.48.16-.93.4-1.34.7Zm3.214-.117c-.95.03-1.88.33-2.66.88-.86.44-1.19 1.5-.74 2.35.19.37.51.66.9.82.83.46 1.78.67 2.74.6.53-.03 1.05-.13 1.56-.31h-.01c1.24-.44 2.09-1.29 2.05-2.21-.07-1.26-1.82-2.23-3.84-2.13Z" fill="#292A2E"/><path fill-rule="evenodd" clip-rule="evenodd" d="m316.152 83.932.19 5.56-1.36.01-.37-5.43 1.54-.14ZM321.288 85.27c-.24 0-.43.19-.43.43s.19.44.43.44.44-.2.44-.44-.2-.43-.44-.43ZM321.067 87.599c-.24 0-.43.19-.43.43s.19.44.43.44.44-.2.44-.44-.2-.43-.44-.43Z" fill="#292A2E"/><path fill-rule="evenodd" clip-rule="evenodd" d="m249.08 81.148 24.864-14.274a1.77 1.77 0 0 0 .825-1.073c.122-.45.063-.935-.171-1.343l-9.141-15.923a1.772 1.772 0 0 0-2.416-.654l-24.864 14.274a1.772 1.772 0 0 0-.654 2.416l9.14 15.923c.234.408.623.703 1.074.825.45.122.935.063 1.343-.171Z" fill="url(#a)"/><path d="m265.544 47.261-27.935 16.037 10.196 17.76 27.935-16.036-10.196-17.76Z" stroke="#31333A" stroke-width="1.417"/><path fill-rule="evenodd" clip-rule="evenodd" d="M242.526 66.644a2.6 2.6 0 0 1 .96-3.54c1.24-.71 2.82-.28 3.53.96.72 1.24.29 2.82-.95 3.53s-2.82.29-3.54-.95Z" fill="#DCDDDD"/><path opacity=".45" fill-rule="evenodd" clip-rule="evenodd" d="M244.851 65.31a2.6 2.6 0 0 1 .96-3.54c1.24-.71 2.82-.28 3.53.96.72 1.24.29 2.82-.95 3.53-1.24.72-2.82.29-3.54-.95Z" fill="#DCDDDD"/><path fill-rule="evenodd" clip-rule="evenodd" d="m273.289 62.114-28.3 15.4-1.65-2.87 27.93-16.04 2.02 3.51Z" fill="#686A6D"/><path d="m244.989 77.513 28.3-15.4-2.02-3.51-27.93 16.04 1.65 2.87Z" stroke="#31333A" stroke-width=".992"/><path fill-rule="evenodd" clip-rule="evenodd" d="m106.233 238.124-10.07-2.02-8.95.9 2.46-21.04h14.1l2.46 22.16Z" fill="#DCDDDD"/><path fill-rule="evenodd" clip-rule="evenodd" d="m107.329 228.152-1.61-13.62-4.15-.28.57-5.98h14.1l2.46 22.16-11.37-2.28ZM96.744 211.703c-3.13.17-3 3.53-2.99 3.68l-.82.04c-.08-1.5.61-4.38 3.77-4.55 1.06-.04 1.94.25 2.59.9 1.32 1.3 1.24 3.55 1.23 3.65l-.82-.04v-.004c.002-.097.048-1.998-.99-3.026-.48-.48-1.15-.7-1.97-.65Z" fill="#DCDDDD"/><path d="M93.754 215.383c-.01-.15-.14-3.51 2.99-3.68.82-.05 1.49.17 1.97.65 1.06 1.05.99 3.01.99 3.03l.82.04c.01-.1.09-2.35-1.23-3.65-.65-.65-1.53-.94-2.59-.9-3.16.17-3.85 3.05-3.77 4.55l.82-.04Z" stroke="#AFAEB4" stroke-width="1.417"/><path fill-rule="evenodd" clip-rule="evenodd" d="M109.137 202.956c1.06-.05 1.94.24 2.59.89 1.32 1.31 1.24 3.55 1.23 3.65l-.82-.04v-.002c.002-.069.054-1.995-.99-3.028-.48-.47-1.14-.7-1.97-.65-3.12.17-3 3.54-2.99 3.68l-.82.04c-.08-1.5.61-4.38 3.77-4.54Z" fill="#DCDDDD"/><path d="M111.727 203.846c-.65-.65-1.53-.94-2.59-.89-3.16.16-3.85 3.04-3.77 4.54l.82-.04c-.01-.14-.13-3.51 2.99-3.68.83-.05 1.49.18 1.97.65 1.06 1.05.99 3.02.99 3.03l.82.04c.01-.1.09-2.34-1.23-3.65Z" stroke="#AFAEB4" stroke-width="1.417"/><path fill-rule="evenodd" clip-rule="evenodd" d="m98.844 222.082.82 7.38h-5.88s.36-7.23.36-7.38h4.7ZM112.953 213.448l.82 7.38h-4.76s-.76-7.23-.76-7.38h4.7Z" fill="#AFAEB4"/><path d="M215.192 117.44c-5.78 0-10.47 4.69-10.47 10.47s4.69 10.47 10.47 10.47 10.47-4.69 10.47-10.47-4.69-10.47-10.47-10.47ZM180.837 123.485c-5.78 0-10.47 4.69-10.47 10.47s4.69 10.47 10.47 10.47 10.47-4.69 10.47-10.47-4.69-10.47-10.47-10.47Z" stroke="#31333A" stroke-width="1.5"/><path d="M189.676 128.951c3.09-4.56 9.71-5.45 14.79-2" stroke="#31333A" stroke-width="1.5"/><defs><linearGradient id="a" x1="-222.726" y1="-724.153" x2="-194.792" y2="-740.189" gradientUnits="userSpaceOnUse"><stop stop-color="#fff"/><stop offset="1" stop-color="#F2F3F5"/></linearGradient></defs></svg>