<svg viewBox="0 0 400 300" fill="none" xmlns="http://www.w3.org/2000/svg"><path fill-rule="evenodd" clip-rule="evenodd" d="m124.582 148.468 6.18-6.01c1.45-1.3 1.93-3.04.95-4.58-.11-.18-.25-.35-.4-.51-1.42-1.55-3.89-1.63-5.51-.18l-7.5 6.8 6.28 4.48Z" fill="#fff"/><path d="m124.582 148.468 6.18-6.01c1.45-1.3 1.93-3.04.95-4.58-.11-.18-.25-.35-.4-.51-1.42-1.55-3.89-1.63-5.51-.18l-7.5 6.8 6.28 4.48Z" stroke="#31333A" stroke-width="2.126"/><path fill-rule="evenodd" clip-rule="evenodd" d="M103.907 120.19c4.628-1.238 7.364-5.985 6.127-10.613l-.932-3.487c-1.237-4.628-5.978-7.377-10.606-6.14a8.64 8.64 0 0 0-5.266 4.037 8.64 8.64 0 0 0-.87 6.578l.932 3.488a8.64 8.64 0 0 0 4.037 5.266 8.642 8.642 0 0 0 6.578.871Z" fill="#fff"/><path d="m108.168 98.466-16.746 4.476 4.86 18.182 16.747-4.477-4.861-18.181Z" stroke="#31333A" stroke-width="2.126"/><path d="M102.653 121.152a63.808 63.808 0 0 1-4.78 8.4c-.13.2-.31.41-.54.39-.12 0-.23-.08-.32-.15-4.51-3.26-7.71-8.28-8.77-13.74M107.172 119.342c2.65 1.84 5.44 3.48 8.34 4.9.21.1.47.2.66.07.1-.07.15-.19.2-.29 2.28-5.08 2.55-11.03.74-16.29" stroke="#31333A" stroke-width="2"/><path d="M76.06 186.081c5.94-12.41 16.52-25.16 30.739-37.28M261.666 237.122c-10.23 3.96-18.69 6.6-29.95 9.62-34.41 9.22-67.58 12.09-95.12 9.4-2.56-.25-5.06-.54-7.51-.89-13.86-1.93-26.07-5.38-36.01-10.21-5.35-2.6-10.04-5.6-13.98-8.98M361.075 145.2c.14 2.84-.06 5.71-.57 8.62-1.04 5.91-3.4 11.94-6.93 17.97-4.39 7.47-10.58 14.93-18.33 22.17-14.45 13.5-33.19 25.72-56.76 36.22" stroke="#31333A" stroke-width="2.126"/><path d="M59.609 187.548c5-35.44 57.9-75.28 129.01-94.34 81.11-21.73 155.2-8.2 165.5 30.24 4.75 17.73-4.91 37.68-24.68 56.15-23.05 21.54-59.85 41.08-103.53 52.78-34.41 9.22-67.58 12.1-95.13 9.4-2.55-.25-5.05-.54-7.5-.88-13.86-1.94-26.07-5.39-36.01-10.22-5.61-2.73-10.5-5.89-14.56-9.48" stroke="#31333A" stroke-width="2.126"/><path d="M142.783 227.363c-10.28-.44-19.24-1.84-26.43-4.14-10.19-3.27-16.85-8.36-18.68-15.18-1.85-6.9 1.48-14.75 8.86-22.77M262.137 104.781c38.88-2.6 68.36 5.81 73.07 23.4 3.05 11.39-4.81 24.64-20.24 37.24" stroke="#000" stroke-width="2.126"/><path fill-rule="evenodd" clip-rule="evenodd" d="M59.609 206.315c-2.76 0-5 2.24-5 5s2.24 5 5 5 5-2.24 5-5-2.24-5-5-5Z" fill="#31333A"/><path fill-rule="evenodd" clip-rule="evenodd" d="m295.438 185.277-8.7 10.79-4.99-12.93 13.69 2.14Z" fill="#5578EC"/><path d="m286.738 196.067 8.7-10.79-13.69-2.14 4.99 12.93Z" stroke="#3351E5" stroke-width="2.126"/><path fill-rule="evenodd" clip-rule="evenodd" d="M355.311 125.675c-2.76 0-5 2.24-5 5s2.24 5 5 5 5-2.24 5-5-2.24-5-5-5Z" fill="#fff"/><path d="M355.311 125.675c-2.76 0-5 2.24-5 5s2.24 5 5 5 5-2.24 5-5-2.24-5-5-5Z" stroke="#31333A" stroke-width="2.126"/><path fill-rule="evenodd" clip-rule="evenodd" d="M213.419 240.52c-.41.2-.7.59-.76 1.03l-1.09 7.18c-.17 1.13-1.55 1.57-2.35.75l-5.03-5.22c-.32-.33-.77-.48-1.22-.41l-7.16 1.19c-1.12.19-1.97-1-1.44-2l3.42-6.41c.21-.4.21-.88 0-1.28l-3.34-6.44c-.52-1.01.34-2.19 1.46-1.99l7.15 1.27c.44.08.9-.07 1.22-.39l5.09-5.17c.8-.81 2.18-.35 2.34.78l1.01 7.18c.06.45.34.84.74 1.04l6.49 3.25c1.02.51 1.01 1.97-.01 2.47l-6.52 3.17Z" fill="#fff"/><path d="M212.659 241.55c.06-.44.35-.83.76-1.03l6.52-3.17c1.02-.5 1.03-1.96.01-2.47l-6.49-3.25c-.4-.2-.68-.59-.74-1.04l-1.01-7.18c-.16-1.13-1.54-1.59-2.34-.78l-5.09 5.17c-.32.32-.78.47-1.22.39l-7.15-1.27c-1.12-.2-1.98.98-1.46 1.99l3.34 6.44c.21.4.21.88 0 1.28l-3.42 6.41c-.53 1 .32 2.19 1.44 2l7.16-1.19c.45-.07.9.08 1.22.41l5.03 5.22c.8.82 2.18.38 2.35-.75l1.09-7.18Z" stroke="#31333A" stroke-width="2.126"/><path fill-rule="evenodd" clip-rule="evenodd" d="m113.33 173.104 3.419-7.913-7.913-3.418-3.419 7.913 7.913 3.418Z" fill="#5578EC"/><path d="m110.232 161.222-3.417 7.91 5.958 2.574 3.417-7.91-5.958-2.574Z" stroke="#3351E5" stroke-width="2.126"/><path fill-rule="evenodd" clip-rule="evenodd" d="m132.656 130.648 116.787-28.78-2.13-8.641-116.786 28.78 2.129 8.641Z" fill="#474A51"/><path d="m247.915 93.594-116.783 28.779 1.89 7.67 116.784-28.779-1.891-7.67Z" stroke="#31333A"/><path fill-rule="evenodd" clip-rule="evenodd" d="m143.475 176.552 116.786-28.78-2.129-8.642-116.786 28.78 2.129 8.642Z" fill="#474A51"/><path d="m258.734 139.497-116.783 28.779 1.89 7.671 116.783-28.78-1.89-7.67Z" stroke="#31333A"/><path fill-rule="evenodd" clip-rule="evenodd" d="m130.966 122.099 118.475-29.196a3.213 3.213 0 0 0 2.349-3.885l-7.465-30.294a3.214 3.214 0 0 0-3.885-2.348L121.964 85.572a3.213 3.213 0 0 0-2.348 3.885l7.465 30.293a3.213 3.213 0 0 0 3.885 2.349Z" fill="#5578EC"/><path d="M244.846 56.384 120.134 87.117l8.492 34.459 124.712-30.733-8.492-34.459Z" stroke="#31333A" stroke-width="2.126"/><path fill-rule="evenodd" clip-rule="evenodd" d="m130.966 122.099 96.367-23.748a3.215 3.215 0 0 0 2.349-3.885l-7.466-30.293a3.213 3.213 0 0 0-3.885-2.35l-96.367 23.749a3.213 3.213 0 0 0-2.348 3.885l7.465 30.293a3.213 3.213 0 0 0 3.885 2.349Z" fill="#fff"/><path d="M222.733 61.834 120.134 87.117l8.492 34.459 102.599-25.284-8.492-34.458Z" stroke="#31333A" stroke-width="2.126"/><path fill-rule="evenodd" clip-rule="evenodd" d="M213.452 78.111a5.74 5.74 0 0 0-5.74 5.74c0 3.17 2.57 5.75 5.74 5.75 3.17 0 5.75-2.58 5.75-5.75s-2.58-5.74-5.75-5.74Z" fill="#5578EC"/><path d="M213.452 78.111a5.74 5.74 0 0 0-5.74 5.74c0 3.17 2.57 5.75 5.74 5.75 3.17 0 5.75-2.58 5.75-5.75s-2.58-5.74-5.75-5.74ZM190.965 89.398l16.91-4.17M232.02 71.984l3.07 12.45M239.827 70.06l3.07 12.45" stroke="#3351E5" stroke-width="2.126"/><path fill-rule="evenodd" clip-rule="evenodd" d="m142.05 167.078 118.476-29.196a3.214 3.214 0 0 0 2.349-3.885l-7.466-30.293a3.214 3.214 0 0 0-3.885-2.349l-118.475 29.196a3.215 3.215 0 0 0-2.349 3.885l7.466 30.294a3.212 3.212 0 0 0 3.884 2.348Z" fill="#5578EC"/><path d="m255.93 101.365-124.711 30.733 8.491 34.458 124.712-30.733-8.492-34.458Z" stroke="#31333A" stroke-width="2.126"/><path fill-rule="evenodd" clip-rule="evenodd" d="m142.05 167.078 96.367-23.747a3.214 3.214 0 0 0 2.349-3.885l-7.465-30.294a3.215 3.215 0 0 0-3.885-2.349l-96.367 23.748a3.215 3.215 0 0 0-2.349 3.885l7.466 30.294a3.212 3.212 0 0 0 3.884 2.348Z" fill="#fff"/><path d="m233.817 106.814-102.598 25.284 8.491 34.458 102.599-25.283-8.492-34.459Z" stroke="#31333A" stroke-width="2.126"/><path fill-rule="evenodd" clip-rule="evenodd" d="M224.537 123.091a5.74 5.74 0 0 0-5.74 5.74c0 3.17 2.57 5.75 5.74 5.75 3.17 0 5.75-2.58 5.75-5.75s-2.58-5.74-5.75-5.74Z" fill="#5578EC"/><path d="M224.537 123.091a5.74 5.74 0 0 0-5.74 5.74c0 3.17 2.57 5.75 5.74 5.75 3.17 0 5.75-2.58 5.75-5.75s-2.58-5.74-5.75-5.74ZM202.05 134.378l16.91-4.17M243.104 116.965l3.07 12.45M250.911 115.041l3.07 12.45" stroke="#3351E5" stroke-width="2.126"/><g opacity=".3" stroke="#3351E5" stroke-width="2.126"><path d="m145.926 153.964 4.5-15.53M156.123 151.451l4.5-15.53M166.319 148.938l4.5-15.53M176.515 146.426l4.5-15.53M186.712 143.913l4.5-15.53"/></g><path fill-rule="evenodd" clip-rule="evenodd" d="m152.935 211.245 118.475-29.196a3.214 3.214 0 0 0 2.349-3.885l-7.465-30.293a3.215 3.215 0 0 0-3.885-2.349l-118.476 29.196a3.215 3.215 0 0 0-2.349 3.885l7.466 30.294a3.213 3.213 0 0 0 3.885 2.348Z" fill="#5578EC"/><path d="m266.814 145.531-124.711 30.733 8.491 34.458 124.712-30.733-8.492-34.458Z" stroke="#31333A" stroke-width="2.126"/><path fill-rule="evenodd" clip-rule="evenodd" d="m153.721 211.052 94.794-23.361a3.977 3.977 0 0 0 2.475-1.825c.559-.91.723-2.001.467-3.04l-7.078-28.721a3.983 3.983 0 0 0-1.825-2.475 3.98 3.98 0 0 0-3.04-.466l-94.794 23.36a3.98 3.98 0 0 0-2.476 1.826 3.98 3.98 0 0 0-.466 3.04l7.078 28.72a3.977 3.977 0 0 0 1.825 2.475c.91.559 2.001.723 3.04.467Z" fill="#fff"/><path d="m244.702 150.98-102.599 25.284 8.492 34.458 102.598-25.283-8.491-34.459Z" stroke="#31333A" stroke-width="2.126"/><path fill-rule="evenodd" clip-rule="evenodd" d="M235.421 167.258a5.74 5.74 0 0 0-5.74 5.74c0 3.17 2.57 5.75 5.74 5.75 3.17 0 5.75-2.58 5.75-5.75s-2.58-5.74-5.75-5.74Z" fill="#5578EC"/><path d="M235.421 167.258a5.74 5.74 0 0 0-5.74 5.74c0 3.17 2.57 5.75 5.74 5.75 3.17 0 5.75-2.58 5.75-5.75s-2.58-5.74-5.75-5.74ZM212.934 178.545l16.91-4.17M253.989 161.131l3.07 12.45M261.795 159.207l3.07 12.45" stroke="#3351E5" stroke-width="2.126"/><g opacity=".3" stroke="#3351E5" stroke-width="2.126"><path d="m156.811 198.131 4.5-15.53M167.007 195.618l4.5-15.53M177.203 193.105l4.5-15.53M187.399 190.592l4.5-15.53M197.596 188.08l4.5-15.53"/></g><path fill-rule="evenodd" clip-rule="evenodd" d="m227.067 192.993-66.54 16.4c-.49-2 .73-4.03 2.73-4.52l59.29-14.61c2-.49 4.03.73 4.52 2.73ZM216.114 148.549l-66.54 16.4c-.49-2 .73-4.03 2.73-4.52l59.29-14.61c2-.49 4.03.73 4.52 2.73Z" fill="#31333A"/><path fill-rule="evenodd" clip-rule="evenodd" d="m134.563 104.034 7.573-1.866-1.866-7.573-7.574 1.866 1.867 7.573ZM145.923 101.235l7.574-1.867-1.866-7.573-7.574 1.866 1.866 7.574ZM157.285 98.435l7.573-1.867-1.866-7.573-7.574 1.866 1.867 7.574ZM168.646 95.635l7.574-1.866-1.867-7.574-7.573 1.867 1.866 7.573Z" fill="#3351E5"/><path d="M296.1 125.185c3.15 6.03 1.47 13.13-3.77 15.87" stroke="#31333A" stroke-width="5.669"/><path fill-rule="evenodd" clip-rule="evenodd" d="m279.779 149.143 15.065 7.919a5.847 5.847 0 0 0 7.887-2.451l1.372-2.611a5.843 5.843 0 0 0-2.447-7.896l-15.065-7.92a5.893 5.893 0 0 0-4.46-.413 5.893 5.893 0 0 0-3.44 2.869l-1.373 2.611a5.844 5.844 0 0 0 2.461 7.892Z" fill="#474A51"/><path d="m307.275 148.259-25.416-13.362-5.825 11.081 25.416 13.361 5.825-11.08Z" stroke="#31333A" stroke-width="2.126"/><path fill-rule="evenodd" clip-rule="evenodd" d="M276.117 142.771c-16.37 0-29.64 13.27-29.64 29.64 0 16.38 13.27 29.65 29.64 29.65 16.38 0 29.65-13.27 29.65-29.65 0-16.37-13.27-29.64-29.65-29.64Z" fill="#686A6D"/><path d="M276.117 142.771c-16.37 0-29.64 13.27-29.64 29.64 0 16.38 13.27 29.65 29.64 29.65 16.38 0 29.65-13.27 29.65-29.65 0-16.37-13.27-29.64-29.65-29.64Z" stroke="#31333A" stroke-width="2.126"/><path d="M258.355 187.359a23.053 23.053 0 0 1-4.77-9.39M269.846 194.766c-1.85-.52-3.61-1.27-5.26-2.21" stroke="#fff" stroke-width="2.126"/><path fill-rule="evenodd" clip-rule="evenodd" d="M292.745 127.918c-6.11 2.39-17.29 6.77-21.28 8.33-.47.19-.89-.34-.62-.77 1.17-1.79 3.27-4.95 4.48-6.78 1.52-2.31 3.04-4.61 4.57-6.92.06-.1.15-.18.15-.33l-13.59.37c-.88.02-1.23-1.13-.48-1.6l9.51-5.89c0-.01 0-.02-.01-.02-.02-.02-.04-.04-.06-.05-4.59-2.29-12.75-6.38-16.14-8.08-.47-.23-.34-.93.17-.98 2.21-.25 6.02-.63 8.32-.85 2.79-.26 5.57-.54 8.38-.83.86-.08 1.39-.98 1.05-1.77l-2.25-5.3c-.24-.58.26-1.2.88-1.08.87.17 1.94.39 2.63.53 1.33.28 2.65.55 3.98.82.96.2 1.75-.44 1.75-1.42v-8.51c0-.68.01-1.36.01-2.04v-.11c.11.02.17.11.23.17 3.2 3.04 6.39 6.07 9.58 9.11.78.74 1.86.6 2.41-.31 1.57-2.57 4.17-6.84 5.53-9.06a1.04 1.04 0 0 1 1.78.01c1.49 2.5 4.51 7.65 6.28 10.66.44.74 1.37 1.03 2.15.67 5.94-2.73 11.87-5.46 17.81-8.19.47-.21.93.3.67.74-1.51 2.54-4.67 7.84-6.62 10.96l.03.03c.01.01.02.01.03.01.01 0 .03 0 .05-.01 3.67-1.18 7.35-2.37 11.03-3.55a.699.699 0 0 1-.004.017s.007-.017.014.003c.01.01.01.02.01.03-.01.01-.02.03-.02.05-.01 0-.01.01-.01.02l-.05.06-3.9 6.12c-.01.02-.02.03-.02.05-.01 0-.01.01-.01.02v.03s.01.01.01.02c.01 0 .02.01.02.01.05 0 .09 0 .13-.01 4.67-.73 13.48-2.09 15.47-2.39.15-.02.25.14.15.26-1.22 1.53-6.52 8.11-9.3 11.55-.53.67-.3 1.41.51 1.66 1.73.52 5 1.5 6.08 1.83.12.04.11.2 0 .24-1.47.51-7.17 2.38-10.16 3.36-.178.06-.266.075-.286.12-.02.046.03.123.126.31 2.63 4.93 7.34 13.81 9.37 17.67.31.59-.32 1.23-.91.93-6.22-3.17-12.44-6.33-18.7-9.52-.85-.43-1.87.17-1.9 1.13l-.18 5.03c-.03.98-1.11 1.58-1.97 1.08-3.66-2.12-7.31-4.23-10.97-6.36-.8-.46-1.81.02-1.96.93l-2.33 14.92c-.08.48-.72.61-.97.18l-.281-.493c-2.674-4.698-9.714-17.067-10.369-16.817Z" fill="#DCDDDD"/><path d="m335.095 96.058.05-.06c0-.01 0-.02.01-.02 0-.02.01-.04.02-.05 0-.01 0-.02-.01-.03-.01-.03-.02.02-.01-.02-3.68 1.18-7.36 2.37-11.03 3.55-.02.01-.04.01-.05.01-.01 0-.02 0-.03-.01l-.03-.03c1.95-3.12 5.11-8.42 6.62-10.96.26-.44-.2-.95-.67-.74-5.94 2.73-11.87 5.46-17.81 8.19-.78.36-1.71.07-2.15-.67-1.77-3.01-4.79-8.16-6.28-10.66a1.04 1.04 0 0 0-1.78-.01c-1.36 2.22-3.96 6.49-5.53 9.06-.55.91-1.63 1.05-2.41.31-3.19-3.04-6.38-6.07-9.58-9.11-.06-.06-.12-.15-.23-.17v.11c0 .68-.01 1.36-.01 2.04V95.298c0 .98-.79 1.62-1.75 1.42-1.33-.27-2.65-.54-3.98-.82-.69-.14-1.76-.36-2.63-.53a.791.791 0 0 0-.88 1.08l2.25 5.3c.34.79-.19 1.69-1.05 1.77-2.81.29-5.59.57-8.38.83-2.3.22-6.11.6-8.32.85-.51.05-.64.75-.17.98 3.39 1.7 11.55 5.79 16.14 8.08.02.01.04.03.06.05.01 0 .01.01.01.02l-9.51 5.89c-.75.47-.4 1.62.48 1.6l13.59-.37c0 .15-.09.23-.15.33-1.53 2.31-3.05 4.61-4.57 6.92-1.21 1.83-3.31 4.99-4.48 6.78-.27.43.15.96.62.77 3.99-1.56 15.17-5.94 21.28-8.33.68-.26 8.23 13.06 10.65 17.31.25.43.89.3.97-.18l2.33-14.92c.15-.91 1.16-1.39 1.96-.93 3.66 2.13 7.31 4.24 10.97 6.36.86.5 1.94-.1 1.97-1.08l.18-5.03c.03-.96 1.05-1.56 1.9-1.13 6.26 3.19 12.48 6.35 18.7 9.52.59.3 1.22-.34.91-.93-2.03-3.86-6.74-12.74-9.37-17.67-.19-.37-.2-.31.16-.43 2.99-.98 8.69-2.85 10.16-3.36.11-.04.12-.2 0-.24-1.08-.33-4.35-1.31-6.08-1.83-.81-.25-1.04-.99-.51-1.66 2.78-3.44 8.08-10.02 9.3-11.55.1-.12 0-.28-.15-.26-1.99.3-10.8 1.66-15.47 2.39-.04.01-.08.01-.13.01 0 0-.01-.01-.02-.01 0-.01-.01-.02-.01-.02v-.03c0-.01 0-.02.01-.02 0-.02.01-.03.02-.05l3.9-6.12Z" stroke="#31333A" stroke-width="2.126"/><path fill-rule="evenodd" clip-rule="evenodd" d="M119.747 61.286c-2.064 1.833-2.045 5.227.046 7.582 2.098 2.363 5.466 2.783 7.53.95s2.038-5.22-.06-7.583c-2.092-2.355-5.452-2.781-7.516-.949Z" fill="#31333A"/><path d="M119.747 61.286c-2.064 1.833-2.045 5.227.046 7.582 2.098 2.363 5.466 2.783 7.53.95s2.038-5.22-.06-7.583c-2.092-2.355-5.452-2.781-7.516-.949Z" stroke="#31333A"/><path fill-rule="evenodd" clip-rule="evenodd" d="M77.661 72.085c.03.01.05.02.07.04 3.19 1.97 6.76 3.24 10.48 3.73 7.26 1.06 15.65-.29 23.58-4.32 3.68-1.85 7.07-4.21 10.07-7.02 1.18 1.47 2.23 3.07 3.11 4.8 2.54 5.01 3.4 10.48 2.79 15.82-.01.1-.02.19-.04.29a33.819 33.819 0 0 1-10.16 19.39l-.06.06c-.31.28-.62.55-.93.83a35.6 35.6 0 0 1-6.96 4.64c-9.59 4.87-20.27 4.88-28.85.91-9.63-10.6-11.48-26.16-4.57-38.73.29-.53.95-.73 1.47-.44Z" fill="#fff"/><path d="M77.731 72.125a.161.161 0 0 0-.07-.04c-.52-.29-1.18-.09-1.47.44-6.91 12.57-5.06 28.13 4.57 38.73 8.58 3.97 19.26 3.96 28.85-.91a35.6 35.6 0 0 0 6.96-4.64c.31-.28.62-.55.93-.83l.06-.06a33.819 33.819 0 0 0 10.16-19.39c.02-.1.03-.19.04-.29.61-5.34-.25-10.81-2.79-15.82-.88-1.73-1.93-3.33-3.11-4.8-3 2.81-6.39 5.17-10.07 7.02-7.93 4.03-16.32 5.38-23.58 4.32-3.72-.49-7.29-1.76-10.48-3.73Z" stroke="#31333A" stroke-width=".992"/><path fill-rule="evenodd" clip-rule="evenodd" d="M124.81 64.763a33.404 33.404 0 0 1 2.6 23.44c-.71-2.75-.07-17.95-11.03-18.66-1.39.92-2.83 1.76-4.32 2.52-7.93 4.03-16.32 5.37-23.59 4.31-3.44-.46-6.76-1.58-9.77-3.3-.91-.53-2.08-.23-2.61.68-.02.03-.04.07-.06.1-6.46 12.57-4.37 27.84 5.24 38.2a33.348 33.348 0 0 1-16.96-15.75 33.687 33.687 0 0 1 4.65-37.33c11.78-13.57 32.07-15.66 46.36-4.78 2.81-.78 5.69-1.26 8.59-1.41a3.935 3.935 0 0 1 4.17 3.71c.06.86-.18 1.72-.66 2.43a36.426 36.426 0 0 1-3.46 4.28c.29.51.58 1.03.85 1.56Z" fill="#31333A"/><path d="M127.41 88.203c2.01-7.87 1.09-16.2-2.6-23.44-.27-.53-.56-1.05-.85-1.56a36.426 36.426 0 0 0 3.46-4.28c.48-.71.72-1.57.66-2.43a3.935 3.935 0 0 0-4.17-3.71c-2.9.15-5.78.63-8.59 1.41-14.29-10.88-34.58-8.79-46.36 4.78-9 10.34-10.84 25.1-4.65 37.33a33.348 33.348 0 0 0 16.96 15.75c-9.61-10.36-11.7-25.63-5.24-38.2.02-.03.04-.07.06-.1.53-.91 1.7-1.21 2.61-.68 3.01 1.72 6.33 2.84 9.77 3.3 7.27 1.06 15.66-.28 23.59-4.31 1.49-.76 2.93-1.6 4.32-2.52 10.96.71 10.32 15.91 11.03 18.66Z" stroke="#31333A"/><path d="M82.773 57.505c-15.889 8.068-22.765 26.442-15.358 41.03 7.411 14.596 26.304 19.885 42.193 11.817 15.898-8.072 22.774-26.447 15.362-41.043-7.407-14.587-26.299-19.877-42.197-11.804Z" stroke="#31333A" stroke-width="2.126"/><path d="m109.225 88.807 2.14 1.43c.62.41 1.28.86 1.56 1.55.29.69 0 1.66-.73 1.81" stroke="#31333A" stroke-width="2"/><path fill-rule="evenodd" clip-rule="evenodd" d="M99.13 98.553c5.001-1.33 12.741-.21 11.911 5.06-.592 3.766-4.333 3.414-7.259 3.139-.834-.078-1.601-.15-2.211-.119-.861.041-1.86.275-2.89.516-2.707.633-5.627 1.315-6.8-1.306-1.81-4.07 2.24-5.97 7.25-7.29Z" fill="#fff"/><path d="M111.041 103.613c.83-5.27-6.91-6.39-11.91-5.06-5.01 1.32-9.06 3.22-7.25 7.29 1.62 3.62 6.57.94 9.69.79 2.75-.14 8.71 1.82 9.47-3.02Z" stroke="#31333A" stroke-width="2.126"/><path fill-rule="evenodd" clip-rule="evenodd" d="M115.774 80.253c-1.51 0-2.73 1.22-2.73 2.73s1.22 2.73 2.73 2.73 2.73-1.22 2.73-2.73-1.22-2.73-2.73-2.73ZM97.268 85.885c-1.51 0-2.73 1.22-2.73 2.73s1.22 2.73 2.73 2.73 2.73-1.22 2.73-2.73-1.22-2.73-2.73-2.73Z" fill="#31333A"/><path fill-rule="evenodd" clip-rule="evenodd" d="M67.696 80.933c-3.82.15-6.8 3.36-6.65 7.19.14 3.82 3.36 6.8 7.18 6.65l-.53-13.84Z" fill="#fff"/><path d="M67.696 80.933c-3.82.15-6.8 3.36-6.65 7.19.14 3.82 3.36 6.8 7.18 6.65l-.53-13.84Z" stroke="#31333A" stroke-width="2.126"/><path fill-rule="evenodd" clip-rule="evenodd" d="M66.748 87.776c-2.2-13.36 2.39-16.24 2.39-16.24l8.8.94s-3.38 8.15-3.84 18.57c-.23 5.24-.28 9.16 1.76 15.15 1.87 5.51-6.92-5.06-9.11-18.42Z" fill="#31333A"/><path d="M69.138 71.536s-4.59 2.88-2.39 16.24c2.19 13.36 10.98 23.93 9.11 18.42-2.04-5.99-1.99-9.91-1.76-15.15.46-10.42 3.84-18.57 3.84-18.57l-8.8-.94Z" stroke="#31333A"/><path fill-rule="evenodd" clip-rule="evenodd" d="M59.605 160.492c12.97 21.56 62.96 5.97 62.96 5.97l-4.26-22.48s-27.98 7.19-34.27.82l4.21-28.75s-41.6 22.89-28.64 44.44Z" fill="#fff"/><path d="M59.605 160.492c12.97 21.56 62.96 5.97 62.96 5.97l-4.26-22.48s-27.98 7.19-34.27.82l4.21-28.75s-41.6 22.89-28.64 44.44Z" stroke="#31333A" stroke-width="2.126"/><path fill-rule="evenodd" clip-rule="evenodd" d="M101.258 155.303c-.986 6.89 2.569 13.106 7.945 13.876 5.385.77 10.541-4.199 11.527-11.089.986-6.89-2.569-13.106-7.955-13.877-5.375-.769-10.531 4.201-11.517 11.09Z" fill="#fff"/><path d="M101.258 155.303c-.986 6.89 2.569 13.106 7.945 13.876 5.385.77 10.541-4.199 11.527-11.089.986-6.89-2.569-13.106-7.955-13.877-5.375-.769-10.531 4.201-11.517 11.09Z" stroke="#31333A" stroke-width="2.126"/><path fill-rule="evenodd" clip-rule="evenodd" d="M131.716 166.303c-2 1.25-6.94 2.48-9.13 2.99-.82.19-1.65.34-2.49.39-6.03.38-10.55-2.85-12.04-8.11l-.28-1.02c-1.98-7.01 2.37-14.35 9.66-16.31l12.87-3.45c2.64-.71 3.25.89 3.96 3.37.04.17.07.34.08.52l.97 15.28c.01.16.01.32-.01.47-.36 2.93-1.05 4.28-3.59 5.87Z" fill="#fff"/><path d="M122.586 169.293c2.19-.51 7.13-1.74 9.13-2.99 2.54-1.59 3.23-2.94 3.59-5.87.02-.15.02-.31.01-.47l-.97-15.28c-.01-.18-.04-.35-.08-.52-.71-2.48-1.32-4.08-3.96-3.37l-12.87 3.45c-7.29 1.96-11.64 9.3-9.66 16.31l.28 1.02c1.49 5.26 6.01 8.49 12.04 8.11.84-.05 1.67-.2 2.49-.39Z" stroke="#31333A" stroke-width="2.126"/><path fill-rule="evenodd" clip-rule="evenodd" d="m127.987 149.211 8.23-2.57c1.89-.5 3.1-1.84 2.92-3.65a4.76 4.76 0 0 0-.11-.64c-.57-2.02-2.74-3.21-4.85-2.65l-9.76 2.67 3.57 6.84Z" fill="#fff"/><path d="m127.987 149.211 8.23-2.57c1.89-.5 3.1-1.84 2.92-3.65a4.76 4.76 0 0 0-.11-.64c-.57-2.02-2.74-3.21-4.85-2.65l-9.76 2.67 3.57 6.84Z" stroke="#31333A" stroke-width="2.126"/><path fill-rule="evenodd" clip-rule="evenodd" d="m130.029 154.821 9.88-2.53c1.56-.42 2.54-1.85 2.4-3.34-.02-.17-.05-.35-.1-.52-.47-1.67-2.25-2.65-3.99-2.19l-11.76 3.38 3.57 5.2Z" fill="#fff"/><path d="m130.029 154.821 9.88-2.53c1.56-.42 2.54-1.85 2.4-3.34-.02-.17-.05-.35-.1-.52-.47-1.67-2.25-2.65-3.99-2.19l-11.76 3.38 3.57 5.2Z" stroke="#31333A" stroke-width="2.126"/><path fill-rule="evenodd" clip-rule="evenodd" d="m130.739 160.783 9.52-3.16c1.47-.4 2.41-1.75 2.27-3.16-.02-.17-.05-.34-.09-.5-.45-1.58-2.14-2.51-3.78-2.07l-9.77 3.23 1.85 5.66Z" fill="#fff"/><path d="m130.739 160.783 9.52-3.16c1.47-.4 2.41-1.75 2.27-3.16-.02-.17-.05-.34-.09-.5-.45-1.58-2.14-2.51-3.78-2.07l-9.77 3.23 1.85 5.66Z" stroke="#31333A" stroke-width="2.126"/><path fill-rule="evenodd" clip-rule="evenodd" d="m127.701 167.969 12.67-4.27c1.48-.39 2.41-1.74 2.27-3.15-.01-.17-.04-.34-.09-.5-.44-1.58-2.13-2.51-3.78-2.07l-8.95 2.8-2.12 7.19Z" fill="#fff"/><path d="m127.701 167.969 12.67-4.27c1.48-.39 2.41-1.74 2.27-3.15-.01-.17-.04-.34-.09-.5-.44-1.58-2.13-2.51-3.78-2.07l-8.95 2.8-2.12 7.19Z" stroke="#31333A" stroke-width="2.126"/><path fill-rule="evenodd" clip-rule="evenodd" d="M159.888 76.202a4.446 4.446 0 0 1-8.39 2.94l-1.89-4.46c-.81-2.32.41-4.86 2.72-5.67 2.32-.81 4.86.41 5.67 2.72l1.89 4.47Z" fill="#fff"/><path d="M157.168 81.862a4.446 4.446 0 0 0 2.72-5.66l-1.89-4.47a4.453 4.453 0 0 0-5.67-2.72 4.453 4.453 0 0 0-2.72 5.67l1.89 4.46a4.44 4.44 0 0 0 5.67 2.72Z" stroke="#31333A" stroke-width="2.126"/><path fill-rule="evenodd" clip-rule="evenodd" d="M151.21 78.617c.77 2.17-.38 4.55-2.55 5.31-.22.08-.45.14-.68.18-1.97.33-3.95-.79-4.63-2.73l-2.33-6.09c-.77-2.17.38-4.55 2.55-5.31 2.16-.77 4.55.38 5.31 2.55l2.33 6.09Z" fill="#fff"/><path d="M148.66 83.927a4.159 4.159 0 0 0 2.55-5.31l-2.33-6.09c-.76-2.17-3.15-3.32-5.31-2.55a4.159 4.159 0 0 0-2.55 5.31l2.33 6.09a4.178 4.178 0 0 0 4.63 2.73c.23-.04.46-.1.68-.18Z" stroke="#31333A" stroke-width="2.126"/><path fill-rule="evenodd" clip-rule="evenodd" d="M142.698 77.987c-.02 2.3-1.9 4.15-4.2 4.13-.24 0-.47-.02-.7-.06a4.172 4.172 0 0 1-3.43-4.14l-.31-3.9c.02-2.3 1.9-4.15 4.2-4.13 2.29.02 4.15 1.9 4.13 4.2l.31 3.9Z" fill="#fff"/><path d="M138.498 82.117c2.3.02 4.18-1.83 4.2-4.13l-.31-3.9c.02-2.3-1.84-4.18-4.13-4.2a4.165 4.165 0 0 0-4.2 4.13l.31 3.9a4.172 4.172 0 0 0 3.43 4.14c.23.04.46.06.7.06Z" stroke="#31333A" stroke-width="2.126"/><path fill-rule="evenodd" clip-rule="evenodd" d="M166.584 71.99a4.17 4.17 0 0 1-2.36 5.4 4.17 4.17 0 0 1-5.4-2.36l-1.74-3.5a4.167 4.167 0 1 1 7.76-3.04l1.74 3.5Z" fill="#fff"/><path d="M164.224 77.39a4.17 4.17 0 0 0 2.36-5.4l-1.74-3.5a4.167 4.167 0 1 0-7.76 3.04l1.74 3.5a4.17 4.17 0 0 0 5.4 2.36Z" stroke="#31333A" stroke-width="2.126"/></svg>