<svg viewBox="0 0 400 300" fill="none" xmlns="http://www.w3.org/2000/svg"><path d="M65.808 209.862c-11.39-10.1-17.84-21.64-17.84-33.89 0-39.79 68.07-72.04 152.03-72.04 83.97 0 152.03 32.25 152.03 72.04 0 12.83-7.07 24.87-19.47 35.3" stroke="#31333A" stroke-width="2.126"/><path d="M200 124.515c-83.96 0-152.03 32.25-152.03 72.04 0 12.5 6.72 24.26 18.55 34.51 9.83 8.52 23.19 16 39.16 21.99 25.91 9.73 58.69 15.54 94.32 15.54 83.97 0 152.03-32.25 152.03-72.04 0-39.79-68.06-72.04-152.03-72.04Z" stroke="#31333A" stroke-width="2.126"/><path fill-rule="evenodd" clip-rule="evenodd" d="M152.666 204.2h122.11a15.772 15.772 0 0 0 15.78-15.78V46.77c0-4.18-1.66-8.2-4.62-11.15a15.79 15.79 0 0 0-11.16-4.62h-122.11c-8.71 0-15.77 7.06-15.77 15.77v141.65c0 4.18 1.66 8.2 4.62 11.16a15.75 15.75 0 0 0 11.15 4.62Z" fill="#DCDDDD"/><path d="M161.457 51.195v1.122h-7.052v-1.122h7.052Zm-.229-8.29-6.494 9.412h-.851v-1.03l6.487-9.383h.858v1.002Zm-.587-1v1.13h-6.665v-1.13h6.665Z" fill="#5578EC"/><path d="M238.611 245.669c-12.33 1.53-25.27 2.34-38.61 2.34-50.25 0-94.8-11.55-122.48-29.35M287.963 234.736c-9.29 3.13-19.36 5.77-30.03 7.86" stroke="#31333A" stroke-width="2.126"/><path d="M141.166 235.324c-3.41 8.3-5.75 16.79-6.99 25.34M259.176 237.324c3.41 8.3 5.75 16.79 6.98 25.34" stroke="#31333A" stroke-width="2"/><path fill-rule="evenodd" clip-rule="evenodd" d="M145.072 204.2h122.11a15.772 15.772 0 0 0 15.78-15.78V46.77c0-4.18-1.66-8.2-4.62-11.15a15.79 15.79 0 0 0-11.16-4.62h-122.11c-8.71 0-15.77 7.06-15.77 15.77v141.65c0 4.18 1.66 8.2 4.62 11.16a15.75 15.75 0 0 0 11.15 4.62Z" fill="#DCDDDD"/><path fill-rule="evenodd" clip-rule="evenodd" d="M195.452 62.975c-23.54 0-42.63 19.09-42.63 42.63 0 23.55 19.09 42.64 42.63 42.64 23.55 0 42.64-19.09 42.64-42.64 0-23.54-19.09-42.63-42.64-42.63Z" fill="#FFA65E"/><path fill-rule="evenodd" clip-rule="evenodd" d="M134.842 224.666h122.11a15.772 15.772 0 0 0 15.78-15.78V48.546c0-4.18-1.66-8.2-4.62-11.15a15.79 15.79 0 0 0-11.16-4.62h-122.11c-8.71 0-15.77 7.06-15.77 15.77v160.34c0 4.18 1.66 8.2 4.62 11.16a15.75 15.75 0 0 0 11.15 4.62Z" fill="#5578EC"/><path d="M273.79 33.84H120.135v189.762H273.79V33.84Z" stroke="#3351E5" stroke-width="2.126"/><path fill-rule="evenodd" clip-rule="evenodd" d="M179.665 181.111c-11.61-3.44-21.55-10.67-28.43-20.23l-.27-.39c-4.73-7.15-7.45-15.54-7.45-24.5 0-3.1.33-6.13.95-9.07a68.625 68.625 0 0 0 19.38 2.71c14.19 0 27.1-4.13 36.66-10.88a42.45 42.45 0 0 0 12.2-12.87c.02-.04.03-.07.06-.1.54-.79 1.61-.99 2.41-.44 18.89 12.88 27.5 36.33 21.47 58.36-9.34 11.83-24.52 19.53-41.67 19.53a55.9 55.9 0 0 1-13.25-1.58c-.65-.16-1.28-.33-1.92-.5-.05-.01-.09-.03-.14-.04Z" fill="#fff"/><path d="M151.235 160.881c6.88 9.56 16.82 16.79 28.43 20.23.05.01.09.03.14.04.64.17 1.27.34 1.92.5a55.9 55.9 0 0 0 13.25 1.58c17.15 0 32.33-7.7 41.67-19.53 6.03-22.03-2.58-45.48-21.47-58.36-.8-.55-1.87-.35-2.41.44-.03.03-.04.06-.06.1a42.45 42.45 0 0 1-12.2 12.87c-9.56 6.75-22.47 10.88-36.66 10.88-6.56.03-13.09-.89-19.38-2.71-.62 2.94-.95 5.97-.95 9.07 0 8.96 2.72 17.35 7.45 24.5l.27.39Z" stroke="#31333A" stroke-width="2.126"/><path fill-rule="evenodd" clip-rule="evenodd" d="M136.812 125.085c-1.47-.65-2.9-1.35-4.28-2.1a6.26 6.26 0 0 1-2.7-2.98 6.285 6.285 0 0 1 3.25-8.28 63.26 63.26 0 0 1 13.23-4.2c12.47-25.79 42.82-37.46 69.35-26.67a53.71 53.71 0 0 1 33.57 49.72c.02 12.69-4.5 24.97-12.74 34.63 6.18-21.67-1.87-44.89-20.14-58.09-.05-.04-.1-.07-.15-.11a3.05 3.05 0 0 0-4.2.92 42.804 42.804 0 0 1-11.51 11.76c-9.56 6.75-22.46 10.89-36.65 10.89a72.92 72.92 0 0 1-7.95-.46 61.252 61.252 0 0 0-3.68 21.02c0 4.53.49 9.04 1.46 13.46a53.32 53.32 0 0 1-13.22-35.19c0-.95.04-1.9.09-2.84-1.27-.46-2.52-.95-3.73-1.48Z" fill="#31333A"/><path d="M132.532 122.985c1.38.75 2.81 1.45 4.28 2.1 1.21.53 2.46 1.02 3.73 1.48-.05.94-.09 1.89-.09 2.84a53.32 53.32 0 0 0 13.22 35.19c-.97-4.42-1.46-8.93-1.46-13.46a61.252 61.252 0 0 1 3.68-21.02c2.64.3 5.3.45 7.95.46 14.19 0 27.09-4.14 36.65-10.89 4.56-3.14 8.47-7.13 11.51-11.76a3.05 3.05 0 0 1 4.2-.92c.05.04.1.07.15.11 18.27 13.2 26.32 36.42 20.14 58.09a53.234 53.234 0 0 0 12.74-34.63 53.71 53.71 0 0 0-33.57-49.72c-26.53-10.79-56.88.88-69.35 26.67a63.26 63.26 0 0 0-13.23 4.2 6.285 6.285 0 0 0-3.25 8.28 6.26 6.26 0 0 0 2.7 2.98Z" stroke="#31333A"/><path d="M196.079 166.136c-1.71 0-3.1 2.06-3.1 4.6 0 2.55 1.39 4.61 3.1 4.61 1.71 0 3.1-2.06 3.1-4.61 0-2.54-1.39-4.6-3.1-4.6Z" stroke="#31333A" stroke-width="2.126"/><path d="M179.734 147.351c0 2.54-2.06 4.6-4.61 4.6a4.6 4.6 0 0 1-4.6-4.6M219.029 147.351a4.6 4.6 0 0 1-4.6 4.6c-2.55 0-4.61-2.06-4.61-4.6" stroke="#31333A" stroke-width="2.835"/><path d="M194.975 88.74c-28.42 0-51.46 21.15-51.46 47.25 0 26.09 23.04 47.24 51.46 47.24s51.45-21.15 51.45-47.24c0-26.1-23.03-47.25-51.45-47.25Z" stroke="#31333A" stroke-width="2.126"/><path fill-rule="evenodd" clip-rule="evenodd" d="m142.315 197.643 3.53-6.53c1.46-2.43 4.76-3.12 7.09-1.37 2.03 1.52 2.43 4.42 1.12 6.6l-8.75 14.48c-4.82 10.16-14.08 15.93-21.34 14.73-8.4-1.38-17.45-8.21-18.86-13.24.05-8.17 3.7-15.93 10-21.14.11-.09.21-.18.31-.26l10.04-16.94c1.47-2.43 4.76-3.12 7.09-1.37 2.03 1.52 2.43 4.42 1.12 6.59l-4.91 8.13c.5.05 1 .11 1.49.19 5.74.95 10.24 4.99 12.07 10.13Z" fill="#fff"/><path d="m145.845 191.113-3.53 6.53c-1.83-5.14-6.33-9.18-12.07-10.13-.49-.08-.99-.14-1.49-.19l4.91-8.13c1.31-2.17.91-5.07-1.12-6.59-2.33-1.75-5.62-1.06-7.09 1.37l-10.04 16.94c-.1.08-.2.17-.31.26-6.3 5.21-9.95 12.97-10 21.14 1.41 5.03 10.46 11.86 18.86 13.24 7.26 1.2 16.52-4.57 21.34-14.73l8.75-14.48c1.31-2.18.91-5.08-1.12-6.6-2.33-1.75-5.63-1.06-7.09 1.37Z" stroke="#31333A" stroke-width="2.126"/><path fill-rule="evenodd" clip-rule="evenodd" d="m124.19 192.617 14.58 12.27 10.61-17.59c1.38-2.29.64-5.29-1.65-6.67-2.1-1.27-4.48-.3-5.92 1.63l1.32-2.2c1.38-2.29.64-5.29-1.65-6.67-2.29-1.39-5.3-.64-6.68 1.65l-10.61 17.58Z" fill="#fff"/><path d="m124.19 192.617 14.58 12.27 10.61-17.59c1.38-2.29.64-5.29-1.65-6.67-2.1-1.27-4.48-.3-5.92 1.63l-9.29 15.39 8.91-14.83c.12-.19.24-.38.38-.56l1.32-2.2c1.38-2.29.64-5.29-1.65-6.67-2.29-1.39-5.3-.64-6.68 1.65l-10.61 17.58Zm17.62-10.36c-.14.18-.26.37-.38.56l-8.91 14.83 9.29-15.39Z" stroke="#31333A" stroke-width="2.126"/><path fill-rule="evenodd" clip-rule="evenodd" d="m112.879 210.364 19 8.3c5.22 2.28 8.88 5.18 6.59 10.41l-13.5 30.9c-15.27-3.85-28.64-8.56-38.54-15.36l14.05-32.15c2.28-5.21 7.18-4.38 12.4-2.1Z" fill="#fff"/><path d="m131.879 218.664-19-8.3c-5.22-2.28-10.12-3.11-12.4 2.1l-14.05 32.15c9.9 6.8 23.27 11.51 38.54 15.36l13.5-30.9c2.29-5.23-1.37-8.13-6.59-10.41Z" stroke="#31333A" stroke-width="2.126"/><path fill-rule="evenodd" clip-rule="evenodd" d="M247.178 200.333c-1.68-1.91-1.79-4.84-.06-6.69 1.98-2.13 5.35-2.04 7.22.1l4.62 5.8c.9-5.38 4.61-10.15 10.1-12.09.47-.17.95-.32 1.43-.45l-6.26-7.14c-1.68-1.91-1.79-4.83-.06-6.69 1.98-2.13 5.35-2.03 7.22.1l12.87 14.91c.11.06.22.13.35.2 7.12 4.02 12.07 11.01 13.56 19.05-.5 5.2-8.2 13.51-16.23 16.36-6.93 2.46-17.07-1.6-23.61-10.74l-11.15-12.72Z" fill="#fff"/><path d="M247.118 193.643c-1.73 1.85-1.62 4.78.06 6.69l11.15 12.72c6.54 9.14 16.68 13.2 23.61 10.74 8.03-2.85 15.73-11.16 16.23-16.36-1.49-8.04-6.44-15.03-13.56-19.05-.13-.07-.24-.14-.35-.2l-12.87-14.91c-1.87-2.13-5.24-2.23-7.22-.1-1.73 1.86-1.62 4.78.06 6.69l6.26 7.14c-.48.13-.96.28-1.43.45-5.49 1.94-9.2 6.71-10.1 12.09l-4.62-5.8c-1.87-2.14-5.24-2.23-7.22-.1Z" stroke="#31333A" stroke-width="2.126"/><path fill-rule="evenodd" clip-rule="evenodd" d="m277.199 193.437-13.55-15.44c-1.76-2.01-4.85-2.21-6.86-.45-2.01 1.77-2.21 4.85-.45 6.87l1.7 1.93c-1.77-1.65-4.29-2.19-6.13-.57-2.01 1.76-2.21 4.85-.45 6.86l13.54 15.44 12.2-14.64Z" fill="#fff"/><path d="m277.199 193.437-13.55-15.44c-1.76-2.01-4.85-2.21-6.86-.45-2.01 1.77-2.21 4.85-.45 6.87l1.7 1.93a7 7 0 0 1 .46.48l11.38 13.03-11.84-13.51c-1.77-1.65-4.29-2.19-6.13-.57-2.01 1.76-2.21 4.85-.45 6.86l13.54 15.44 12.2-14.64Zm-18.7-6.61a7 7 0 0 0-.46-.48l11.84 13.51-11.38-13.03Z" stroke="#31333A" stroke-width="2.126"/><path fill-rule="evenodd" clip-rule="evenodd" d="m302.856 210.119 15.85 31.45c-11.43 6.15-23.74 10.85-37.16 15.33l-14.27-29.67c-2.36-4.9 2.1-8.37 7-10.73l15.41-11.01c4.89-2.34 10.82-.26 13.17 4.63Z" fill="#fff"/><path d="m318.706 241.569-15.85-31.45c-2.35-4.89-8.28-6.97-13.17-4.63l-15.41 11.01c-4.9 2.36-9.36 5.83-7 10.73l14.27 29.67c13.42-4.48 25.73-9.18 37.16-15.33Z" stroke="#31333A" stroke-width="2.126"/><path d="M116.161 235.665c-15.21-4.19-28.49-10.38-39-17" stroke="#000" stroke-width="2.126"/><path fill-rule="evenodd" clip-rule="evenodd" d="M249.161 238.665c-2.76 0-5 2.24-5 5s2.24 5 5 5 5-2.24 5-5-2.24-5-5-5Z" fill="#31333A"/><path fill-rule="evenodd" clip-rule="evenodd" d="m79.502 124.665 6.93 12h-13.86l6.93-12Z" fill="#5578EC"/><path d="m86.432 136.665-6.93-12-6.93 12h13.86Z" stroke="#3351E5" stroke-width="2.126"/><path fill-rule="evenodd" clip-rule="evenodd" d="M113.836 79.017v2.75l-7.72 11.15v.1h7.85v3.98h-14.33v-2.56l7.96-11.34v-.1h-7.21v-3.98h13.45Z" fill="#31333A"/><path d="M153.867 51.195v1.122h-7.052v-1.122h7.052Zm-.229-8.29-6.494 9.412h-.851v-1.03l6.487-9.383h.858v1.002Zm-.586-1v1.13h-6.666v-1.13h6.666Z" fill="#5578EC"/><path fill-rule="evenodd" clip-rule="evenodd" d="M133.992 74.182v-3.1l9.64-13.74v-.12h-8.73v-4.82h16.29v3.34l-9.35 13.5v.12h9.51v4.82h-17.36Z" fill="#fff"/><path fill-rule="evenodd" clip-rule="evenodd" d="M94.55 41.452v-.06h-4.63v-2.56h8.64v1.77l-4.96 7.16v.06h5.05v2.56h-9.21v-1.65l5.11-7.28Z" fill="#31333A"/><path fill-rule="evenodd" clip-rule="evenodd" d="M172.314 209.665h54.92c.8 0 1.56-.32 2.12-.88a2.997 2.997 0 0 0-2.12-5.12h-54.92c-.8 0-1.56.32-2.12.88a2.997 2.997 0 0 0 2.12 5.12ZM245.42 51.89h8.62c1.57 0 2.84-1.28 2.84-2.85s-1.27-2.85-2.84-2.85h-8.62c-.76 0-1.48.3-2.02.83-.53.54-.83 1.26-.83 2.02s.3 1.48.83 2.02c.54.53 1.26.83 2.02.83Z" fill="#fff"/><path fill-rule="evenodd" clip-rule="evenodd" d="M140.209 122.897a6.88 6.88 0 0 0-6.88 6.88c0 3.81 3.08 6.89 6.88 6.89 3.81 0 6.89-3.08 6.89-6.89 0-3.8-3.08-6.88-6.89-6.88Z" fill="#31333A"/><path fill-rule="evenodd" clip-rule="evenodd" d="M293.582 203.036c2.59-1.48 5.91-.57 7.39 2.02l3.89 9.02-34.98 18.58-4.24-7.44c-1.48-2.59-.57-5.91 2.02-7.39l25.92-14.79Z" fill="#DCDDDD"/><path d="M300.972 205.056c-1.48-2.59-4.8-3.5-7.39-2.02l-25.92 14.79c-2.59 1.48-3.5 4.8-2.02 7.39l4.24 7.44 34.98-18.58-3.89-9.02Z" stroke="#31333A" stroke-width="2.126"/><path fill-rule="evenodd" clip-rule="evenodd" d="M273.453 220.747c-1.56 0-2.82 1.26-2.82 2.82 0 1.57 1.26 2.83 2.82 2.83 1.57 0 2.83-1.26 2.83-2.83 0-1.56-1.26-2.82-2.83-2.82ZM136.9 218.223c2.81 1.15 4.19 4.48 3.08 7.39l-4.7 9.12-36.89-16.52 3.21-8.38c1.11-2.91 4.32-4.35 7.13-3.19l28.17 11.58Z" fill="#DCDDDD"/><path d="M139.98 225.613c1.11-2.91-.27-6.24-3.08-7.39l-28.17-11.58c-2.81-1.16-6.02.28-7.13 3.19l-3.21 8.38 36.89 16.52 4.7-9.12Z" stroke="#31333A" stroke-width="2.126"/><path fill-rule="evenodd" clip-rule="evenodd" d="M132.173 221.527c-1.59 0-2.87 1.33-2.87 2.97 0 1.64 1.28 2.97 2.87 2.97 1.58 0 2.87-1.33 2.87-2.97 0-1.64-1.29-2.97-2.87-2.97Z" fill="#DCDDDD"/></svg>