<svg width="400" height="300" viewBox="0 0 400 300" fill="none" xmlns="http://www.w3.org/2000/svg">
<path d="M55.92 169.384C54.22 167.004 52.78 164.564 51.62 162.074C49.25 157.014 48 151.764 48 146.374C48 109.694 105.86 79.414 180.69 74.914M297.606 91.128C330.896 104.348 352.066 124.188 352.066 146.378C352.066 156.678 347.496 166.478 339.276 175.348M196.192 74.356C197.472 74.346 198.752 74.336 200.032 74.336C224.742 74.336 248.082 77.126 268.702 82.086" stroke="black" stroke-width="2.126"/>
<path d="M315.532 118.444C327.892 126.044 337.122 134.844 342.302 144.414M201.24 110.279C285.21 110.279 353.27 142.529 353.27 182.319C353.27 222.109 285.21 254.359 201.24 254.359C165.61 254.359 132.83 248.549 106.92 238.819C90.95 232.829 77.59 225.349 67.76 216.829C55.93 206.579 49.21 194.819 49.21 182.319C49.21 159.949 70.73 139.959 104.49 126.749C106.59 125.919 108.74 125.129 110.93 124.359" stroke="black" stroke-width="2.126"/>
<path fill-rule="evenodd" clip-rule="evenodd" d="M126.986 201.18H255.746C262.306 201.18 267.626 195.85 267.626 189.29V57.88C267.626 51.32 262.306 46 255.746 46H126.986C123.836 46 120.806 47.25 118.576 49.48C116.347 51.7114 115.096 54.7363 115.096 57.89V189.29C115.096 192.44 116.346 195.47 118.576 197.7C120.806 199.93 123.836 201.18 126.986 201.18Z" fill="#DCDDDD"/>
<path fill-rule="evenodd" clip-rule="evenodd" d="M126.975 46H255.745C262.305 46 267.635 51.32 267.635 57.89V67.13H115.095V57.89C115.095 51.32 120.415 46 126.975 46Z" fill="#999999"/>
<path d="M136.064 99.007C148.604 96.247 162.074 94.267 176.194 93.217M64.414 131.78C73.884 122.95 87.084 115.17 103.034 108.9" stroke="black" stroke-width="2.126"/>
<path fill-rule="evenodd" clip-rule="evenodd" d="M62.193 127.069C59.433 127.069 57.193 129.309 57.193 132.069C57.193 134.829 59.433 137.069 62.193 137.069C64.953 137.069 67.193 134.829 67.193 132.069C67.193 129.309 64.953 127.069 62.193 127.069Z" fill="black"/>
<path fill-rule="evenodd" clip-rule="evenodd" d="M147.693 73.57C144.933 73.57 142.693 75.81 142.693 78.57C142.693 81.33 144.933 83.57 147.693 83.57C150.453 83.57 152.693 81.33 152.693 78.57C152.693 75.81 150.453 73.57 147.693 73.57Z" fill="white"/>
<path d="M147.693 73.57C144.933 73.57 142.693 75.81 142.693 78.57C142.693 81.33 144.933 83.57 147.693 83.57C150.453 83.57 152.693 81.33 152.693 78.57C152.693 75.81 150.453 73.57 147.693 73.57Z" stroke="black" stroke-width="2.126"/>
<path fill-rule="evenodd" clip-rule="evenodd" d="M89.926 158.793L96.856 170.793H82.996L89.926 158.793Z" fill="black"/>
<path d="M96.856 170.793L89.926 158.793L82.996 170.793H96.856Z" stroke="white" stroke-width="2.126"/>
<path d="M259.143 237.095C243.663 239.615 217.643 242.035 200.363 242.035C181.823 242.035 161.093 239.975 144.663 237.095M112.663 228.745C110.513 228.015 108.413 227.265 106.343 226.495C105.923 226.335 105.503 226.175 105.093 226.015C89.673 220.115 76.753 212.805 67.183 204.505M332.263 202.087C323.843 209.327 313.193 216.017 300.783 221.877C299.033 222.707 297.243 223.517 295.423 224.307" stroke="black" stroke-width="2.126"/>
<path fill-rule="evenodd" clip-rule="evenodd" d="M137.509 224.27L135.439 228.8C135.309 229.08 135.329 229.41 135.489 229.68L138.049 233.96C138.449 234.63 137.909 235.47 137.129 235.38L132.179 234.81C132.027 234.792 131.872 234.812 131.729 234.868C131.586 234.924 131.459 235.014 131.359 235.13L128.079 238.89C127.569 239.48 126.599 239.22 126.449 238.45L125.459 233.57C125.428 233.42 125.361 233.279 125.263 233.161C125.166 233.042 125.041 232.949 124.899 232.89L120.309 230.93C120.147 230.86 120.008 230.747 119.908 230.603C119.807 230.458 119.749 230.289 119.739 230.113C119.73 229.937 119.77 229.762 119.855 229.608C119.939 229.454 120.066 229.326 120.219 229.24L124.559 226.79C124.692 226.713 124.805 226.606 124.888 226.478C124.971 226.349 125.023 226.202 125.039 226.05L125.479 221.08C125.549 220.3 126.479 219.94 127.059 220.47L130.729 223.84C130.959 224.05 131.279 224.14 131.579 224.07L136.439 222.95C137.209 222.78 137.839 223.55 137.509 224.27Z" fill="white"/>
<path d="M135.439 228.8L137.509 224.27C137.584 224.109 137.612 223.931 137.591 223.755C137.569 223.579 137.498 223.413 137.387 223.276C137.275 223.138 137.127 223.034 136.96 222.977C136.792 222.919 136.612 222.91 136.439 222.95L131.579 224.07C131.429 224.103 131.274 224.1 131.126 224.059C130.978 224.019 130.842 223.944 130.729 223.84L127.059 220.47C126.929 220.351 126.769 220.27 126.596 220.237C126.423 220.204 126.244 220.22 126.079 220.284C125.915 220.347 125.771 220.455 125.665 220.596C125.559 220.737 125.495 220.905 125.479 221.08L125.039 226.05C125.023 226.203 124.971 226.349 124.888 226.478C124.805 226.606 124.692 226.713 124.559 226.79L120.219 229.24C120.066 229.326 119.939 229.454 119.855 229.608C119.77 229.762 119.73 229.937 119.739 230.113C119.749 230.289 119.807 230.458 119.908 230.603C120.008 230.747 120.147 230.861 120.309 230.93L124.899 232.89C125.189 233.01 125.389 233.26 125.459 233.57L126.449 238.45C126.599 239.22 127.569 239.48 128.079 238.89L131.359 235.13C131.559 234.89 131.869 234.78 132.179 234.81L137.129 235.38C137.909 235.47 138.449 234.63 138.049 233.96L135.489 229.68C135.41 229.548 135.364 229.4 135.355 229.246C135.347 229.093 135.375 228.94 135.439 228.8Z" stroke="black" stroke-width="2.126"/>
<path fill-rule="evenodd" clip-rule="evenodd" d="M335.832 196.284L344.31 194.73L342.756 186.251L334.277 187.806L335.832 196.284Z" fill="black"/>
<path d="M343.99 187.106L335.515 188.659L336.685 195.043L345.16 193.489L343.99 187.106Z" stroke="white" stroke-width="2.126"/>
<path fill-rule="evenodd" clip-rule="evenodd" d="M136.863 209.542H265.623C272.183 209.542 277.503 204.212 277.503 197.652V66.242C277.503 59.682 272.183 54.362 265.623 54.362H136.863C133.713 54.362 130.683 55.612 128.453 57.842C126.224 60.0734 124.973 63.0983 124.973 66.252V197.652C124.973 200.802 126.223 203.832 128.453 206.062C130.683 208.292 133.713 209.542 136.863 209.542Z" fill="white"/>
<path d="M278.57 55.425H126.036V208.475H278.57V55.425Z" stroke="black" stroke-width="2.126"/>
<path fill-rule="evenodd" clip-rule="evenodd" d="M136.853 54.362H265.623C272.183 54.362 277.503 59.682 277.503 66.252V75.492H124.973V66.252C124.973 59.682 130.293 54.362 136.853 54.362Z" fill="black"/>
<path d="M265.623 54.362H136.853C130.293 54.362 124.973 59.682 124.973 66.252V75.492H277.503V66.252C277.503 59.682 272.183 54.362 265.623 54.362Z" stroke="white" stroke-width="2.126"/>
<path fill-rule="evenodd" clip-rule="evenodd" d="M132.492 64.922C132.493 64.1741 132.641 63.4337 132.927 62.743C133.214 62.0523 133.634 61.4249 134.164 60.8965C134.693 60.3681 135.321 59.9492 136.012 59.6636C136.703 59.378 137.444 59.2313 138.192 59.232C138.94 59.2327 139.68 59.3806 140.371 59.6674C141.062 59.9542 141.689 60.3743 142.218 60.9036C142.746 61.4329 143.165 62.061 143.45 62.7522C143.736 63.4434 143.883 64.1841 143.882 64.932C143.881 66.4424 143.279 67.8904 142.21 68.9575C141.141 70.0246 139.692 70.6233 138.182 70.622C136.672 70.6207 135.224 70.0194 134.156 68.9504C133.089 67.8815 132.491 66.4324 132.492 64.922ZM148.833 64.922C148.834 64.1741 148.982 63.4337 149.268 62.743C149.555 62.0523 149.975 61.4249 150.505 60.8965C151.034 60.3681 151.662 59.9492 152.353 59.6636C153.044 59.378 153.785 59.2313 154.533 59.232C155.281 59.2327 156.021 59.3806 156.712 59.6674C157.403 59.9542 158.03 60.3743 158.559 60.9036C159.087 61.4329 159.506 62.061 159.791 62.7522C160.077 63.4434 160.224 64.1841 160.223 64.932C160.222 66.4424 159.62 67.8904 158.551 68.9575C157.482 70.0246 156.033 70.6233 154.523 70.622C153.013 70.6207 151.565 70.0194 150.497 68.9504C149.43 67.8815 148.832 66.4324 148.833 64.922ZM165.176 64.922C165.177 64.1741 165.325 63.4337 165.612 62.743C165.898 62.0524 166.319 61.425 166.848 60.8966C167.377 60.3683 168.005 59.9494 168.697 59.6639C169.388 59.3784 170.129 59.2318 170.876 59.2325C171.624 59.2332 172.365 59.3812 173.055 59.6681C173.746 59.955 174.374 60.3751 174.902 60.9044C175.43 61.4338 175.849 62.062 176.135 62.7532C176.42 63.4444 176.567 64.1851 176.566 64.933C176.565 66.4434 175.963 67.8914 174.894 68.9585C173.825 70.0256 172.376 70.6243 170.866 70.623C169.356 70.6217 167.908 70.0204 166.84 68.9514C165.773 67.8825 165.175 66.4324 165.176 64.922Z" fill="white"/>
<path fill-rule="evenodd" clip-rule="evenodd" d="M145.772 162.308H256.702V155.458H145.772V162.308ZM145.772 173.204H256.702V166.354H145.772V173.204ZM145.772 184.1H208.172V177.25H145.772V184.1Z" fill="#C6C6C5"/>
<path fill-rule="evenodd" clip-rule="evenodd" d="M264.771 220.051C258.901 223.341 251.771 224.501 244.681 222.741C229.971 219.101 220.961 204.371 224.561 189.841C228.161 175.301 242.991 166.471 257.701 170.111C272.411 173.751 281.411 188.481 277.821 203.011C276.791 207.191 274.821 210.891 272.211 213.961L288.501 232.411L289.311 229.131L291.661 230.371L290.581 234.761L283.231 240.261L264.771 220.051Z" fill="white"/>
<path d="M244.681 222.741C251.771 224.501 258.901 223.341 264.771 220.051L283.231 240.261L290.581 234.761L291.661 230.371L289.311 229.131L288.501 232.411L272.211 213.961C274.821 210.891 276.791 207.191 277.821 203.011C281.411 188.481 272.411 173.751 257.701 170.111C242.991 166.471 228.161 175.301 224.561 189.841C220.961 204.371 229.971 219.101 244.681 222.741Z" stroke="white" stroke-width="0.992"/>
<path fill-rule="evenodd" clip-rule="evenodd" d="M277.111 200.513C276.311 203.743 274.861 206.663 272.941 209.173L291.661 230.373L284.321 235.873L265.711 215.503C259.921 218.873 252.691 220.073 245.451 218.283C231.261 214.773 222.431 201.123 225.731 187.803C229.021 174.473 243.201 166.523 257.391 170.033C271.571 173.543 280.401 187.193 277.111 200.513Z" fill="black"/>
<path d="M272.941 209.173C274.861 206.663 276.311 203.743 277.111 200.513C280.401 187.193 271.571 173.543 257.391 170.033C243.201 166.523 229.021 174.473 225.731 187.803C222.431 201.123 231.261 214.773 245.451 218.283C252.691 220.073 259.921 218.873 265.711 215.503L284.321 235.873L291.661 230.373L272.941 209.173Z" stroke="white" stroke-width="0.992"/>
<path d="M258.139 169.99C258.079 169.98 258.029 169.96 257.979 169.95C246.819 167.19 235.669 171.52 229.809 179.98C227.607 182.886 226.022 186.21 225.149 189.75C221.549 204.29 230.559 219.02 245.269 222.66C252.359 224.41 259.489 223.26 265.359 219.97L283.819 240.18L291.169 234.68L292.249 230.29L275.039 210.81C276.539 208.44 277.699 205.8 278.409 202.93C282.009 188.4 272.999 173.66 258.289 170.03C258.24 170.012 258.19 169.999 258.139 169.99Z" stroke="black" stroke-width="2"/>
<path fill-rule="evenodd" clip-rule="evenodd" d="M232.624 189.502C230.184 199.364 236.622 209.445 246.999 212.012C257.386 214.582 267.781 208.665 270.221 198.802C272.661 188.94 266.221 178.868 255.834 176.299C245.457 173.732 235.064 179.639 232.624 189.502Z" fill="white"/>
<path fill-rule="evenodd" clip-rule="evenodd" d="M235.672 205.485C232.445 201.209 231.09 195.703 232.435 190.263C234.875 180.4 245.268 174.493 255.645 177.06C262.042 178.642 266.942 183.07 269.192 188.542C266.567 185.064 262.701 182.401 258.04 181.248C247.662 178.681 237.27 184.588 234.83 194.451C233.892 198.243 234.266 202.068 235.672 205.485Z" fill="#E7E7E7"/>
<path d="M232.624 189.502C230.184 199.364 236.622 209.445 246.999 212.012C257.386 214.582 267.781 208.665 270.221 198.802C272.661 188.94 266.221 178.868 255.834 176.299C245.457 173.732 235.064 179.639 232.624 189.502Z" stroke="black" stroke-width="2"/>
<path d="M250.303 204.983C250.303 204.983 246.253 205.063 243.663 203.383C241.073 201.713 240.713 199.403 240.713 199.403" stroke="black" stroke-width="2.126"/>
<path fill-rule="evenodd" clip-rule="evenodd" d="M287.587 249.187L270.657 230.347C269.297 228.827 270.447 225.547 273.247 223.037L276.627 220.007C279.417 217.487 282.797 216.687 284.167 218.207L301.097 237.047C302.467 238.577 301.307 241.847 298.507 244.357L295.127 247.397C292.337 249.907 288.957 250.707 287.587 249.187Z" fill="#DCDDDD"/>
<path d="M270.657 230.347L287.587 249.187C288.957 250.707 292.337 249.907 295.127 247.397L298.507 244.357C301.307 241.847 302.467 238.577 301.097 237.047L284.167 218.207C282.797 216.687 279.417 217.487 276.627 220.007L273.247 223.037C270.447 225.547 269.297 228.827 270.657 230.347Z" stroke="black" stroke-width="2.126"/>
<path fill-rule="evenodd" clip-rule="evenodd" d="M298.505 244.358L295.135 247.388C292.335 249.908 288.955 250.708 287.595 249.188L286.215 247.648L299.725 235.518L301.095 237.048C302.465 238.568 301.305 241.848 298.505 244.358Z" fill="#0D1D38"/>
<path fill-rule="evenodd" clip-rule="evenodd" d="M287.587 249.186L270.657 230.346C269.297 228.826 270.447 225.546 273.247 223.036L274.097 222.276L295.977 246.636L295.127 247.396C292.337 249.906 288.957 250.706 287.587 249.186Z" fill="#DCDDDD"/>
<path fill-rule="evenodd" clip-rule="evenodd" d="M281.843 220.296C282.663 219.556 283.653 219.326 284.053 219.766L299.533 237.006C299.933 237.446 299.593 238.406 298.773 239.136C297.963 239.866 296.973 240.106 296.573 239.656L281.093 222.426C280.693 221.986 281.033 221.026 281.843 220.296Z" fill="white"/>
<path d="M166.227 111.545V129H162.273L155.966 119.83H155.864V129H151.125V111.545H155.148L161.352 120.682H161.489V111.545H166.227ZM185.378 120.273C185.378 122.216 185 123.855 184.244 125.19C183.489 126.52 182.469 127.528 181.185 128.216C179.901 128.898 178.469 129.239 176.889 129.239C175.298 129.239 173.861 128.895 172.577 128.207C171.298 127.514 170.281 126.503 169.526 125.173C168.776 123.838 168.401 122.205 168.401 120.273C168.401 118.33 168.776 116.693 169.526 115.364C170.281 114.028 171.298 113.02 172.577 112.338C173.861 111.651 175.298 111.307 176.889 111.307C178.469 111.307 179.901 111.651 181.185 112.338C182.469 113.02 183.489 114.028 184.244 115.364C185 116.693 185.378 118.33 185.378 120.273ZM180.503 120.273C180.503 119.227 180.364 118.347 180.085 117.631C179.812 116.909 179.406 116.364 178.866 115.994C178.332 115.619 177.673 115.432 176.889 115.432C176.105 115.432 175.443 115.619 174.903 115.994C174.369 116.364 173.963 116.909 173.685 117.631C173.412 118.347 173.276 119.227 173.276 120.273C173.276 121.318 173.412 122.202 173.685 122.923C173.963 123.639 174.369 124.185 174.903 124.56C175.443 124.929 176.105 125.114 176.889 125.114C177.673 125.114 178.332 124.929 178.866 124.56C179.406 124.185 179.812 123.639 180.085 122.923C180.364 122.202 180.503 121.318 180.503 120.273ZM199.067 129H192.352V111.545H198.999C200.795 111.545 202.346 111.895 203.653 112.594C204.965 113.287 205.977 114.287 206.687 115.594C207.403 116.895 207.761 118.455 207.761 120.273C207.761 122.091 207.406 123.653 206.695 124.96C205.985 126.261 204.979 127.261 203.678 127.96C202.377 128.653 200.84 129 199.067 129ZM197.09 124.977H198.897C199.761 124.977 200.496 124.838 201.104 124.56C201.718 124.281 202.184 123.801 202.502 123.119C202.826 122.437 202.988 121.489 202.988 120.273C202.988 119.057 202.823 118.108 202.494 117.426C202.17 116.744 201.692 116.264 201.062 115.986C200.437 115.707 199.67 115.568 198.761 115.568H197.09V124.977ZM213.386 129H208.272L214.033 111.545H220.511L226.272 129H221.158L217.34 116.352H217.204L213.386 129ZM212.431 122.114H222.045V125.659H212.431V122.114ZM225.273 115.364V111.545H240.443V115.364H235.193V129H230.523V115.364H225.273ZM244.558 129H239.444L245.205 111.545H251.683L257.444 129H252.33L248.512 116.352H248.376L244.558 129ZM243.603 122.114H253.217V125.659H243.603V122.114Z" fill="black"/>
</svg>
