<svg viewBox="0 0 400 300" fill="none" xmlns="http://www.w3.org/2000/svg"><path d="M78.48 245.986c-13.84-6.34-23.37-15.49-26.95-27.21-9.88-32.4 29.02-73.97 90.37-100.73" stroke="#31333A" stroke-width="2.126"/><path fill-rule="evenodd" clip-rule="evenodd" d="M295.923 111.346c-2.76 0-5 2.24-5 5s2.24 5 5 5 5-2.24 5-5-2.24-5-5-5Z" fill="#31333A"/><path d="M176.127 105.504c.75-.22 1.49-.45 2.24-.67 79.45-23.62 152.7-12.48 164.2 25.22 3.74 12.27.49 25.85-8.33 39.45" stroke="#31333A" stroke-width="2.126"/><path d="M57.118 221.574c2.46-11.69 9.82-23.9 21.1-35.75 3.31-3.49 6.98-6.95 10.96-10.35 11.4-9.77 25.39-19.07 41.38-27.38 15.5-8.07 32.87-15.19 51.57-20.9 25.8-7.87 51.01-12.07 73.72-12.9 8.45-.31 16.55-.15 24.22.47M308.868 119.835c20.71 6.07 35.11 16.87 39.7 31.91 5.98 19.62-5.91 42.59-29.84 63.59-2.9 2.56-5.99 5.09-9.24 7.56-5.7 4.37-11.91 8.61-18.58 12.68l-1.44.87-.03.01c-.96.58-1.93 1.15-2.92 1.72-10.1 5.89-21.17 11.37-33.03 16.3a316.644 316.644 0 0 1-38.97 13.3c-13.8 3.75-27.36 6.45-40.38 8.14-12.36 1.6-24.24 2.29-35.37 2.11-.12 0-.23 0-.34-.01-2.16-.04-4.3-.11-6.4-.22a170.912 170.912 0 0 1-15.52-1.43c-5.13-.7-10.02-1.64-14.63-2.8-5.92-1.48-11.4-3.32-16.33-5.52-9.94-4.41-17.73-10.23-22.78-17.39a35.28 35.28 0 0 1-5.03-10.2" stroke="#31333A" stroke-width="2.126"/><path fill-rule="evenodd" clip-rule="evenodd" d="m90.394 240.689 10.79 8.7-12.93 4.99 2.14-13.69Z" fill="#5578EC"/><path d="m101.184 249.389-10.79-8.7-2.14 13.69 12.93-4.99Z" stroke="#3351E5" stroke-width="2.126"/><path fill-rule="evenodd" clip-rule="evenodd" d="M219.571 260.745c-2.76 0-5 2.24-5 5s2.24 5 5 5 5-2.24 5-5-2.24-5-5-5Z" fill="#fff"/><path d="M219.571 260.745c-2.76 0-5 2.24-5 5s2.24 5 5 5 5-2.24 5-5-2.24-5-5-5Z" stroke="#31333A" stroke-width="2.126"/><path fill-rule="evenodd" clip-rule="evenodd" d="M129.794 138.147c-.108.908-.289 2.422-.191 2.902.95 4.51-2.08 8.41-6.45 9.88-6.65 2.24-11.97-6.03-12.53-7.11l-2.3-4.4a2.838 2.838 0 0 1 1.2-3.8c.23-.11.47-.2.72-.25.21-.04.42-.06.62-.05l-1.3-4.51a2.817 2.817 0 0 1 2.12-3.53c1.42-.3 2.87.55 3.28 1.97l.27.95-.28-1.75c-.24-1.53.8-2.98 2.33-3.22 1.41-.23 2.87 1.81 3.27 3.14.14-1.61.98-2.45 2.31-2.56 1.36-.12 2.46.97 2.73 2.24.04.18.06.39.06.6l-.01.58c.56-.52 1.34-.81 2.15-.75a2.83 2.83 0 0 1 2.56 3.04l-.5 6.12c-.013.124-.034.3-.059.508Z" fill="#fff"/><path d="M129.603 141.049c-.12-.59.18-2.74.25-3.41l.5-6.12a2.83 2.83 0 0 0-2.56-3.04c-.81-.06-1.59.23-2.15.75l.01-.58c0-.21-.02-.42-.06-.6-.27-1.27-1.37-2.36-2.73-2.24-1.33.11-2.17.95-2.31 2.56-.4-1.33-1.86-3.37-3.27-3.14-1.53.24-2.57 1.69-2.33 3.22l.28 1.75-.27-.95a2.82 2.82 0 0 0-3.48-1.92c-1.49.43-2.35 2-1.92 3.48l1.3 4.51c-.2-.01-.41.01-.62.05-.25.05-.49.14-.72.25a2.838 2.838 0 0 0-1.2 3.8l2.3 4.4c.56 1.08 5.88 9.35 12.53 7.11 4.37-1.47 7.4-5.37 6.45-9.88Z" stroke="#31333A" stroke-width="2.126"/><path d="m119.232 108.689 62.89 72.07M142.293 105.671l10.93 22.08 3.45 6.97 4.67 9.45 19.03 38.47M163.63 100.621l4.98 23.5 1.57 7.42 2.13 10.05 8.66 40.96M184.965 95.57l-.97 24.92-.31 7.87-.42 10.66-1.7 43.44M206.31 90.52l-5.13 19.511-1.8 6.83-2.19 8.32-2.96 11.26-12.07 45.92" stroke="#31333A" stroke-width="1.417"/><path fill-rule="evenodd" clip-rule="evenodd" d="m242.317 144.705-.03 19.21-14.46 1.64-.25-15 14.74-5.85Z" fill="#141D30"/><path fill-rule="evenodd" clip-rule="evenodd" d="m244.624 147.163-.38 7.68-7.53-2.52.49-3.79-10.21 7.04c-4.33-5.73-2.53-12.09-2.53-12.09l-1.12-2.23 9.54-4.65.86 2.22s5.33-5.3 13.22-9.6c4.86-2.64 9.17-2.21 11.65-1.55 1.09.29 1.47 1.63.68 2.43l-5.89 6.05-8.78 11.01Z" fill="#141D30"/><path fill-rule="evenodd" clip-rule="evenodd" d="M232.089 189.524c-1.47-6.12-4.81-20.32-6.19-26.39l-.6-2.64c-.32-1.39.59-2.79 2.04-3.12l20.17-4.64c1.44-.33 2.87.53 3.19 1.92l9.47 41.22c1.97 8.54 6.52 28.36-24.01 35.38l-23.77 5.98c-4.76 1.09-9.51-1.77-10.56-6.35l-4.01-17.45c-1.308-5.704-.93-5.946 3.26-8.634.872-.559 1.909-1.224 3.13-2.066 5.16-3.55 12.71-4.31 23.33-6.41 3.22-.64 5.29-3.72 4.55-6.8Z" fill="#31333A"/><path d="M225.899 163.134c1.38 6.07 4.72 20.27 6.19 26.39.74 3.08-1.33 6.16-4.55 6.8-10.62 2.1-18.17 2.86-23.33 6.41-7.09 4.89-7.97 3.81-6.39 10.7l4.01 17.45c1.05 4.58 5.8 7.44 10.56 6.35l23.77-5.98c30.53-7.02 25.98-26.84 24.01-35.38l-9.47-41.22c-.32-1.39-1.75-2.25-3.19-1.92l-20.17 4.64c-1.45.33-2.36 1.73-2.04 3.12l.6 2.64Z" stroke="#31333A"/><path fill-rule="evenodd" clip-rule="evenodd" d="m224.965 157.915 1.433 6.237 25.155-5.781-1.434-6.237-25.154 5.781Z" fill="#31333A"/><path d="m251.177 158.969-1.433-6.236-24.18 5.558 1.433 6.236 24.18-5.558Z" stroke="#31333A"/><path fill-rule="evenodd" clip-rule="evenodd" d="m256.867 134.162-.04 19.52-14.68 1.67-.26-15.25 14.98-5.94Z" fill="#DCDDDD"/><path d="m256.827 153.682.04-19.52-14.98 5.94.26 15.25 14.68-1.67Z" stroke="#31333A" stroke-width="2.126"/><path fill-rule="evenodd" clip-rule="evenodd" d="m257.329 145.406-7.15-2.87.26-3.7-9.15 6.38c-4.34-5.86-2.99-12.02-2.99-12.02l-1.17-2.26 8.65-4.05.92 2.22s4.68-4.93 11.81-8.73c4.39-2.35 8.43-1.69 10.78-.91 1.03.34 1.45 1.68.77 2.42l-5.18 5.63-7.6 10.36.05 7.53Z" fill="#141D30"/><path d="m239.891 132.669 7.23-3.42" stroke="#496EB5" stroke-width=".688"/><path fill-rule="evenodd" clip-rule="evenodd" d="M240.075 153.865a2.92 2.92 0 0 1 2.2-3.5l21.94-5.05c1.57-.36 3.14.63 3.5 2.2l10.68 46.49.002.007c2.211 9.634 7.34 31.985-25.862 39.613l-25.86 6.52c-5.17 1.19-10.37-2.07-11.56-7.24l-4.52-19.68c-1.79-7.77-1.96-11.53 5.72-16.97 5.6-3.95 13.82-4.74 25.38-7.01 3.49-.69 5.72-4.15 4.89-7.61-1.65-6.91-4.28-17.95-5.83-24.8l-.68-2.97Z" fill="#474A51"/><path d="M242.275 150.365a2.92 2.92 0 0 0-2.2 3.5l.68 2.97c1.55 6.85 4.18 17.89 5.83 24.8.83 3.46-1.4 6.92-4.89 7.61-11.56 2.27-19.78 3.06-25.38 7.01-7.68 5.44-7.51 9.2-5.72 16.97l4.52 19.68c1.19 5.17 6.39 8.43 11.56 7.24l25.86-6.52c33.21-7.63 28.07-29.99 25.86-39.62l-10.68-46.49a2.928 2.928 0 0 0-3.5-2.2l-21.94 5.05Z" stroke="#31333A"/><path fill-rule="evenodd" clip-rule="evenodd" d="m163.963 254.559 60.775-13.968a5 5 0 0 0 3.121-2.226 5 5 0 0 0 .64-3.779l-8.977-39.062-72.325 16.622a15.676 15.676 0 0 0-9.788 6.97 15.674 15.674 0 0 0-1.996 11.848l1.532 6.666a22.53 22.53 0 0 0 10.002 14.057 22.545 22.545 0 0 0 17.016 2.872Z" fill="#fff"/><path d="m220.794 196.323-87.624 20.138 9.623 41.871 87.624-20.139-9.623-41.87Z" stroke="#31333A" stroke-width="2.126"/><path d="m135.795 145.694-23.545 5.411L130 228.337l23.545-5.411-17.75-77.232Z" stroke="#31333A" stroke-width="2.126"/><path d="M137.025 242.4a64.573 64.573 0 0 1-4.78 8.41c-.13.19-.31.4-.54.39-.12-.01-.23-.09-.32-.16-4.51-3.26-7.71-8.28-8.77-13.74M141.545 241.192c2.65 1.84 5.44 3.48 8.34 4.9.21.1.47.2.66.07.1-.07.15-.19.2-.3 2.28-5.07 2.55-11.02.74-16.28" stroke="#31333A" stroke-width="2"/><path fill-rule="evenodd" clip-rule="evenodd" d="m219.67 241.756 9.814-2.256-10.015-43.574-9.814 2.256 10.015 43.574Z" fill="#DCDDDD"/><path d="m220.746 196.723-9.816 2.256 9.538 41.501 9.816-2.256-9.538-41.501Z" stroke="#31333A" stroke-width="2.126"/><path fill-rule="evenodd" clip-rule="evenodd" d="m129.519 146.045-13.537 3.111a5.407 5.407 0 0 0-4.061 6.484l.876 3.811 24.082-5.535-.876-3.811a5.406 5.406 0 0 0-6.484-4.06Z" fill="#DCDDDD"/><path d="m111.518 158.654 24.087-5.536-1.611-7.009-24.087 5.535 1.611 7.01Z" stroke="#31333A" stroke-width="2.126"/><path fill-rule="evenodd" clip-rule="evenodd" d="m170.13 213.296 30.972-7.118a10.108 10.108 0 0 0 6.315-4.489 10.117 10.117 0 0 0 1.291-7.643l-1.044-4.542a14.781 14.781 0 0 0-6.56-9.214 14.776 14.776 0 0 0-11.153-1.87l-21.908 5.035c-7.953 1.828-12.914 9.751-11.087 17.703L158 205.7c1.252 5.448 6.682 8.848 12.13 7.596Z" fill="#141D30"/><path d="m207.699 175.432-52.777 12.13 7.095 30.87 52.777-12.129-7.095-30.871Z" stroke="#31333A" stroke-width="2.126"/><path fill-rule="evenodd" clip-rule="evenodd" d="M142.262 197.588a.21.21 0 0 1 .04-.06c.29-.46.91-.6 1.38-.3 11.15 7.13 16.54 20.55 13.43 33.39-5.2 7.01-13.85 11.72-23.77 12.02-2.65.08-5.23-.16-7.69-.69-.38-.08-.75-.16-1.12-.26-.03 0-.05-.01-.08-.02a31.17 31.17 0 0 1-16.79-11.2l-.17-.23c-2.85-4.05-4.57-8.86-4.73-14.04-.05-1.79.09-3.55.4-5.26 1.87.484 3.471-3.523 5.093-7.586 1.562-3.909 3.144-7.87 5.007-7.934 8.21-.25 9.18-.78 14.6-4.85 1.386-1.013 4.526 1.452 7.545 3.823 3.059 2.402 5.994 4.707 6.855 3.197Z" fill="#fff"/><path fill-rule="evenodd" clip-rule="evenodd" d="M98.487 209.08c-.62-.25-1.84-.84-2.97-2.78-1.19-2.07-1.09-4.73.56-6.47 1.692-1.802 3.831-1.461 5.554-1.187.801.127 1.512.241 2.046.117 6.77-15.13 24.12-22.4 39.66-16.62 11.86 4.39 19.87 15.54 20.27 28.18.23 7.34-2.17 14.52-6.77 20.25a30.992 30.992 0 0 0-12.65-33.25l-.09-.06c-.83-.5-1.91-.23-2.41.6-.857 1.392-2.829.227-4.898-.997-1.987-1.175-4.064-2.404-5.332-1.473-4.172 3.138-5.008 3.125-8.931 3.065a93.366 93.366 0 0 0-4.479.015c-.43.01-1.44.51-2.69 1.22-6.19 3.47-9.57 10.44-8.43 17.45.45 2.73.87 5.22.92 6.75.07 2.62.43 5.22 1.08 7.76a30.862 30.862 0 0 1-8.26-20.13c-.02-.55-.01-1.1 0-1.64-.74-.25-1.47-.51-2.18-.8Z" fill="#31333A"/><path d="M95.517 206.3c1.13 1.94 2.35 2.53 2.97 2.78.71.29 1.44.55 2.18.8-.01.54-.02 1.09 0 1.64.22 7.49 3.15 14.64 8.26 20.13-.65-2.54-1.01-5.14-1.08-7.76-.05-1.53-.47-4.02-.92-6.75-1.14-7.01 2.24-13.98 8.43-17.45 1.25-.71 2.26-1.21 2.69-1.22 8.2-.24 8 .99 13.41-3.08 2.59-1.9 8.55 5.2 10.23 2.47a1.757 1.757 0 0 1 2.5-.54 30.992 30.992 0 0 1 12.65 33.25c4.6-5.73 7-12.91 6.77-20.25-.4-12.64-8.41-23.79-20.27-28.18-15.54-5.78-32.89 1.49-39.66 16.62-1.68.39-5.12-1.57-7.6 1.07-1.65 1.74-1.75 4.4-.56 6.47Z" stroke="#31333A"/><path d="M125.141 188.173c-15.699 4.913-24.765 20.575-20.256 34.986 4.509 14.411 20.886 22.111 36.586 17.199 15.689-4.91 24.756-20.572 20.246-34.983-4.509-14.411-20.886-22.112-36.576-17.202Z" stroke="#31333A" stroke-width="2.126"/><path d="m122.617 224.874-1.1 2.02c-.32.58-.64 1.21-.58 1.87.06.66.69 1.31 1.33 1.12" stroke="#31333A" stroke-width="2"/><path fill-rule="evenodd" clip-rule="evenodd" d="M127.327 237.303c-2.84-3.81 2.79-7.9 7.29-8.94 4.5-1.03 8.48-1.22 8.74 2.74.167 2.555-2.418 3.229-4.813 3.854-.914.239-1.801.47-2.497.796-.491.228-1.064.602-1.687 1.009-2.192 1.432-5 3.266-7.033.541Z" fill="#fff"/><path d="M134.617 228.363c-4.5 1.04-10.13 5.13-7.29 8.94 2.61 3.5 6.5-.52 8.72-1.55 2.52-1.18 7.54-1.12 7.31-4.65-.26-3.96-4.24-3.77-8.74-2.74Z" stroke="#31333A" stroke-width="2.126"/><path fill-rule="evenodd" clip-rule="evenodd" d="m177.129 223.664 2.593-.596c6.335-1.456 10.28-7.77 8.825-14.105l-16.161-70.317a4.495 4.495 0 0 0-2.001-2.813 4.494 4.494 0 0 0-3.405-.572l-16.734 3.846a4.495 4.495 0 0 0-2.813 2.001 4.494 4.494 0 0 0-.572 3.405l16.161 70.316a11.744 11.744 0 0 0 5.226 7.336 11.744 11.744 0 0 0 8.881 1.499Z" fill="#fff"/><path d="m172.652 135.048-25.527 5.867 19.331 84.111 25.527-5.867-19.331-84.111Z" stroke="#31333A" stroke-width="2.126"/><path fill-rule="evenodd" clip-rule="evenodd" d="M180.066 231.71c-7.85 1.81-15.65-2.72-17.33-10.06l-1.66-7.21c1.69 7.34 9.49 11.86 17.33 10.06 7.85-1.8 12.88-9.28 11.2-16.62l1.66 7.21c1.68 7.34-3.36 14.82-11.2 16.62Z" fill="#141D30"/><path d="M162.736 221.65c1.68 7.34 9.48 11.87 17.33 10.06 7.84-1.8 12.88-9.28 11.2-16.62l-1.66-7.21c1.68 7.34-3.35 14.82-11.2 16.62-7.84 1.8-15.64-2.72-17.33-10.06l1.66 7.21Z" stroke="#31333A" stroke-width="2.126"/><path fill-rule="evenodd" clip-rule="evenodd" d="M115.033 220.568c-1.34 0-2.43 1.09-2.43 2.43 0 1.35 1.09 2.43 2.43 2.43a2.42 2.42 0 0 0 2.43-2.43c0-1.34-1.08-2.43-2.43-2.43ZM131.959 217.328c-1.34 0-2.43 1.09-2.43 2.43 0 1.35 1.09 2.43 2.43 2.43a2.42 2.42 0 0 0 2.43-2.43c0-1.34-1.08-2.43-2.43-2.43Z" fill="#31333A"/><path fill-rule="evenodd" clip-rule="evenodd" d="m239.288 149.208 1.559 6.783 27.367-6.29-1.559-6.783-27.367 6.29Z" fill="#DCDDDD"/><path d="m267.416 150.975-1.56-6.784-25.292 5.813 1.559 6.784 25.293-5.813Z" stroke="#31333A" stroke-width="2.126"/><path fill-rule="evenodd" clip-rule="evenodd" d="M95.77 188.157c-2.837 3.017-1.75 8.636 2.424 12.561 4.167 3.918 9.842 4.656 12.678 1.639 2.836-3.016 1.75-8.635-2.417-12.553-4.175-3.925-9.85-4.663-12.686-1.647Z" fill="#31333A"/><path d="M95.77 188.157c-2.837 3.017-1.75 8.636 2.424 12.561 4.167 3.918 9.842 4.656 12.678 1.639 2.836-3.016 1.75-8.635-2.417-12.553-4.175-3.925-9.85-4.663-12.686-1.647Z" stroke="#31333A"/><path fill-rule="evenodd" clip-rule="evenodd" d="M161.669 45.687c.43 5.66 6.42 5.47 8.06 2.14 0 0 .41-1.88 2.38-2.6 3.7-1.35 5.28 1.81 5.31 2.76.03 1.19 1.35 2.26 2.51 2.69 12.9 4.8 22.95 15.1 26.06 28.64.98 4.27 1.19 8.55.73 12.72l-.48.11c-2.55-3.81-7.21-5.86-11.88-4.78-3.68.84-6.5 3.44-7.85 6.73-.25.62-.82 1.06-1.48 1.17h-.01c-.57.1-1.16-.06-1.6-.45-2.64-2.38-6.32-3.49-10-2.64-3.32.76-5.95 2.94-7.42 5.77a2.63 2.63 0 0 1-1.79 1.39c-.2.05-.4.09-.59.14-.79.18-1.6 0-2.24-.48-2.56-1.89-5.86-2.71-9.17-1.94-3.51.8-6.24 3.19-7.65 6.26-.37.81-1.06 1.43-1.92 1.68l-.01.01c-1.33.39-2.78.13-3.89-.71-2.56-1.95-5.91-2.79-9.26-2.02-3.09.71-5.57 2.65-7.09 5.19-.71 1.21-2.5 1.14-3.1-.13a37.767 37.767 0 0 1-2.6-7.5c-3.69-16.06 3.38-32.29 16.74-42.29.01-.01.02-.02.02-.03l-1.03-4.45c-.32-1.39.32-2.9 1.63-3.47 1.46-.64 3.04.01 3.73 1.29v.01l.99 4.28a2.924 2.924 0 0 0 4.4 1.81c1.08-.65 1.54-1.98 1.26-3.21l-1.08-4.67c-1.71-6.1 6.45-7.23 7.36-3.45 2 8.31 5.52 4.57 5.28 1.34-.36-1.56.63-3.14 2.19-3.5 1.56-.35 3.13.63 3.49 2.18v.01Z" fill="#5578EC"/><path d="M169.729 47.827c-1.64 3.33-7.63 3.52-8.06-2.14v-.01c-.36-1.55-1.93-2.53-3.49-2.18a2.934 2.934 0 0 0-2.19 3.5c.24 3.23-3.28 6.97-5.28-1.34-.91-3.78-9.07-2.65-7.36 3.45l1.08 4.67c.28 1.23-.18 2.56-1.26 3.21-1.81 1.1-3.97.05-4.4-1.81l-.99-4.28v-.01c-.69-1.28-2.27-1.93-3.73-1.29-1.31.57-1.95 2.08-1.63 3.47l1.03 4.45c0 .01-.01.02-.02.03-13.36 10-20.43 26.23-16.74 42.29.61 2.63 1.49 5.13 2.6 7.5.6 1.27 2.39 1.34 3.1.13 1.52-2.54 4-4.48 7.09-5.19 3.35-.77 6.7.07 9.26 2.02 1.11.84 2.56 1.1 3.89.71l.01-.01c.86-.25 1.55-.87 1.92-1.68 1.41-3.07 4.14-5.46 7.65-6.26 3.31-.77 6.61.05 9.17 1.94.64.48 1.45.66 2.24.48.19-.05.39-.09.59-.14a2.63 2.63 0 0 0 1.79-1.39c1.47-2.83 4.1-5.01 7.42-5.77 3.68-.85 7.36.26 10 2.64.44.39 1.03.55 1.6.45h.01c.66-.11 1.23-.55 1.48-1.17 1.35-3.29 4.17-5.89 7.85-6.73 4.67-1.08 9.33.97 11.88 4.78l.48-.11c.46-4.17.25-8.45-.73-12.72-3.11-13.54-13.16-23.84-26.06-28.64-1.16-.43-2.48-1.5-2.51-2.69-.03-.95-1.61-4.11-5.31-2.76-1.97.72-2.38 2.6-2.38 2.6Z" stroke="#3351E5" stroke-width="2.126"/><path fill-rule="evenodd" clip-rule="evenodd" d="M151.817 57.608c.55-.2 4.25-1.07 4.37-1.08 1.15-.18 2.31-.39 3.47-.53 3.24-.39 6.48-.33 9.71.08 2.34.29 4.64.79 6.89 1.48 2.39.73 4.69 1.65 6.9 2.8 1.12.58 2.2 1.22 3.3 1.83l.01.06c-.66 1.06-1.33 2.11-1.99 3.17-.38.6-.76 1.2-1.13 1.81-8.51-5.15-17.61-6.85-27.3-4.62-9.69 2.22-17.15 7.71-22.59 16.11-.57-.37-1.15-.76-1.73-1.14l-3.15-1.98a.239.239 0 0 0-.09-.02l-.01-.07c.05-.06.11-.13.15-.2.87-1.21 1.7-2.46 2.61-3.64 1.88-2.46 4.07-4.62 6.46-6.57 2.83-2.3 5.9-4.23 9.26-5.67 1.58-.69 3.23-1.23 4.86-1.82Z" fill="#fff"/><path fill-rule="evenodd" clip-rule="evenodd" d="M176.996 77.218c-5.66-3.43-11.79-4.57-18.32-3.07-6.52 1.5-11.52 5.2-15.15 10.79-1.68-1.04-3.32-2.07-5.02-3.12 3.61-5.64 8.45-9.81 14.72-12.17 9.38-3.54 18.36-2.51 26.93 2.54-1.07 1.7-2.11 3.36-3.16 5.03Z" fill="#fff"/><path fill-rule="evenodd" clip-rule="evenodd" d="M153.579 91.228c-1.68-1.05-3.34-2.09-5-3.13 4.91-8.26 16.43-11.48 25.27-5.83-1.04 1.66-2.08 3.31-3.13 5-2.88-1.75-6.03-2.36-9.39-1.58-3.35.77-5.91 2.68-7.75 5.54ZM159.323 93.772a3.76 3.76 0 0 1 2.83-4.51c2.03-.47 4.05.8 4.52 2.83.46 2.03-.8 4.05-2.83 4.52-2.03.46-4.06-.8-4.52-2.84Z" fill="#fff"/><path fill-rule="evenodd" clip-rule="evenodd" d="M150.016 52.947v.95l-.59 4.56 5.27 3.66 1.15 9.85 7.15 10.4v4.35l.59.68.68-6.34-6.07-8.58-2.98-12.15-4.76-3.28-.44-4.1Z" fill="#5578EC"/><path fill-rule="evenodd" clip-rule="evenodd" d="M156.62 117.585c.15-1.75 1.07-2.66 2.52-2.79 1.48-.13 2.68 1.06 2.97 2.44.04.2.06.43.06.65v.64c.61-.57 1.45-.89 2.34-.81 1.37.12 2.46 1.14 2.74 2.43.06.28.07.58.05.88l-.55 6.66c-.015.157-.042.387-.074.66-.117.996-.298 2.549-.196 3.06 1.03 4.91-2.27 9.15-7.02 10.76-7.25 2.44-13.04-6.57-13.66-7.74l-2.5-4.8c-.77-1.49-.18-3.36 1.31-4.13.25-.13.51-.22.78-.28.23-.05.45-.07.68-.06l-1.42-4.91c-.47-1.61.47-3.32 2.09-3.79l.22-.06c1.55-.32 3.12.61 3.57 2.15l.3 1.04-.31-1.91c-.26-1.66.88-3.24 2.54-3.51 1.53-.25 3.13 1.97 3.56 3.42Z" fill="#fff"/><path d="M159.14 114.795c-1.45.13-2.37 1.04-2.52 2.79-.43-1.45-2.03-3.67-3.56-3.42-1.66.27-2.8 1.85-2.54 3.51l.31 1.91-.3-1.04a3.084 3.084 0 0 0-3.57-2.15l-.22.06c-1.62.47-2.56 2.18-2.09 3.79l1.42 4.91c-.23-.01-.45.01-.68.06-.27.06-.53.15-.78.28-1.49.77-2.08 2.64-1.31 4.13l2.5 4.8c.62 1.17 6.41 10.18 13.66 7.74 4.75-1.61 8.05-5.85 7.02-10.76-.13-.65.2-2.99.27-3.72l.55-6.66c.02-.3.01-.6-.05-.88-.28-1.29-1.37-2.31-2.74-2.43-.89-.08-1.73.24-2.34.81v-.64c0-.22-.02-.45-.06-.65-.29-1.38-1.49-2.57-2.97-2.44Z" stroke="#31333A" stroke-width="2.126"/><path fill-rule="evenodd" clip-rule="evenodd" d="m150.979 130.802-2.52-4.1a3.095 3.095 0 0 0-3.24-1.4c-.34.08-.67.21-.97.39a3.07 3.07 0 0 0-1.01 4.21l2.45 4.88c1.44 2.38 3.96 4.43 3.96 4.43l7.28-4.39-.19-.9a4.304 4.304 0 0 0-1.86-2.71c-.92-.6-2.07-.86-3.23-.62-.23.05-.46.12-.67.21Z" fill="#fff"/><path d="m150.979 130.802-2.52-4.1a3.095 3.095 0 0 0-3.24-1.4c-.34.08-.67.21-.97.39a3.07 3.07 0 0 0-1.01 4.21l2.45 4.88c1.44 2.38 3.96 4.43 3.96 4.43l7.28-4.39-.19-.9a4.304 4.304 0 0 0-1.86-2.71c-.92-.6-2.07-.86-3.23-.62-.23.05-.46.12-.67.21Z" stroke="#31333A" stroke-width="2.126"/><path fill-rule="evenodd" clip-rule="evenodd" d="m166.399 135.391-15.564 3.577a5.388 5.388 0 0 0-3.377 2.407 5.389 5.389 0 0 0-.692 4.089l1.055 4.591 26.119-6.003-1.055-4.591a5.43 5.43 0 0 0-2.397-3.378 5.4 5.4 0 0 0-4.089-.692Z" fill="#DCDDDD"/><path d="m146.551 149.256 26.116-6.002-1.793-7.797-26.115 6.002 1.792 7.797Z" stroke="#31333A" stroke-width="2.126"/><path d="m158.424 28.73 3.66 16.52M151.82 23.848l3.66 16.52M137.624 31.459l3.66 16.52M146.684 37.258l1.68 7.7M143.581 23l1.68 7.7M286.026 167.845l3.66 16.52M295.086 173.644l1.68 7.7M291.983 159.386l1.68 7.7" stroke="#31333A" stroke-width="1.417"/></svg>