<svg viewBox="0 0 400 300" fill="none" xmlns="http://www.w3.org/2000/svg"><path d="M201.034 118.985h-53.42l-3.18 13.7s48.71 15.11 57.6 13.51c8.89-1.6 11.55-4.45 12.8-9.07 1.24-4.63 0-10.85 0-10.85" stroke="#31333A" stroke-width="2.126"/><path fill-rule="evenodd" clip-rule="evenodd" d="M112.078 217.669h183.58c2.76 0 5-2.24 5-5v-32.19c0-2.76-2.24-5-5-5h-183.58c-2.76 0-5 2.24-5 5v32.19c0 2.76 2.24 5 5 5Z" fill="#fff"/><path d="M301.72 176.543H108.142v40.065H301.72v-40.065Z" stroke="#31333A" stroke-width="2.126"/><path fill-rule="evenodd" clip-rule="evenodd" d="M112.467 217.669h128.61v-42.19h-128.61c-2.76 0-5 2.24-5 5v32.19c0 2.76 2.24 5 5 5Z" fill="#5578EC"/><path d="M242.137 176.543H108.529v40.065h133.608v-40.065Z" stroke="#3351E5" stroke-width="2.126"/><path fill-rule="evenodd" clip-rule="evenodd" d="M190.248 79.553c-.46-2 1.06-3.9 3.1-3.9h14.99c1.33 0 2.58.67 3.32 1.77l1.25 1.88h22.63c2.15 0 4.02 1.5 4.5 3.61l5.22 23.24c.63 2.82-1.52 5.5-4.41 5.5h-43.19l-7.41-32.1Z" fill="#999"/><path fill-rule="evenodd" clip-rule="evenodd" d="M197.653 111.368h46.21v-26.46h-46.21v26.46Z" fill="#fff"/><path fill-rule="evenodd" clip-rule="evenodd" d="M208.874 85.108a3.165 3.165 0 0 1 2.96-2.07h17.41c2.19 0 3.71 2.17 2.96 4.23l-.47 1.31h18.19c3.08 0 5.16 3.15 3.94 5.98l-6.26 14.51a4.276 4.276 0 0 1-3.93 2.58h-46.02l9.95-23.07h.01l1.26-3.47Z" fill="#E6E6E6"/><path fill-rule="evenodd" clip-rule="evenodd" d="M112.456 243.052c-2.76 0-5 2.24-5 5s2.24 5 5 5 5-2.24 5-5-2.24-5-5-5Z" fill="#31333A"/><path d="m277.008 92.265-.35 7.4M293.046 108.282l-7.4-.35M288.786 93.299l-3.93 6.28" stroke="#31333A"/><path fill-rule="evenodd" clip-rule="evenodd" d="M70.743 140.254c.03.45.28.86.66 1.1l6.23 3.72c.98.59.86 2.04-.2 2.46l-6.75 2.68c-.42.16-.73.53-.83.97l-1.62 7.07c-.26 1.11-1.68 1.45-2.4.57l-4.63-5.59a1.37 1.37 0 0 0-1.18-.49l-7.23.64c-1.14.1-1.89-1.14-1.28-2.11l3.88-6.12c.25-.39.28-.86.11-1.28l-2.85-6.68c-.45-1.04.5-2.15 1.61-1.87l7.03 1.8c.44.12.9.01 1.24-.29l5.47-4.77c.86-.75 2.21-.19 2.28.95l.46 7.24Z" fill="#DCDDDD"/><path fill-rule="evenodd" clip-rule="evenodd" d="m256.061 78.275 12.708-9.539-12.199-16.25-12.708 9.538 12.199 16.251Z" fill="#CCC"/><path fill-rule="evenodd" clip-rule="evenodd" d="m253.494 77.966 14.355-6.813-8.713-18.358-14.355 6.813 8.713 18.358ZM218.82 55.874l7.262 5.452 6.97-9.285-7.261-5.451-6.971 9.284Z" fill="#E7E7E7"/><path fill-rule="evenodd" clip-rule="evenodd" d="m262.537 248.052 10.79 8.7-12.93 4.99 2.14-13.69Z" fill="#5578EC"/><path d="m273.327 256.752-10.79-8.7-2.14 13.69 12.93-4.99Z" stroke="#3351E5" stroke-width="2.126"/><path d="M299.789 123.068c23.68 9.89 40.81 23.21 47.92 38.32M85.166 133.693c27.89-15.55 69.46-25.41 115.88-25.41 25.99 0 50.46 3.09 71.85 8.54M116.841 237.663c-4.09-1.25-8.04-2.59-11.84-4.02-3.49-1.31-6.85-2.69-10.07-4.13-11.56-5.18-21.4-11.2-29.09-17.86-11.83-10.25-18.55-22.01-18.55-34.51 0-6.6 1.87-13 5.38-19.07M351.351 177.14c0 39.79-68.06 72.04-152.03 72.04M104.996 245.758c-15.97-5.99-29.33-13.47-39.16-21.99-7.17-6.21-12.46-12.99-15.52-20.14M245.831 257.871c-14.66 2.22-30.29 3.43-46.51 3.43-29.1 0-56.3-3.88-79.41-10.6" stroke="#31333A" stroke-width="2.126"/><path d="M351.351 189.259c0 24.76-26.36 46.6-66.5 59.57" stroke="#31333A" stroke-width="2.126"/><path fill-rule="evenodd" clip-rule="evenodd" d="M347.709 157.562c-2.76 0-5 2.24-5 5s2.24 5 5 5 5-2.24 5-5-2.24-5-5-5Z" fill="#fff"/><path d="M347.709 157.562c-2.76 0-5 2.24-5 5s2.24 5 5 5 5-2.24 5-5-2.24-5-5-5Z" stroke="#31333A" stroke-width="2.126"/><mask id="a" style="mask-type:alpha" maskUnits="userSpaceOnUse" x="107" y="175" width="135" height="43"><path d="M112.467 217.669h128.61v-42.19h-128.61c-2.76 0-5 2.24-5 5v32.19c0 2.76 2.24 5 5 5Z" fill="#fff"/></mask><g mask="url(#a)"><path fill-rule="evenodd" clip-rule="evenodd" d="M229.296 186.179h11.78v-10.7h-11.78v10.7Z" fill="#5578EC"/><path d="M242.138 176.543h-11.779v8.575h11.779v-8.575Z" stroke="#3351E5" stroke-width="2.126"/><path fill-rule="evenodd" clip-rule="evenodd" d="M217.686 196.727h11.78v-10.7h-11.78v10.7Z" fill="#5578EC"/><path d="M230.528 187.09h-11.779v8.574h11.779v-8.574Z" stroke="#3351E5" stroke-width="2.126"/><path fill-rule="evenodd" clip-rule="evenodd" d="M206.075 207.275h11.78v-10.7h-11.78v10.7Z" fill="#5578EC"/><path d="M218.916 197.638h-11.778v8.574h11.778v-8.574Z" stroke="#3351E5" stroke-width="2.126"/><path fill-rule="evenodd" clip-rule="evenodd" d="M229.296 207.275h11.78v-10.7h-11.78v10.7Z" fill="#5578EC"/><path d="M242.138 197.638h-11.779v8.574h11.779v-8.574Z" stroke="#3351E5" stroke-width="2.126"/><path fill-rule="evenodd" clip-rule="evenodd" d="M194.465 217.823h11.78v-10.7h-11.78v10.7Z" fill="#5578EC"/><path d="M207.306 208.186h-11.779v8.574h11.779v-8.574Z" stroke="#3351E5" stroke-width="2.126"/><path fill-rule="evenodd" clip-rule="evenodd" d="M217.602 186.179h11.78v-10.7h-11.78v10.7Z" fill="#3351E5"/><path d="M230.443 176.543h-11.779v8.575h11.779v-8.575Z" stroke="#3351E5" stroke-width="2.126"/><path fill-rule="evenodd" clip-rule="evenodd" d="M205.991 196.727h11.78v-10.7h-11.78v10.7Z" fill="#3351E5"/><path d="M218.832 187.09h-11.778v8.574h11.778v-8.574Z" stroke="#3351E5" stroke-width="2.126"/><path fill-rule="evenodd" clip-rule="evenodd" d="M194.381 207.275h11.78v-10.7h-11.78v10.7Z" fill="#3351E5"/><path d="M207.222 197.638h-11.779v8.574h11.779v-8.574Z" stroke="#3351E5" stroke-width="2.126"/><path fill-rule="evenodd" clip-rule="evenodd" d="M182.771 217.823h11.78v-10.7h-11.78v10.7Z" fill="#3351E5"/><path d="M195.612 208.186h-11.779v8.574h11.779v-8.574Z" stroke="#3351E5" stroke-width="2.126"/><path fill-rule="evenodd" clip-rule="evenodd" d="M194.297 186.179h11.78v-10.7h-11.78v10.7Z" fill="#3351E5"/><path d="M207.138 176.543h-11.779v8.575h11.779v-8.575Z" stroke="#3351E5" stroke-width="2.126"/><path fill-rule="evenodd" clip-rule="evenodd" d="M182.686 196.727h11.78v-10.7h-11.78v10.7Z" fill="#3351E5"/><path d="M195.528 187.09h-11.779v8.574h11.779v-8.574Z" stroke="#3351E5" stroke-width="2.126"/><path fill-rule="evenodd" clip-rule="evenodd" d="M171.075 207.275h11.78v-10.7h-11.78v10.7Z" fill="#3351E5"/><path d="M183.917 197.638h-11.778v8.574h11.778v-8.574Z" stroke="#3351E5" stroke-width="2.126"/><path fill-rule="evenodd" clip-rule="evenodd" d="M159.465 217.823h11.78v-10.7h-11.78v10.7Z" fill="#3351E5"/><path d="M172.307 208.186h-11.779v8.574h11.779v-8.574Z" stroke="#3351E5" stroke-width="2.126"/><path fill-rule="evenodd" clip-rule="evenodd" d="M170.991 186.179h11.78v-10.7h-11.78v10.7Z" fill="#3351E5"/><path d="M183.833 176.543h-11.778v8.575h11.778v-8.575Z" stroke="#3351E5" stroke-width="2.126"/><path fill-rule="evenodd" clip-rule="evenodd" d="M159.381 196.727h11.78v-10.7h-11.78v10.7Z" fill="#3351E5"/><path d="M172.223 187.09h-11.779v8.574h11.779v-8.574Z" stroke="#3351E5" stroke-width="2.126"/><path fill-rule="evenodd" clip-rule="evenodd" d="M147.771 207.275h11.78v-10.7h-11.78v10.7Z" fill="#3351E5"/><path d="M160.612 197.638h-11.779v8.574h11.779v-8.574Z" stroke="#3351E5" stroke-width="2.126"/><path fill-rule="evenodd" clip-rule="evenodd" d="M136.16 217.823h11.78v-10.7h-11.78v10.7Z" fill="#3351E5"/><path d="M149.001 208.186h-11.778v8.574h11.778v-8.574Z" stroke="#3351E5" stroke-width="2.126"/><path fill-rule="evenodd" clip-rule="evenodd" d="M147.687 186.179h11.78v-10.7h-11.78v10.7Z" fill="#3351E5"/><path d="M160.528 176.543h-11.779v8.575h11.779v-8.575Z" stroke="#3351E5" stroke-width="2.126"/><path fill-rule="evenodd" clip-rule="evenodd" d="M136.076 196.727h11.78v-10.7h-11.78v10.7Z" fill="#3351E5"/><path d="M148.917 187.09h-11.778v8.574h11.778v-8.574Z" stroke="#3351E5" stroke-width="2.126"/><path fill-rule="evenodd" clip-rule="evenodd" d="M124.466 207.275h11.78v-10.7h-11.78v10.7Z" fill="#3351E5"/><path d="M137.307 197.638h-11.779v8.574h11.779v-8.574Z" stroke="#3351E5" stroke-width="2.126"/><path fill-rule="evenodd" clip-rule="evenodd" d="M112.854 217.823h11.78v-10.7h-11.78v10.7Z" fill="#3351E5"/><path d="M125.697 208.186h-11.779v8.574h11.779v-8.574Z" stroke="#3351E5" stroke-width="2.126"/><path fill-rule="evenodd" clip-rule="evenodd" d="M124.381 186.179h11.78v-10.7h-11.78v10.7Z" fill="#3351E5"/><path d="M137.223 176.543h-11.779v8.575h11.779v-8.575Z" stroke="#3351E5" stroke-width="2.126"/><path fill-rule="evenodd" clip-rule="evenodd" d="M112.771 196.727h11.78v-10.7h-11.78v10.7Z" fill="#3351E5"/><path d="M125.613 187.09h-11.779v8.574h11.779v-8.574Z" stroke="#3351E5" stroke-width="2.126"/><path fill-rule="evenodd" clip-rule="evenodd" d="M101.16 207.275h11.78v-10.7h-11.78v10.7Z" fill="#3351E5"/><path d="M114.002 197.638h-11.778v8.574h11.778v-8.574Z" stroke="#3351E5" stroke-width="2.126"/><path fill-rule="evenodd" clip-rule="evenodd" d="M205.191 217.823h11.78v-10.7h-11.78v10.7Z" fill="#3351E5"/><path d="M218.034 208.186h-11.779v8.574h11.779v-8.574Z" stroke="#3351E5" stroke-width="2.126"/><path fill-rule="evenodd" clip-rule="evenodd" d="M101.076 186.179h11.78v-10.7h-11.78v10.7Z" fill="#3351E5"/><path d="M113.918 176.543H102.14v8.575h11.778v-8.575Z" stroke="#3351E5" stroke-width="2.126"/><path fill-rule="evenodd" clip-rule="evenodd" d="M229.296 217.67h11.78v-10.7h-11.78v10.7Z" fill="#3351E5"/><path d="M242.138 208.033h-11.779v8.575h11.779v-8.575Z" stroke="#3351E5" stroke-width="2.126"/><path fill-rule="evenodd" clip-rule="evenodd" d="M229.296 196.88h11.78v-10.7h-11.78v10.7Z" fill="#3351E5"/><path d="M242.138 187.243h-11.779v8.575h11.779v-8.575Z" stroke="#3351E5" stroke-width="2.126"/><path fill-rule="evenodd" clip-rule="evenodd" d="M217.686 207.275h11.78v-10.7h-11.78v10.7Z" fill="#3351E5"/><path d="M230.528 197.638h-11.779v8.574h11.779v-8.574Z" stroke="#3351E5" stroke-width="2.126"/></g><path fill-rule="evenodd" clip-rule="evenodd" d="m208.97 137.203-52.1 32.75-52.09-32.75 52.09-10.47 52.1 10.47Z" fill="#141D30"/><path fill-rule="evenodd" clip-rule="evenodd" d="m184.325 191.508-12.46-7.41 4.49-10.02 9.84 5.61-1.87 11.82Z" fill="#fff"/><path fill-rule="evenodd" clip-rule="evenodd" d="m187.273 208.156-1.66-6.16-3.76-9.94-4.85-3.2 4.53-3.92 2.27 1.78-.64-9.34c5.38-.61 8.82 3.01 8.82 3.01l1.89.13-.66 7.98-1.77-.29s1.39 5.49 1.15 12.27c-.15 4.18-2.09 6.81-3.48 8.17-.6.59-1.62.32-1.84-.49Z" fill="#141D30"/><path fill-rule="evenodd" clip-rule="evenodd" d="M142.67 180.807c-4.78-1.66-9.23-1.18-13.65-2.68-7.47-2.53-13.89-4.72-17.15-5.86-13.25-4.61-20.4-15.63-18.53-25.3 1.87-9.67 15.13-13.62 27.71-6.87 12.57 6.75 58.29 32.17 58.29 32.17l-7.73 20.23c-4.99-1.68-5.5-3.98-9.5-5.44-1.484-.546-2.497-.534-3.642-.521-1.394.016-2.982.034-5.848-.949-5.23-1.78-6.93-3.73-9.95-4.78Z" fill="#31333A"/><path d="M129.02 178.127c4.42 1.5 8.87 1.02 13.65 2.68 3.02 1.05 4.72 3 9.95 4.78 5.22 1.79 6.2.26 9.49 1.47 4 1.46 4.51 3.76 9.5 5.44l7.73-20.23s-45.72-25.42-58.29-32.17c-12.58-6.75-25.84-2.8-27.71 6.87-1.87 9.67 5.28 20.69 18.53 25.3 3.26 1.14 9.68 3.33 17.15 5.86Z" stroke="#31333A"/><path fill-rule="evenodd" clip-rule="evenodd" d="M172.469 168.45c1.48.82 2.77 1.54 3.82 2.12l-8.42 17.46 4.6-19.58Z" fill="#141D30"/><path d="m128.486 144.141 47.8 30.51" stroke="#141D30" stroke-width=".763"/><path d="m191.154 187.145.55-5.92" stroke="#496EB5" stroke-width=".688"/><path fill-rule="evenodd" clip-rule="evenodd" d="m175.18 169.955 4.16 2.31-7.73 20.23c-2.14-.72-3.46-1.56-4.58-2.39l8.15-20.15Z" fill="#496EB5"/><path fill-rule="evenodd" clip-rule="evenodd" d="M171.609 192.498c-4.99-1.68-5.5-3.98-9.5-5.44-1.484-.546-2.498-.534-3.643-.521-1.393.015-2.981.033-5.847-.949-5.23-1.78-6.93-3.74-9.95-4.78-4.77-1.66-9.22-1.18-13.65-2.68-3.36-1.14-6.51-2.21-9.25-3.15l30.04-19.09c14.95 8.27 29.53 16.38 29.53 16.38l-1.1 2.88 4.96 2.83-.04-.6c5.39-.61 8.83 3.01 8.83 3.01l1.88.13-.56 6.87-1.86.82h-.01l-9.46 4.19-.13-.34-4.85-3.2 1.17-1.01-3.9-2.32-2.66 6.97Z" fill="#141D30"/><path fill-rule="evenodd" clip-rule="evenodd" d="M134.407 172.267s45.72-25.42 58.29-32.17c12.58-6.75 25.84-2.8 27.71 6.87 1.87 9.67-5.28 20.69-18.53 25.3-3.26 1.14-9.68 3.33-17.15 5.86-4.42 1.5-8.87 1.02-13.65 2.68-3.01 1.05-4.72 3-9.94 4.78-2.871.983-4.462.965-5.857.949-1.145-.013-2.159-.025-3.643.521-3.99 1.46-4.51 3.76-9.5 5.44l-7.73-20.23Z" fill="#31333A"/><path d="M192.697 140.097c-12.57 6.75-58.29 32.17-58.29 32.17l7.73 20.23c4.99-1.68 5.51-3.98 9.5-5.44 3.29-1.21 4.27.32 9.5-1.47 5.22-1.78 6.93-3.73 9.94-4.78 4.78-1.66 9.23-1.18 13.65-2.68 7.47-2.53 13.89-4.72 17.15-5.86 13.25-4.61 20.4-15.63 18.53-25.3-1.87-9.67-15.13-13.62-27.71-6.87Z" stroke="#31333A"/><path fill-rule="evenodd" clip-rule="evenodd" d="m145.882 188.03-8.42-17.46c1.05-.58 2.34-1.3 3.82-2.12l4.6 19.58Z" fill="#141D30"/><path d="m137.462 174.651 47.8-30.51" stroke="#141D30" stroke-width=".763"/><path fill-rule="evenodd" clip-rule="evenodd" d="m141.881 184.098-12.46 7.41-1.87-11.82 9.84-5.61 4.49 10.02Z" fill="#fff"/><path fill-rule="evenodd" clip-rule="evenodd" d="M121.761 180.386s3.44-3.62 8.83-3.01l-.65 9.34 2.28-1.78 4.53 3.92-4.85 3.2-3.77 9.94-1.66 6.16c-.22.81-1.23 1.08-1.84.49-1.38-1.36-3.32-3.99-3.47-8.17-.25-6.78 1.15-12.27 1.15-12.27l-1.77.29-.66-7.98 1.88-.13Z" fill="#141D30"/><path d="m122.042 181.225.55 5.92" stroke="#496EB5" stroke-width=".688"/><path fill-rule="evenodd" clip-rule="evenodd" d="m134.407 172.265 4.16-2.31 8.15 20.15c-1.12.83-2.44 1.67-4.58 2.39l-7.73-20.23Z" fill="#999"/><path fill-rule="evenodd" clip-rule="evenodd" d="M196.994 146.087c-12.01 1.73-31.78 4.14-45.24 4.14-15.92 0-28.58-1.9-42.47-3.74-27.78-3.71-6.5-41.3-1.7-46.63.43-.49.88-.97 1.35-1.44 6.59-6.58 15.66-10.67 25.66-10.67h40.78c9.43 0 18.04 3.64 24.52 9.6 6.37 5.83 31.87 43.75-2.9 48.74Z" fill="#fff"/><path d="M151.754 150.227c13.46 0 33.23-2.41 45.24-4.14 34.77-4.99 9.27-42.91 2.9-48.74-6.48-5.96-15.09-9.6-24.52-9.6h-40.78c-10 0-19.07 4.09-25.66 10.67-.47.47-.92.95-1.35 1.44-4.8 5.33-26.08 42.92 1.7 46.63 13.89 1.84 26.55 3.74 42.47 3.74Z" stroke="#31333A" stroke-width="2.126"/><path fill-rule="evenodd" clip-rule="evenodd" d="M153.528 97.546a6.502 6.502 0 0 0 6.51-6.5v-10.62a6.502 6.502 0 0 0-6.51-6.5 6.5 6.5 0 0 0-6.5 6.5v10.62a6.5 6.5 0 0 0 6.5 6.5Z" fill="#fff"/><path d="M161.098 74.988h-13.006v21.496h13.006V74.988Z" stroke="#31333A" stroke-width="2.126"/><path d="M152.089 97.832a65.54 65.54 0 0 1-6.97 7.07c-.18.15-.41.32-.64.24-.11-.04-.2-.14-.27-.24-3.61-4.42-5.46-10.25-5.06-15.95M154.734 97.98a65.5 65.5 0 0 0 6.97 7.07c.18.15.41.32.64.24.12-.04.2-.14.28-.23 3.61-4.43 5.45-10.26 5.05-15.96" stroke="#31333A" stroke-width="2"/><path fill-rule="evenodd" clip-rule="evenodd" d="M181.834 65.412c-2.61 0-4.72 2.11-4.72 4.72s2.11 4.72 4.72 4.72 4.72-2.11 4.72-4.72-2.11-4.72-4.72-4.72Z" fill="#fff"/><path d="M181.834 65.412c-2.61 0-4.72 2.11-4.72 4.72s2.11 4.72 4.72 4.72 4.72-2.11 4.72-4.72-2.11-4.72-4.72-4.72Z" stroke="#31333A" stroke-width="2.126"/><path fill-rule="evenodd" clip-rule="evenodd" d="M124.593 65.412c-2.61 0-4.72 2.11-4.72 4.72s2.11 4.72 4.72 4.72 4.72-2.11 4.72-4.72-2.11-4.72-4.72-4.72Z" fill="#fff"/><path d="M124.593 65.412c-2.61 0-4.72 2.11-4.72 4.72s2.11 4.72 4.72 4.72 4.72-2.11 4.72-4.72-2.11-4.72-4.72-4.72Z" stroke="#31333A" stroke-width="2.126"/><path fill-rule="evenodd" clip-rule="evenodd" d="M163.178 44.129c.01-.02.02-.03.03-.06.3-.43.9-.54 1.34-.24a29.737 29.737 0 0 1 11.93 32.42c-5.19 6.58-13.63 10.86-23.15 10.86a31.162 31.162 0 0 1-8.43-1.16.188.188 0 0 0-.08-.02 30.012 30.012 0 0 1-15.79-11.24c-.05-.07-.1-.15-.15-.22-2.63-3.97-4.14-8.63-4.14-13.61 0-1.72.18-3.41.53-5.04 3.49 1.01 7.12 1.52 10.76 1.51 7.89 0 15.06-2.3 20.37-6.05 2.74-1.88 5.04-4.32 6.78-7.15Z" fill="#fff"/><path d="M163.208 44.069c-.01.03-.02.04-.03.06a23.722 23.722 0 0 1-6.78 7.15c-5.31 3.75-12.48 6.05-20.37 6.05-3.64.01-7.27-.5-10.76-1.51-.35 1.63-.53 3.32-.53 5.04 0 4.98 1.51 9.64 4.14 13.61.05.07.1.15.15.22 3.82 5.31 9.34 9.32 15.79 11.24.03 0 .06.01.08.02a31.162 31.162 0 0 0 8.43 1.16c9.52 0 17.96-4.28 23.15-10.86a29.737 29.737 0 0 0-11.93-32.42.97.97 0 0 0-1.34.24Z" stroke="#31333A" stroke-width="2.126"/><path fill-rule="evenodd" clip-rule="evenodd" d="M131.612 57.6a33.897 33.897 0 0 0-2.04 11.67c0 2.52.27 5.03.81 7.48a29.607 29.607 0 0 1-7.34-19.55c0-.53.02-1.05.04-1.58a30.9 30.9 0 0 1-4.45-1.99c-.66-.37-1.19-.95-1.5-1.65-.77-1.77.04-3.83 1.81-4.6 2.36-1.05 4.82-1.83 7.35-2.34 6.93-14.32 23.79-20.8 38.53-14.81a29.83 29.83 0 0 1 18.65 27.62 29.58 29.58 0 0 1-7.08 19.24 29.749 29.749 0 0 0-11.19-32.27c-.02-.02-.05-.04-.08-.06-.79-.5-1.83-.28-2.33.51a23.96 23.96 0 0 1-6.4 6.53c-5.31 3.75-12.48 6.05-20.36 6.05-1.48 0-2.95-.09-4.42-.25Z" fill="#31333A"/><path d="M129.572 69.27c-.01-3.98.68-7.93 2.04-11.67 1.47.16 2.94.25 4.42.25 7.88 0 15.05-2.3 20.36-6.05a23.96 23.96 0 0 0 6.4-6.53c.5-.79 1.54-1.01 2.33-.51.03.02.06.04.08.06a29.749 29.749 0 0 1 11.19 32.27 29.58 29.58 0 0 0 7.08-19.24 29.83 29.83 0 0 0-18.65-27.62c-14.74-5.99-31.6.49-38.53 14.81-2.53.51-4.99 1.29-7.35 2.34a3.496 3.496 0 0 0-1.81 4.6c.31.7.84 1.28 1.5 1.65a30.9 30.9 0 0 0 4.45 1.99c-.02.53-.04 1.05-.04 1.58-.01 7.19 2.6 14.14 7.34 19.55-.54-2.45-.81-4.96-.81-7.48Z" stroke="#31333A"/><path d="M153.328 34.608c-15.79 0-28.59 11.75-28.59 26.25 0 14.49 12.8 26.25 28.59 26.25 15.78 0 28.58-11.76 28.58-26.25 0-14.5-12.8-26.25-28.58-26.25Z" stroke="#31333A" stroke-width="2.126"/><path d="m152.568 67.914-1 1.76c-.3.51-.6 1.05-.56 1.64.04.58.59 1.17 1.15 1.02" stroke="#31333A" stroke-width="2"/><path d="M144.6 66.45c0 1.52-1.23 2.75-2.75 2.75s-2.75-1.23-2.75-2.75M165.914 66.117c0 1.52-1.23 2.75-2.75 2.75s-2.75-1.23-2.75-2.75" stroke="#31333A" stroke-width="2.835"/><path d="M151.791 78.835s2.1-.56 3.66-.03" stroke="#31333A" stroke-width="2.126"/><path fill-rule="evenodd" clip-rule="evenodd" d="M102.322 144.403s5.34 2.15 12.39 2.81c10.25.95 38.48.11 71.53-7.61 4.86-1.14-4.81-15.36-7.88-16.13 0 0-26.81.05-39.81-.06-16.51-.13-17.43 3.32-17.43 3.32l-18.8 17.67Z" fill="#fff"/><path d="M102.322 144.403s5.34 2.15 12.39 2.81c10.25.95 38.48.11 71.53-7.61 4.86-1.14-4.81-15.36-7.88-16.13 0 0-26.81.05-39.81-.06-16.51-.13-17.43 3.32-17.43 3.32l-18.8 17.67Z" stroke="#31333A" stroke-width="2.126"/><path fill-rule="evenodd" clip-rule="evenodd" d="M189.808 112.267c.9.92.73 2.8-.39 4.2l-4.4 5.47c-1 1.25-2.43 1.69-3.36 1.1-.11-.06-.22-.15-.31-.24-.91-.92-.73-2.8.39-4.2l4.39-5.47c1.13-1.4 2.77-1.78 3.68-.86Z" fill="#fff"/><path d="M189.418 116.467c1.12-1.4 1.29-3.28.39-4.2-.91-.92-2.55-.54-3.68.86l-4.39 5.47c-1.12 1.4-1.3 3.28-.39 4.2.09.09.2.18.31.24.93.59 2.36.15 3.36-1.1l4.4-5.47Z" stroke="#31333A" stroke-width="2.126"/><path fill-rule="evenodd" clip-rule="evenodd" d="M192.738 113.586c.91.91.76 2.75-.33 4.11l-4.3 5.31c-.98 1.21-2.39 1.63-3.33 1.05-.11-.07-.21-.15-.3-.25-.91-.91-.76-2.76.33-4.11l4.3-5.32c1.1-1.35 2.73-1.71 3.63-.79Z" fill="#fff"/><path d="M192.408 117.696c1.09-1.36 1.24-3.2.33-4.11-.9-.92-2.53-.56-3.63.79l-4.3 5.32c-1.09 1.35-1.24 3.2-.33 4.11.09.1.19.18.3.25.94.58 2.35.16 3.33-1.05l4.3-5.31Z" stroke="#31333A" stroke-width="2.126"/><path fill-rule="evenodd" clip-rule="evenodd" d="M197.254 115.945c.93.89.88 2.56-.1 3.73l-3.86 4.61c-.88 1.05-2.21 1.35-3.15.77-.11-.07-.21-.15-.31-.25-.93-.88-.89-2.55.1-3.72l3.85-4.61c.99-1.17 2.54-1.41 3.47-.53Z" fill="#fff"/><path d="M197.154 119.675c.98-1.17 1.03-2.84.1-3.73-.93-.88-2.48-.64-3.47.53l-3.85 4.61c-.99 1.17-1.03 2.84-.1 3.72.1.1.2.18.31.25.94.58 2.27.28 3.15-.77l3.86-4.61Z" stroke="#31333A" stroke-width="2.126"/><path fill-rule="evenodd" clip-rule="evenodd" d="m146.693 117.444-3.18 13.69s48.71 15.12 57.6 13.52c8.89-1.6 11.56-4.45 12.8-9.07 1.25-4.63.71-8.57.71-8.57l-17.45-3.92-50.48-5.65Z" fill="#fff"/><path d="m197.861 122.677-50.47-4.38-3.18 13.7s48.71 15.11 57.6 13.51c8.89-1.6 11.56-4.45 12.8-9.07 1.25-4.62 0-10.85 0-10.85" stroke="#31333A" stroke-width="2.126"/><path fill-rule="evenodd" clip-rule="evenodd" d="M130.013 126.235c-7.34 1.38-6.57-1.75-6.57-1.75s1.87-5.7 10.01-7.88c8.14-2.18 13.57 1.66 13.57 1.66v.69l-3.18 13.01s-6.5-7.11-13.83-5.73Z" fill="#fff"/><path d="M123.443 124.485s-.77 3.13 6.57 1.75c7.33-1.38 13.83 5.73 13.83 5.73l3.18-13.01v-.69s-5.43-3.84-13.57-1.66c-8.14 2.18-10.01 7.88-10.01 7.88Z" stroke="#31333A" stroke-width="2.126"/><path fill-rule="evenodd" clip-rule="evenodd" d="M121.743 49.597c-2.41 0-4.36 1.95-4.36 4.36s1.95 4.36 4.36 4.36 4.36-1.95 4.36-4.36-1.95-4.36-4.36-4.36Z" fill="#31333A"/><path fill-rule="evenodd" clip-rule="evenodd" d="m144.211 131.997 3.18-13.7 6.52 1.32s-2.31 13.32-3.3 13.66c-.99.35-6.4-1.28-6.4-1.28Z" fill="#DCDDDD"/><path d="m147.391 118.297-3.18 13.7s5.41 1.63 6.4 1.28c.99-.34 3.3-13.66 3.3-13.66l-6.52-1.32Z" stroke="#31333A" stroke-width="2.126"/><path fill-rule="evenodd" clip-rule="evenodd" d="M148.015 128.607a1.25 1.25 0 1 0 0 2.5 1.25 1.25 0 0 0 0-2.5Z" fill="#DCDDDD"/><path fill-rule="evenodd" clip-rule="evenodd" d="M215.15 156.148c-6.21 0-11.25-4.51-11.25-10.08v-29.34c0-5.57 5.04-10.08 11.25-10.08h56.17c6.21 0 11.25 4.51 11.25 10.08v29.34c0 5.57-5.04 10.08-11.25 10.08h-18.37l-10.1 9.06-10.1-9.06h-17.6Z" fill="#5578EC"/><path d="M203.9 146.068c0 5.57 5.04 10.08 11.25 10.08h17.6l10.1 9.06 10.1-9.06h18.37c6.21 0 11.25-4.51 11.25-10.08v-29.34c0-5.57-5.04-10.08-11.25-10.08h-56.17c-6.21 0-11.25 4.51-11.25 10.08v29.34Z" stroke="#31333A" stroke-width="2.126"/><path fill-rule="evenodd" clip-rule="evenodd" d="m248.327 62.553 9.753-4.325-.385-.869-9.754 4.326.386.868ZM249.431 65.042l7.057-3.13-.385-.868-7.057 3.13.385.868ZM250.384 67.193l9.754-4.326-.385-.868-9.754 4.325.385.869ZM249.959 122.158c-1.43 0-2.53.34-3.31 1.02-.77.68-1.16 1.54-1.16 2.58v.92c0 1.03.39 1.88 1.17 2.56.78.68 1.89 1.01 3.33 1.01 1.43 0 2.54-.33 3.31-1.01.78-.67 1.17-1.52 1.17-2.56v-.92c0-1.04-.39-1.9-1.17-2.58-.77-.68-1.89-1.02-3.34-1.02Zm10.525 2.745-2.18-.94-9.85 13.61 2.18.94 9.85-13.61Zm-11.612 2.771c.25.27.63.4 1.12.4.47 0 .83-.13 1.09-.4.25-.27.38-.6.38-1v-.92c0-.4-.13-.73-.39-1.01-.26-.27-.63-.41-1.11-.41-.47 0-.84.14-1.09.41-.26.28-.39.61-.39 1.01v.92c0 .4.13.73.39 1Zm15.181 7.878c0-1.04-.39-1.9-1.16-2.57-.77-.68-1.88-1.02-3.33-1.02-1.43 0-2.54.34-3.32 1.02-.79.68-1.18 1.54-1.18 2.57v.92c0 1.03.39 1.89 1.18 2.57.79.68 1.91 1.02 3.35 1.02 1.43 0 2.53-.34 3.3-1.02.77-.67 1.16-1.53 1.16-2.57v-.92Zm-5.984.916c0 .38.15.71.44.99.3.28.66.42 1.08.42.58 0 .96-.12 1.17-.37.2-.25.3-.59.3-1.04v-.92c0-.39-.13-.72-.39-1-.26-.27-.63-.41-1.1-.41-.48 0-.85.14-1.11.41-.26.28-.39.61-.39 1v.92ZM224.076 129.696c-.92 0-1.66.74-1.66 1.66 0 .92.74 1.67 1.66 1.67.92 0 1.67-.75 1.67-1.67 0-.92-.75-1.66-1.67-1.66ZM231.156 129.696c-.92 0-1.66.74-1.66 1.66 0 .92.74 1.67 1.66 1.67.92 0 1.67-.75 1.67-1.67 0-.92-.75-1.66-1.67-1.66ZM238.235 129.696c-.92 0-1.66.74-1.66 1.66 0 .92.74 1.67 1.66 1.67.92 0 1.67-.75 1.67-1.67 0-.92-.75-1.66-1.67-1.66Z" fill="#fff"/></svg>