<svg viewBox="0 0 400 300" fill="none" xmlns="http://www.w3.org/2000/svg"><path d="M78.48 243.448c-13.84-6.33-23.37-15.49-26.95-27.21-9.88-32.4 29.02-73.97 90.37-100.73" stroke="#31333A" stroke-width="2.126"/><path fill-rule="evenodd" clip-rule="evenodd" d="M295.924 108.808c-2.76 0-5 2.24-5 5s2.24 5 5 5 5-2.24 5-5-2.24-5-5-5Z" fill="#31333A"/><path d="M176.127 102.966c.74-.22 1.49-.45 2.24-.67 79.45-23.62 152.7-12.48 164.2 25.22 3.74 12.27.49 25.85-8.33 39.45" stroke="#31333A" stroke-width="2.126"/><path d="M57.118 219.035c2.46-11.69 9.82-23.9 21.1-35.75 3.31-3.49 6.98-6.95 10.96-10.35 11.4-9.77 25.39-19.07 41.38-27.38 15.5-8.07 32.87-15.19 51.57-20.9 25.8-7.87 51.01-12.07 73.72-12.9 8.45-.31 16.55-.15 24.22.47M308.868 117.296c20.71 6.06 35.11 16.87 39.7 31.91 5.98 19.62-5.91 42.59-29.84 63.59-2.9 2.56-5.99 5.09-9.24 7.56-5.7 4.37-11.91 8.61-18.58 12.68l-1.44.87-.03.01c-.96.58-1.93 1.15-2.92 1.72-10.1 5.89-21.17 11.37-33.03 16.3a316.644 316.644 0 0 1-38.97 13.3c-13.8 3.75-27.36 6.45-40.38 8.14-12.36 1.6-24.24 2.29-35.37 2.11-.12 0-.23 0-.34-.01-2.16-.04-4.3-.11-6.4-.22a170.912 170.912 0 0 1-15.52-1.43c-5.13-.7-10.02-1.64-14.63-2.8-5.92-1.48-11.4-3.32-16.33-5.52-9.94-4.41-17.73-10.23-22.78-17.38-2.22-3.15-3.92-6.55-5.03-10.21" stroke="#31333A" stroke-width="2.126"/><path fill-rule="evenodd" clip-rule="evenodd" d="m322.205 169.47 10.79 8.7-12.93 4.99 2.14-13.69Z" fill="#5578EC"/><path d="m332.995 178.17-10.79-8.7-2.14 13.69 12.93-4.99Z" stroke="#3351E5" stroke-width="2.126"/><path fill-rule="evenodd" clip-rule="evenodd" d="M219.571 258.207c-2.76 0-5 2.24-5 5s2.24 5 5 5 5-2.24 5-5-2.24-5-5-5Z" fill="#fff"/><path d="M219.571 258.207c-2.76 0-5 2.24-5 5s2.24 5 5 5 5-2.24 5-5-2.24-5-5-5Z" stroke="#31333A" stroke-width="2.126"/><path fill-rule="evenodd" clip-rule="evenodd" d="m89.997 239.747 13.57-48.25 35.8-9.13c1.1-3.59 5.24-6.43 9.26-6.43h102.47c4.01 0 8.16 2.84 9.26 6.43l16.9 55.44c.676 2.211 1.98 4.399 3.107 6.292 1.994 3.345 3.437 5.768-.107 5.768l-79.45-5.45-42.51-1.92s-30.35 5.23-37.26 4.46c-3.02-.33-31.32-6.29-31.04-7.21Z" fill="#AFAEB4"/><path fill-rule="evenodd" clip-rule="evenodd" d="m118.894 150.838-30.65 78.21 31.5 17.22 27.37-89.43-28.22-6Z" fill="#fff"/><path d="m118.894 150.838-30.65 78.21 31.5 17.22 27.37-89.43-28.22-6Z" stroke="#31333A" stroke-width="2.126"/><path fill-rule="evenodd" clip-rule="evenodd" d="M256.489 117.874c9.96-1.29 19.56 1.38 27.22 6.78.594.418 1.337.908 2.191 1.472 9.961 6.571 35.017 23.101 14.469 50.768-8.71 11.72-35.91 19.45-50.13 21.29-9.516 1.235-21.268-1.867-32.382-4.8-8.52-2.249-16.664-4.398-23.138-4.42-29.85-.11-12.52-42.73-8.19-49.02.39-.58.8-1.15 1.23-1.71 6.06-7.85 15.09-13.41 25.65-14.78l43.08-5.58Z" fill="#fff"/><path d="M283.709 124.654c-7.66-5.4-17.26-8.07-27.22-6.78l-43.08 5.58c-10.56 1.37-19.59 6.93-25.65 14.78-.43.56-.84 1.13-1.23 1.71-4.33 6.29-21.66 48.91 8.19 49.02 14.92.05 38.71 11.4 55.52 9.22 14.22-1.84 41.42-9.57 50.13-21.29 22.31-30.04-9.14-46.95-16.66-52.24Z" stroke="#31333A" stroke-width="2.126"/><path fill-rule="evenodd" clip-rule="evenodd" d="m220.395 162.397 34.129-2.485c3.132-.228 5.5-2.957 5.272-6.088l-.181-2.494a5.702 5.702 0 0 0-6.099-5.271l-34.13 2.485a5.701 5.701 0 0 0-5.271 6.099l.182 2.493c.228 3.132 2.966 5.489 6.098 5.261Z" fill="#AFAEB4"/><path d="m260.342 146.627-45.503 3.313.854 11.737 45.504-3.313-.855-11.737Z" stroke="#31333A" stroke-width="2.126"/><path fill-rule="evenodd" clip-rule="evenodd" d="m212.646 161.704 5.261-.789a5.188 5.188 0 0 0 4.363-5.902l-3.915-26.108a5.193 5.193 0 0 0-5.903-4.363l-7.258 1.088a3.146 3.146 0 0 0-2.078 1.252 3.138 3.138 0 0 0-.587 2.354l4.215 28.105a5.188 5.188 0 0 0 5.902 4.363Z" fill="#DCDDDD"/><path d="m218.792 124.666-15.524 2.328 5.138 34.267 15.525-2.328-5.139-34.267Z" stroke="#31333A" stroke-width="2.126"/><path fill-rule="evenodd" clip-rule="evenodd" d="M258.636 155.069h5.32a5.192 5.192 0 0 0 5.19-5.19v-29.22c0-1.31-1.06-2.37-2.37-2.37h-10.16c-.84 0-1.65.33-2.24.93-.6.59-.93 1.4-.93 2.24v28.42a5.192 5.192 0 0 0 5.19 5.19Z" fill="#DCDDDD"/><path d="M270.207 119.353h-15.698v34.65h15.698v-34.65Z" stroke="#31333A" stroke-width="2.126"/><path fill-rule="evenodd" clip-rule="evenodd" d="M267.683 159.543c-7.876 1.932-12.248 11.685-9.772 21.776 2.478 10.1 10.868 16.722 18.744 14.789 7.876-1.933 12.248-11.685 9.77-21.786-2.476-10.091-10.866-16.712-18.742-14.779Z" fill="#fff"/><path d="M267.683 159.543c-7.876 1.932-12.248 11.685-9.772 21.776 2.478 10.1 10.868 16.722 18.744 14.789 7.876-1.933 12.248-11.685 9.77-21.786-2.476-10.091-10.866-16.712-18.742-14.779Z" stroke="#31333A" stroke-width="2.126"/><path fill-rule="evenodd" clip-rule="evenodd" d="m237.065 127.735 2.584-1.079a6.404 6.404 0 0 0 3.459-3.472 6.407 6.407 0 0 0-.021-4.901l-5.987-14.329a6.4 6.4 0 0 0-3.472-3.459 6.401 6.401 0 0 0-4.901.021l-2.583 1.079a6.4 6.4 0 0 0-3.459 3.472 6.398 6.398 0 0 0 .021 4.901l5.987 14.329a6.4 6.4 0 0 0 3.471 3.459 6.398 6.398 0 0 0 4.901-.021Z" fill="#fff"/><path d="m236.023 98.62-14.394 6.014 10.102 24.179 14.394-6.014-10.102-24.18Z" stroke="#31333A" stroke-width="2.126"/><path fill-rule="evenodd" clip-rule="evenodd" d="m243.382 121.745.24-2.2 16.85-1.99c-.8 8.17-4.81 15.98-10.99 21.39-.13.11-.27.23-.45.26-.33.06-.62-.23-.84-.5a91.963 91.963 0 0 1-8.18-11.68s3.12-3.07 3.37-5.28Z" fill="#fff"/><path d="m243.622 119.545-.24 2.2c-.25 2.21-3.37 5.28-3.37 5.28 2.42 4.1 5.16 8.01 8.18 11.68.22.27.51.56.84.5.18-.03.32-.15.45-.26 6.18-5.41 10.19-13.22 10.99-21.39l-16.85 1.99Z" stroke="#31333A" stroke-width="2"/><path fill-rule="evenodd" clip-rule="evenodd" d="M229.444 142.518c-.18.02-.35-.05-.51-.13-7.46-3.41-13.54-9.75-16.64-17.35l-.71-.84 15-2.45s.59.3 1.97 2.74c1.39 2.44 6.05 3.78 6.05 3.78a91.724 91.724 0 0 1-4.5 13.53c-.13.32-.32.68-.66.72Z" fill="#fff"/><path d="M228.934 142.388c.16.08.33.15.51.13.34-.04.53-.4.66-.72 1.85-4.38 3.35-8.91 4.5-13.53 0 0-4.66-1.34-6.05-3.78-1.38-2.44-1.97-2.74-1.97-2.74l-15 2.45.71.84c3.1 7.6 9.18 13.94 16.64 17.35Z" stroke="#31333A" stroke-width="2"/><path d="M215.369 124.065c3.13 6.65 8.77 12.09 15.45 14.89M247.185 136.392c5.44-4.72 9.16-11.4 10.2-18.3" stroke="#31333A" stroke-width="2"/><path fill-rule="evenodd" clip-rule="evenodd" d="m228.03 152.308 25.33 5.82c.52.12.93.5 1.09 1.01l27.2 86.74c.4 1.25-.91 2.37-2.09 1.78l-39.1-19.3a1.47 1.47 0 0 0-1.23-.04l-37 15.28c-.36.15-.77.15-1.13 0l-37.56-15.3a1.51 1.51 0 0 0-1.18.02l-41.33 18.64c-1.17.53-2.42-.57-2.04-1.8l26.32-86.76c.15-.5.55-.88 1.05-1.01l24.62-6.5c.26-.07.52-.07.77 0l30.42 8.04c.26.07.52.07.78 0l24.35-6.61c.24-.06.49-.07.73-.01Z" fill="#fff"/><path d="m253.36 158.128-25.33-5.82c-.24-.06-.49-.05-.73.01l-24.35 6.61c-.26.07-.52.07-.78 0l-30.42-8.04c-.25-.07-.51-.07-.77 0l-24.62 6.5c-.5.13-.9.51-1.05 1.01l-26.32 86.76c-.38 1.23.87 2.33 2.04 1.8l41.33-18.64c.37-.17.8-.17 1.18-.02l37.56 15.3c.36.15.77.15 1.13 0l37-15.28c.39-.17.84-.15 1.23.04l39.1 19.3c1.18.59 2.49-.53 2.09-1.78l-27.2-86.74c-.16-.51-.57-.89-1.09-1.01Z" stroke="#31333A" stroke-width="2.126"/><path fill-rule="evenodd" clip-rule="evenodd" d="M184.318 83.73c-2.29-21.89 12.77-41.41 33.65-43.6 20.88-2.19 38.63 13.92 41.96 35.68 3.78 24.65-12.77 41.42-33.65 43.6-20.88 2.19-39.67-13.78-41.96-35.68Z" fill="#31333A"/><path d="M217.968 40.13c-20.88 2.19-35.94 21.71-33.65 43.6 2.29 21.9 21.08 37.87 41.96 35.68 20.88-2.18 37.43-18.95 33.65-43.6-3.33-21.76-21.08-37.87-41.96-35.68Z" stroke="#31333A" stroke-width="2.126"/><path fill-rule="evenodd" clip-rule="evenodd" d="M233.335 60.617c.33-.61 1.11-.84 1.73-.5 14.88 8.01 23.01 24.58 20.27 41.221-5.95 9.42-16.51 16.24-29.11 17.56-3.37.35-6.67.29-9.86-.14-.48-.07-.96-.14-1.44-.22-.04-.01-.07-.02-.11-.02a39.907 39.907 0 0 1-22.45-12.67c-.08-.09-.15-.18-.23-.27-4.02-4.89-6.66-10.84-7.35-17.43-.24-2.27-.24-4.53 0-6.73 4.76.85 9.63 1.02 14.44.5 10.43-1.09 19.59-5.13 26.1-10.82 3.36-2.87 6.07-6.41 7.97-10.4.01-.02.02-.05.04-.08Z" fill="#fff"/><path d="M235.065 60.117c-.62-.34-1.4-.11-1.73.5-.02.03-.03.06-.04.08-1.9 3.99-4.61 7.53-7.97 10.4-6.51 5.69-15.67 9.73-26.1 10.82-4.81.52-9.68.35-14.44-.5-.24 2.2-.24 4.46 0 6.73.69 6.59 3.33 12.541 7.35 17.431.08.09.15.18.23.27a39.907 39.907 0 0 0 22.45 12.67c.04 0 .07.01.11.02.48.08.96.15 1.44.22 3.19.43 6.49.49 9.86.14 12.6-1.32 23.16-8.14 29.11-17.56 2.74-16.64-5.39-33.21-20.27-41.22Z" stroke="#31333A" stroke-width="2.126"/><path fill-rule="evenodd" clip-rule="evenodd" d="M256.977 70.103a8.04 8.04 0 0 0-8.04 8.04c0 4.43 3.6 8.03 8.04 8.03 4.43 0 8.03-3.6 8.03-8.03 0-4.44-3.6-8.04-8.03-8.04Z" fill="#fff"/><path d="M256.977 70.103a8.04 8.04 0 0 0-8.04 8.04c0 4.43 3.6 8.03 8.04 8.03 4.43 0 8.03-3.6 8.03-8.03 0-4.44-3.6-8.04-8.03-8.04Z" stroke="#31333A" stroke-width="2.126"/><path fill-rule="evenodd" clip-rule="evenodd" d="M254.401 75.887c.78 7.29-1.58 14.94-5.18 21.63-.65 1.2-2.47.58-2.28-.77 2.06-14.34 1.78-28.16-10.86-35.42-.04-.02-.08-.05-.12-.07-1.11-.55-2.46-.1-3.02 1a31.75 31.75 0 0 1-7.55 9.53c-6.51 5.69-15.67 9.72-26.09 10.82-1.831.188-8.184.12-10.576.094l-.414-.004c-2.7 16.207 2.415 21.673 5.212 24.661.353.377.669.715.928 1.029a39.362 39.362 0 0 1-12.42-24.84c-.08-.7-.12-1.4-.16-2.09-.97-.24-1.92-.51-2.85-.81-1.14-.36-2.24-.76-3.31-1.21a4.61 4.61 0 0 1-2.21-1.97c-1.27-2.24-.49-5.08 1.75-6.34 2.97-1.71 6.12-3.09 9.39-4.11 7.18-19.9 28.58-30.81 48.91-24.93 15.51 4.46 19.14 17.74 20.85 33.8Z" fill="#31333A"/><path d="M249.221 97.517c3.6-6.69 5.96-14.34 5.18-21.63-1.71-16.06-5.34-29.34-20.85-33.8-20.33-5.88-41.73 5.03-48.91 24.93-3.27 1.02-6.42 2.4-9.39 4.11-2.24 1.26-3.02 4.1-1.75 6.34.5.88 1.27 1.57 2.21 1.97 1.07.45 2.17.85 3.31 1.21.93.3 1.88.57 2.85.81.04.69.08 1.39.16 2.09.98 9.51 5.4 18.34 12.42 24.84-2.31-2.81-9.18-7.44-6.14-25.69 1.96.02 9.04.11 10.99-.09 10.42-1.1 19.58-5.13 26.09-10.82a31.75 31.75 0 0 0 7.55-9.53c.56-1.1 1.91-1.55 3.02-1 .04.02.08.05.12.07 12.64 7.26 12.92 21.08 10.86 35.42-.19 1.35 1.63 1.97 2.28.77Z" stroke="#31333A"/><path d="m213.31 97.068-.24 2.69c-.07.77-.13 1.6.24 2.28.38.69 1.36 1.09 1.96.59" stroke="#31333A" stroke-width="1.5"/><path fill-rule="evenodd" clip-rule="evenodd" d="M180.735 77.714a4.535 4.535 0 1 0 0 9.07c2.5 0 4.53-2.03 4.53-4.53 0-2.51-2.03-4.54-4.53-4.54ZM248.138 25c-7.77 0-14.06 6.29-14.06 14.06 0 7.76 6.29 14.05 14.06 14.05 7.76 0 14.05-6.29 14.05-14.05 0-7.77-6.29-14.06-14.05-14.06Z" fill="#31333A"/><path fill-rule="evenodd" clip-rule="evenodd" d="m121.905 243.694 24.98-84.78 24.28-6.24-8.23 72.46-41.03 18.56ZM201.384 242.495l2.35-82.24 25.07-7.11 10.37 74.08-37.79 15.27Z" fill="#D7D9DD"/><path d="m163.369 221.347 7.79-66.15M228.415 157.955l9.76 65.08" stroke="#31333A" stroke-width="2.126"/><path d="M226.599 79.256c-5.06 0-9.16 4.1-9.16 9.16 0 5.05 4.1 9.15 9.16 9.15 5.05 0 9.15-4.1 9.15-9.15 0-5.06-4.1-9.16-9.15-9.16ZM200.054 88.413c-5.06 0-9.16 4.1-9.16 9.16 0 5.05 4.1 9.15 9.16 9.15 5.05 0 9.15-4.1 9.15-9.15 0-5.06-4.1-9.16-9.15-9.16Z" stroke="#31333A" stroke-width="1.5"/><path d="M207.014 91.962c1.61-3.61 6.34-5 10.56-3.1" stroke="#31333A" stroke-width="1.5"/><path fill-rule="evenodd" clip-rule="evenodd" d="m200.756 98.317-.343-.821a2.034 2.034 0 0 0-1.099-1.101 2.035 2.035 0 0 0-1.556.01l-.822.344a2.035 2.035 0 0 0-1.101 1.1 2.037 2.037 0 0 0 .011 1.555l.343.822c.208.498.602.897 1.1 1.101a2.036 2.036 0 0 0 1.556-.011l.821-.343a2.033 2.033 0 0 0 1.101-1.1 2.032 2.032 0 0 0-.011-1.556ZM227.516 89.438l-.343-.82a2.034 2.034 0 0 0-1.099-1.102 2.037 2.037 0 0 0-1.557.01l-.821.344a2.035 2.035 0 0 0-1.101 1.1 2.037 2.037 0 0 0 .011 1.555l.343.822c.208.498.602.897 1.099 1.1a2.037 2.037 0 0 0 1.557-.01l.821-.343a2.035 2.035 0 0 0 1.101-1.1 2.037 2.037 0 0 0-.011-1.556Z" fill="#31333A"/><path d="m234.074 83.15 17.16-10.34" stroke="#31333A"/><path fill-rule="evenodd" clip-rule="evenodd" d="M251.331 154.583a6.16 6.16 0 0 0-8.71-.2c-.26.24-.49.5-.7.78a6.147 6.147 0 0 0 .5 7.92l6.83 6.6 10.52-6.6-8.44-8.5Z" fill="#fff"/><path d="M251.331 154.583a6.16 6.16 0 0 0-8.71-.2c-.26.24-.49.5-.7.78a6.147 6.147 0 0 0 .5 7.92l6.83 6.6 10.52-6.6-8.44-8.5Z" stroke="#31333A" stroke-width="2.126"/><path fill-rule="evenodd" clip-rule="evenodd" d="m251.651 206.153-19.12-8.06 30.77-71.37 4.07 1.72 15.03 6.35-30.75 71.36Z" fill="#5578EC"/><path d="m232.531 198.093 19.12 8.06 30.75-71.36-15.03-6.35-4.07-1.72-30.77 71.37Z" stroke="#3351E5" stroke-width="2.126"/><path fill-rule="evenodd" clip-rule="evenodd" d="m269.726 129.41 6.36 2.69-30.83 71.33-6.37-2.69 30.84-71.33Z" fill="#3351E5"/><path fill-rule="evenodd" clip-rule="evenodd" d="m232.249 198.825 19.11 8.06-11.39 8.18-5.73-2.41-1.99-13.83Z" fill="#DCDDDD"/><path d="m251.359 206.885-19.11-8.06 1.99 13.83 5.73 2.41 11.39-8.18Z" stroke="#3351E5" stroke-width="2.126"/><path fill-rule="evenodd" clip-rule="evenodd" d="m235.173 218.483-.86-5.93 5.74 2.42-4.88 3.51Z" fill="#fff"/><path d="m234.313 212.553.86 5.93 4.88-3.51-5.74-2.42Z" stroke="#3351E5" stroke-width="2.126"/><path fill-rule="evenodd" clip-rule="evenodd" d="M235.704 163.398c-.01-.26.01-.53.06-.78.68-3.79 1.35-6.26 5.38-5.59l19.63 3.24c11.12 1.84 18.66 12.1 16.75 22.81l-.28 1.55c-1.43 8.04-7.67 13.51-16.7 13.82-1.25.05-2.51-.05-3.75-.21-3.33-.43-10.85-1.54-14.01-3.11-4-1.98-5.22-3.88-6.19-8.19-.05-.22-.08-.46-.08-.69l-.81-22.85Z" fill="#fff"/><path d="M235.764 162.618c-.05.25-.07.52-.06.78l.81 22.85c0 .23.03.47.08.69.97 4.31 2.19 6.21 6.19 8.19 3.16 1.57 10.68 2.68 14.01 3.11 1.24.16 2.5.26 3.75.21 9.03-.31 15.27-5.78 16.7-13.82l.28-1.55c1.91-10.71-5.63-20.97-16.75-22.81l-19.63-3.24c-4.03-.67-4.7 1.8-5.38 5.59Z" stroke="#31333A" stroke-width="2.126"/><path fill-rule="evenodd" clip-rule="evenodd" d="M238.774 156.877c-3.21-.52-6.26 1.56-6.81 4.65-.05.33-.08.65-.08.97 0 2.71 2.04 5.12 4.92 5.59l9.02 1.11 4.3-10.69-11.35-1.63Z" fill="#fff"/><path d="M238.774 156.877c-3.21-.52-6.26 1.56-6.81 4.65-.05.33-.08.65-.08.97 0 2.71 2.04 5.12 4.92 5.59l9.02 1.11 4.3-10.69-11.35-1.63Z" stroke="#31333A" stroke-width="2.126"/><path fill-rule="evenodd" clip-rule="evenodd" d="M237.784 167.883c-2.64-.44-5.15 1.28-5.6 3.83-.05.26-.07.53-.07.79 0 2.24 1.68 4.22 4.05 4.6l7.45.72 4.54-8.25-10.37-1.69Z" fill="#fff"/><path d="M237.784 167.883c-2.64-.44-5.15 1.28-5.6 3.83-.05.26-.07.53-.07.79 0 2.24 1.68 4.22 4.05 4.6l7.45.72 4.54-8.25-10.37-1.69Z" stroke="#31333A" stroke-width="2.126"/><path fill-rule="evenodd" clip-rule="evenodd" d="M238.534 177c-2.51-.41-4.89 1.22-5.31 3.63-.05.26-.07.51-.07.76 0 2.12 1.59 3.99 3.84 4.36l6.44 1.05 1.92-8.69-6.82-1.11Z" fill="#fff"/><path d="M238.534 177c-2.51-.41-4.89 1.22-5.31 3.63-.05.26-.07.51-.07.76 0 2.12 1.59 3.99 3.84 4.36l6.44 1.05 1.92-8.69-6.82-1.11Z" stroke="#31333A" stroke-width="2.126"/><path fill-rule="evenodd" clip-rule="evenodd" d="M240.84 186.014c-2.51-.41-4.89 1.22-5.31 3.63-.05.26-.07.51-.07.76 0 2.12 1.59 3.99 3.83 4.36l9.71 2.26-4.2-10.37-3.96-.64Z" fill="#fff"/><path d="M240.84 186.014c-2.51-.41-4.89 1.22-5.31 3.63-.05.26-.07.51-.07.76 0 2.12 1.59 3.99 3.83 4.36l9.71 2.26-4.2-10.37-3.96-.64Z" stroke="#31333A" stroke-width="2.126"/><path d="M265.605 208.741c-9.16 6.95-23.8 15.29-40.44 10.94-19.44-5.08-26.46-23.5-46.79-30.93-9.5-3.47-24.31-5.42-44.61 5.62 0 0-15.98 2.76-22.5-7.06" stroke="#31333A" stroke-width="1.417" stroke-dasharray="2.83 5.67"/><path d="M124.371 224.611c2.29 2.17 5.82 2.6 8.87 1.84 3.06-.76 5.76-2.54 8.32-4.37 6.42-4.56 12.59-9.71 17.21-16.03m14.49 3.91c3.75-.99 6.71-4 8.53-7.42 1.81-3.42 2.66-7.26 3.48-11.05m-29.29 8.64c.02-1.48.6-3.01 1.79-3.89 1.2-.87 3.05-.87 4.05.23 1.37 1.5.53 3.91-.49 5.67-.78 1.35-1.64 2.65-2.56 3.91 1.76 1.64 4.12 2.84 6.43 3.5 2.62.74 5.43 1.1 8.06.41-1.7-1.59-17.32-7.5-17.28-9.83Zm5.35 2.01c1.02-1.76 1.86-4.17.49-5.67-1-1.1-2.85-1.1-4.05-.23-1.19.88-1.77 2.41-1.79 3.89-.04 2.33 1.09 4.33 2.79 5.92.92-1.26 1.78-2.56 2.56-3.91Z" stroke="#31333A" stroke-width=".709" stroke-dasharray="2.83 5.67"/><path fill-rule="evenodd" clip-rule="evenodd" d="m205.601 194.725-12.58 21.15c-.56.94-1.93.94-2.49 0l-12.43-20.86a15.407 15.407 0 0 1-1.79-7.22c0-8.33 6.58-15.12 14.83-15.45h1.29c8.24.34 14.81 7.13 14.81 15.45 0 2.5-.59 4.85-1.64 6.93Z" fill="#5578EC"/><path d="m193.021 215.875 12.58-21.15c1.05-2.08 1.64-4.43 1.64-6.93 0-8.32-6.57-15.11-14.81-15.45h-1.29c-8.25.33-14.83 7.12-14.83 15.45 0 2.61.65 5.06 1.79 7.22l12.43 20.86c.56.94 1.93.94 2.49 0Z" stroke="#3351E5" stroke-width="2.126"/><path fill-rule="evenodd" clip-rule="evenodd" d="M191.778 178.277c-4.99 0-9.03 4.04-9.03 9.03 0 4.99 4.04 9.03 9.03 9.03 4.99 0 9.03-4.04 9.03-9.03 0-4.99-4.04-9.03-9.03-9.03Z" fill="#fff"/><path fill-rule="evenodd" clip-rule="evenodd" d="m130.505 184.967-7.4-11.01a8.493 8.493 0 0 1-1.19-3.88c-.24-4.54 3.14-8.44 7.63-8.86l.7-.04c4.5-.06 8.29 3.45 8.54 7.98.07 1.36-.18 2.67-.69 3.83l-6.24 11.9a.788.788 0 0 1-1.35.08Z" fill="#5578EC"/><path d="m123.105 173.957 7.4 11.01c.33.49 1.07.45 1.35-.08l6.24-11.9c.51-1.16.76-2.47.69-3.83-.25-4.53-4.04-8.04-8.54-7.98l-.7.04c-4.49.42-7.87 4.32-7.63 8.86.08 1.42.51 2.74 1.19 3.88Z" stroke="#3351E5" stroke-width="2.126"/><path fill-rule="evenodd" clip-rule="evenodd" d="M130.335 164.423c-2.72 0-4.93 2.21-4.93 4.93 0 2.72 2.21 4.93 4.93 4.93 2.72 0 4.93-2.21 4.93-4.93 0-2.72-2.21-4.93-4.93-4.93ZM219.521 112.021c1.7-.73 2.57-2.53 1.93-4.02l-6.18 2.64c.64 1.49 2.54 2.11 4.25 1.38Z" fill="#fff"/><path d="M219.521 112.021c1.7-.73 2.57-2.53 1.93-4.02l-6.18 2.64c.64 1.49 2.54 2.11 4.25 1.38Z" stroke="#31333A" stroke-width="1.417"/><path fill-rule="evenodd" clip-rule="evenodd" d="M169.781 97.747c0 3.32-1.25 6.43-3.42 9.1l4.2 12.46-10.77-7.17c-4.12 2.22-9.21 3.53-14.74 3.53-13.65 0-24.72-8.02-24.72-17.92 0-9.89 11.07-17.91 24.72-17.91 13.66 0 24.73 8.02 24.73 17.91Z" fill="#D7D9DD"/><path fill-rule="evenodd" clip-rule="evenodd" d="M132.274 101.338c-1.98 0-3.58-1.61-3.58-3.59 0-1.98 1.6-3.58 3.58-3.58 1.99 0 3.59 1.6 3.59 3.58s-1.6 3.59-3.59 3.59ZM145.052 101.338c-1.97 0-3.58-1.61-3.58-3.59 0-1.98 1.61-3.58 3.58-3.58 1.99 0 3.59 1.6 3.59 3.58s-1.6 3.59-3.59 3.59ZM157.841 101.338c-1.99 0-3.59-1.61-3.59-3.59 0-1.98 1.6-3.58 3.59-3.58 1.98 0 3.58 1.6 3.58 3.58s-1.6 3.59-3.58 3.59Z" fill="#fff"/></svg>