<svg viewBox="0 0 400 300" fill="none" xmlns="http://www.w3.org/2000/svg"><path d="M200.08 222.18c83.96-.06 152.01-32.36 151.98-72.15-.01-12.5-6.74-24.26-18.58-34.5-9.83-8.51-23.2-15.98-39.17-21.96-25.92-9.71-58.7-15.5-94.33-15.47-83.97.06-152.01 32.36-151.98 72.15.03 39.79 68.11 71.99 152.08 71.93Z" stroke="#31333A" stroke-width="2.126"/><path d="M204.586 234.141c-1.28.01-2.56.02-3.84.02-83.97.07-152.06-32.14-152.09-71.92-.01-10.31 4.55-20.11 12.77-28.98M344.781 139.009a46.93 46.93 0 0 1 4.31 7.31c2.37 5.05 3.63 10.3 3.63 15.69.03 36.68-57.81 67.01-132.64 71.56M296.467 105.515c15.42 5.9 28.34 13.2 37.92 21.49M142.108 94.55c15.48-2.53 41.49-4.97 58.77-4.98 18.54-.01 39.28 2.03 55.71 4.9M73.5 122.377c8.99-6.53 20.14-12.33 32.99-17.17 1.81-.68 3.66-1.35 5.54-1.99" stroke="#31333A" stroke-width="2.126"/><path d="M48.319 149.396c-.03-39.79 68.01-72.09 151.98-72.15 35.63-.03 68.41 5.76 94.33 15.47 15.97 5.98 29.34 13.45 39.18 21.96 11.83 10.24 18.56 22 18.57 34.5.01 6.6-1.86 12.99-5.37 19.07" stroke="#31333A" stroke-width="2.126"/><path fill-rule="evenodd" clip-rule="evenodd" d="m269.542 94.348 11.75 2.55-8.08 8.9-3.67-11.45Z" fill="#5578EC"/><path d="m281.292 96.898-11.75-2.55 3.67 11.45 8.08-8.9Z" stroke="#3351E5" stroke-width="2.126"/><path fill-rule="evenodd" clip-rule="evenodd" d="m66.581 91.823-.19 5.37c-.01.33.14.65.41.85l4.32 3.2c.68.5.49 1.57-.32 1.8l-5.17 1.48a1 1 0 0 0-.68.66l-1.71 5.09c-.27.8-1.34.95-1.81.25l-3.01-4.46c-.19-.28-.5-.44-.83-.45l-5.38-.05c-.84 0-1.31-.98-.79-1.64l3.31-4.24c.2-.26.27-.61.17-.93l-1.62-5.13c-.25-.8.53-1.55 1.32-1.26l5.05 1.84c.32.11.67.06.94-.13l4.38-3.12c.69-.49 1.64.02 1.61.87Z" fill="#fff"/><path d="m66.391 97.193.19-5.37a1.02 1.02 0 0 0-1.61-.87l-4.38 3.12c-.27.19-.62.24-.94.13l-5.05-1.84c-.79-.29-1.57.46-1.32 1.26l1.62 5.13c.1.32.03.67-.17.93l-3.31 4.24c-.52.66-.05 1.64.79 1.64l5.38.05c.33.01.64.17.83.45l3.01 4.46c.47.7 1.54.55 1.81-.25l1.71-5.09a1 1 0 0 1 .68-.66l5.17-1.48c.81-.23 1-1.3.32-1.8l-4.32-3.2c-.27-.2-.42-.52-.41-.85Z" stroke="#31333A" stroke-width="2.126"/><path fill-rule="evenodd" clip-rule="evenodd" d="m70.988 192.671 8.093-2.967-2.967-8.093-8.094 2.967 2.968 8.093Z" fill="#5578EC"/><path d="m77.474 182.244-8.09 2.966 2.235 6.093 8.09-2.966-2.235-6.093Z" stroke="#3351E5" stroke-width="2.126"/><path fill-rule="evenodd" clip-rule="evenodd" d="M334.39 122.001c-2.76 0-5 2.24-5 5s2.24 5 5 5 5-2.24 5-5-2.24-5-5-5Z" fill="#31333A"/><path fill-rule="evenodd" clip-rule="evenodd" d="M285.422 184.002a6.219 6.219 0 0 1 3.19-8.18c3.14-1.37 6.81.06 8.18 3.19 1.38 3.15-.04 6.8-3.19 8.18-3.13 1.38-6.79-.05-8.18-3.19Z" fill="#fff"/><path d="M288.612 175.822a6.219 6.219 0 0 0-3.19 8.18c1.39 3.14 5.05 4.57 8.18 3.19a6.195 6.195 0 0 0 3.19-8.18c-1.37-3.13-5.04-4.56-8.18-3.19Z" stroke="#31333A" stroke-width="2.126"/><path fill-rule="evenodd" clip-rule="evenodd" d="m272.301 177.912-19.14-43.57 28.89-12.7 19.13 43.58-28.88 12.69Z" fill="#fff"/><path d="m253.161 134.342 19.14 43.57 28.88-12.69-19.13-43.58-28.89 12.7Z" stroke="#31333A" stroke-width="2.126"/><path fill-rule="evenodd" clip-rule="evenodd" d="M288.612 175.822a6.219 6.219 0 0 0-3.19 8.18c1.39 3.14 5.05 4.57 8.18 3.19a6.195 6.195 0 0 0 3.19-8.18c-1.37-3.13-5.04-4.56-8.18-3.19Zm-1.181-59.917c-1.14-2.62-4.21-3.81-6.82-2.66l-32.65 14.34a5.188 5.188 0 0 0-2.67 6.84l26.51 60.35a5.173 5.173 0 0 0 6.83 2.66l32.65-14.34a5.176 5.176 0 0 0 2.66-6.84l-26.51-60.35Zm-34.271 18.437 19.14 43.57 28.88-12.69-19.13-43.58-28.89 12.7Z" fill="#AFAEB4"/><path d="M288.612 175.822a6.219 6.219 0 0 0-3.19 8.18c1.39 3.14 5.05 4.57 8.18 3.19a6.195 6.195 0 0 0 3.19-8.18c-1.37-3.13-5.04-4.56-8.18-3.19Zm-1.181-59.917c-1.14-2.62-4.21-3.81-6.82-2.66l-32.65 14.34a5.188 5.188 0 0 0-2.67 6.84l26.51 60.35a5.173 5.173 0 0 0 6.83 2.66l32.65-14.34a5.176 5.176 0 0 0 2.66-6.84l-26.51-60.35Zm-34.271 18.437 19.14 43.57 28.88-12.69-19.13-43.58-28.89 12.7Z" stroke="#31333A" stroke-width="2.126"/><path fill-rule="evenodd" clip-rule="evenodd" d="M121.45 108.769h-17.897c-5.52 0-10-4.48-10-10v-10.21c0-5.52 4.48-10 10-10h30.97c5.52 0 10 4.48 10 10v10.21c0 5.52-4.48 10-10 10h-3.387l-7.806 7.532c-.7.68-1.88.18-1.88-.8v-6.732Z" fill="#fff"/><path d="M121.45 108.769h-17.897c-5.52 0-10-4.48-10-10v-10.21c0-5.52 4.48-10 10-10h30.97c5.52 0 10 4.48 10 10v10.21c0 5.52-4.48 10-10 10h-3.387l-7.806 7.532c-.7.68-1.88.18-1.88-.8v-6.732Z" stroke="#31333A" stroke-width="2.126"/><path fill-rule="evenodd" clip-rule="evenodd" d="m105.355 198.689-16.09-69.76c-1-4.33 2.29-8.47 6.74-8.47h32.57c2.89 0 5.6 1.45 7.2 3.85l2.73 4.09h49.16c4.69 0 8.76 3.25 9.79 7.83l11.34 50.51c1.37 6.13-3.29 11.95-9.57 11.95h-93.87Z" fill="#3351E5"/><path fill-rule="evenodd" clip-rule="evenodd" d="M167.12 66.72c2.91 2.91 4.72 6.93 4.72 11.35V181c0 8.84 7.24 16.07 16.08 16.07h-64.29c8.84 0 16.07-7.23 16.07-16.07V78.07c0-8.84 7.24-16.07 16.07-16.07.62 0 1.24.04 1.84.11 3.69.42 7.01 2.11 9.51 4.61Z" fill="#D7D9DD"/><path fill-rule="evenodd" clip-rule="evenodd" d="M158.679 62.22c-7.65 1.22-13.55 7.87-13.55 15.85V181c0 8.84-7.23 16.07-16.07 16.07h-5.05c8.84 0 16.07-7.23 16.07-16.07V78.07c0-8.84 7.24-16.07 16.07-16.07.62 0 1.24.04 1.84.11.23.03.46.07.69.11Z" fill="#fff"/><path d="M157.61 62.11c-.6-.07-1.22-.11-1.84-.11-8.83 0-16.07 7.23-16.07 16.07V181c0 8.84-7.23 16.07-16.07 16.07h64.29c-8.84 0-16.08-7.23-16.08-16.07V78.07c0-4.42-1.81-8.44-4.72-11.35-2.5-2.5-5.82-4.19-9.51-4.61Z" stroke="#31333A" stroke-width="2.126"/><path fill-rule="evenodd" clip-rule="evenodd" d="M109.853 178.244v-14.46h32.14v14.46c0 8.84-7.23 16.07-16.07 16.07s-16.07-7.23-16.07-16.07Z" fill="#D7D9DD"/><path fill-rule="evenodd" clip-rule="evenodd" d="M109.853 179.164v-14.46h4.59v14.46c0 8.06 6.01 14.76 13.77 15.89-.75.11-1.51.18-2.29.18-8.84 0-16.07-7.23-16.07-16.07Z" fill="#fff"/><path d="M109.853 164.704v14.46c0 8.84 7.23 16.07 16.07 16.07s16.07-7.23 16.07-16.07v-14.46h-32.14ZM109.854 164.704h32.14" stroke="#31333A" stroke-width="2.126"/><path fill-rule="evenodd" clip-rule="evenodd" d="M107.562 169.212v-23.71h32.14v23.71c0 14.49-7.23 26.35-16.07 26.35s-16.07-11.86-16.07-26.35Z" fill="#D7D9DD"/><path fill-rule="evenodd" clip-rule="evenodd" d="M107.562 170.72v-23.71h4.58v23.71c0 13.22 6.02 24.21 13.78 26.05-.75.18-1.51.3-2.29.3-8.84 0-16.07-11.85-16.07-26.35Z" fill="#fff"/><path d="M107.562 147.01v23.71c0 14.5 7.23 26.35 16.07 26.35s16.07-11.85 16.07-26.35v-23.71h-32.14ZM107.561 147.011h32.14" stroke="#31333A" stroke-width="2.126"/><path fill-rule="evenodd" clip-rule="evenodd" d="m120.4 142.615 95.49 1.97-2.86 52.49H112.61l2.57-49.6a5.12 5.12 0 0 1 5.22-4.86Z" fill="#D7D9DD"/><path d="m215.89 144.585-95.49-1.97a5.12 5.12 0 0 0-5.22 4.86l-2.57 49.6h100.42l2.86-52.49Z" stroke="#31333A" stroke-width="2.126"/><path fill-rule="evenodd" clip-rule="evenodd" d="M216.111 192.009a9.329 9.329 0 0 1-8.55 5.62h-100l21.63-50.15h.02l2.74-7.53a6.86 6.86 0 0 1 6.44-4.5h37.83c4.75 0 8.05 4.72 6.43 9.19l-1.04 2.84h39.55c6.69 0 11.2 6.85 8.55 12.99l-13.6 31.54Z" fill="#5578EC"/><path d="M207.561 197.629c3.71 0 7.07-2.21 8.55-5.62l13.6-31.54c2.65-6.14-1.86-12.99-8.55-12.99h-39.55l1.04-2.84c1.62-4.47-1.68-9.19-6.43-9.19h-37.83a6.86 6.86 0 0 0-6.44 4.5l-2.74 7.53h-.02l-21.63 50.15h100Z" stroke="#3351E5" stroke-width="2.126"/><path fill-rule="evenodd" clip-rule="evenodd" d="M213.025 229.164c-2.76 0-5 2.24-5 5s2.24 5 5 5 5-2.24 5-5-2.24-5-5-5Z" fill="#fff"/><path d="M213.025 229.164c-2.76 0-5 2.24-5 5s2.24 5 5 5 5-2.24 5-5-2.24-5-5-5Z" stroke="#31333A" stroke-width="2.126"/><path fill-rule="evenodd" clip-rule="evenodd" d="M159.701 62h71.44c11 0 20 9 20 20v84.54h-47.15V181c0 8.84-7.24 16.07-16.07 16.07-8.84 0-16.08-7.23-16.08-16.07V78.07c0-4.42-1.81-8.44-4.72-11.35-2.5-2.5-5.82-4.19-9.51-4.61.69-.07 1.39-.11 2.09-.11Z" fill="#fff"/><path d="M231.141 62h-71.44c-.7 0-1.4.04-2.09.11 3.69.42 7.01 2.11 9.51 4.61 2.91 2.91 4.72 6.93 4.72 11.35V181c0 8.84 7.24 16.07 16.08 16.07 8.83 0 16.07-7.23 16.07-16.07v-14.46h47.15V82c0-11-9-20-20-20ZM251.141 166.54h32.14" stroke="#31333A" stroke-width="2.126"/><path fill-rule="evenodd" clip-rule="evenodd" d="M213.763 83.245h30.4v-4.33h-30.4v4.33Z" fill="#AFAEB4"/><path fill-rule="evenodd" clip-rule="evenodd" d="M213.763 92.184h30.4v-2.85h-30.4v2.85ZM213.763 99.015h30.4v-2.85h-30.4v2.85Z" fill="#D7D9DD"/><path fill-rule="evenodd" clip-rule="evenodd" d="M182.622 123.483h30.4v-4.33h-30.4v4.33Z" fill="#AFAEB4"/><path fill-rule="evenodd" clip-rule="evenodd" d="M182.622 132.422h30.4v-2.85h-30.4v2.85ZM182.622 139.253h30.4v-2.85h-30.4v2.85ZM194.211 74.006c-7.88 0-14.27 6.39-14.27 14.27 0 7.87 6.39 14.26 14.27 14.26 7.87 0 14.26-6.39 14.26-14.26 0-7.88-6.39-14.27-14.26-14.27Z" fill="#D7D9DD"/><path fill-rule="evenodd" clip-rule="evenodd" d="M185.318 89.458c0-.55.06-1.08.17-1.6 1.11.32 2.26.48 3.42.48 2.5 0 4.77-.73 6.46-1.92.87-.6 1.6-1.37 2.15-2.27l.01-.02c.1-.14.29-.17.43-.08a9.443 9.443 0 0 1 3.78 10.3c-1.64 2.08-4.32 3.44-7.35 3.44-.8 0-1.59-.1-2.33-.28-.11-.02-.23-.05-.34-.09h-.02a9.509 9.509 0 0 1-5.02-3.57c-.02-.02-.03-.05-.05-.07a7.822 7.822 0 0 1-1.31-4.32Z" fill="#fff"/><path d="M185.488 87.858c-.11.52-.17 1.05-.17 1.6 0 1.58.48 3.06 1.31 4.32.02.02.03.05.05.07a9.509 9.509 0 0 0 5.02 3.57h.02c.11.04.23.07.34.09.74.18 1.53.28 2.33.28 3.03 0 5.71-1.36 7.35-3.44a9.443 9.443 0 0 0-3.78-10.3.317.317 0 0 0-.43.08l-.01.02c-.55.9-1.28 1.67-2.15 2.27-1.69 1.19-3.96 1.92-6.46 1.92-1.16 0-2.31-.16-3.42-.48Z" stroke="#31333A" stroke-width="1.417"/><path fill-rule="evenodd" clip-rule="evenodd" d="M198.141 84.347a.534.534 0 0 0-.74.16c-.54.82-1.23 1.52-2.03 2.08-1.69 1.19-3.97 1.92-6.47 1.92-.47 0-.93-.03-1.4-.08-.43 1.18-.65 2.44-.65 3.7 0 .8.09 1.6.26 2.38a9.357 9.357 0 0 1-2.33-6.21c0-.17 0-.33.01-.5-.22-.08-.44-.17-.66-.26-.26-.12-.51-.24-.75-.37a1.111 1.111 0 0 1 .1-1.99c.74-.33 1.53-.58 2.33-.74 2.2-4.55 7.55-6.6 12.23-4.7a9.462 9.462 0 0 1 5.92 8.77c0 2.23-.79 4.4-2.25 6.1a9.44 9.44 0 0 0-3.55-10.24l-.02-.02Z" fill="#31333A"/><path d="M197.401 84.507c.16-.25.49-.32.74-.16l.02.02a9.44 9.44 0 0 1 3.55 10.24 9.363 9.363 0 0 0 2.25-6.1c0-3.86-2.35-7.33-5.92-8.77-4.68-1.9-10.03.15-12.23 4.7-.8.16-1.59.41-2.33.74a1.111 1.111 0 0 0-.1 1.99c.24.13.49.25.75.37.22.09.44.18.66.26-.01.17-.01.33-.01.5-.01 2.28.82 4.49 2.33 6.21-.17-.78-.26-1.58-.26-2.38 0-1.26.22-2.52.65-3.7.47.05.93.08 1.4.08 2.5 0 4.78-.73 6.47-1.92.8-.56 1.49-1.26 2.03-2.08Z" stroke="#31333A" stroke-width=".709"/><path d="M191.712 92.27c0-.45-.37-.81-.82-.81-.45 0-.81.36-.81.81M198.641 92.27c0-.45-.37-.81-.82-.81-.45 0-.81.36-.81.81" stroke="#31333A" stroke-width="1.417"/><path d="M194.398 81.125c-5.02 0-9.08 3.73-9.08 8.33s4.06 8.34 9.08 8.34c5.01 0 9.07-3.74 9.07-8.34s-4.06-8.33-9.07-8.33Z" stroke="#31333A" stroke-width="1.417"/><path fill-rule="evenodd" clip-rule="evenodd" d="M184.921 86.82a1.686 1.686 0 0 0 0 3.37c.93 0 1.69-.76 1.69-1.69 0-.93-.76-1.68-1.69-1.68Z" fill="#31333A"/><path fill-rule="evenodd" clip-rule="evenodd" d="M194.393 96.077c.71 0 1.28-.5 1.28-1.12h-2.56c0 .62.57 1.12 1.28 1.12Z" fill="#fff"/><path d="M194.393 96.077c.71 0 1.28-.5 1.28-1.12h-2.56c0 .62.57 1.12 1.28 1.12Z" stroke="#31333A" stroke-width=".992"/><path fill-rule="evenodd" clip-rule="evenodd" d="M234.888 113.981c-7.88 0-14.27 6.39-14.27 14.27 0 7.87 6.39 14.26 14.27 14.26 7.87 0 14.26-6.39 14.26-14.26 0-7.88-6.39-14.27-14.26-14.27Z" fill="#D7D9DD"/><path fill-rule="evenodd" clip-rule="evenodd" d="M232.375 137.394a9.509 9.509 0 0 1-5.02-3.57c-.02-.02-.03-.05-.05-.07a7.822 7.822 0 0 1-1.31-4.32c0-.55.06-1.08.17-1.6 1.11.32 2.26.48 3.42.48 2.5 0 4.77-.73 6.46-1.92.87-.6 1.6-1.37 2.15-2.27l.01-.02c.1-.14.29-.17.43-.08a9.443 9.443 0 0 1 3.78 10.3c-1.64 2.08-4.32 3.44-7.35 3.44-.8 0-1.59-.09-2.33-.28-.12-.02-.23-.05-.34-.09h-.02Z" fill="#fff"/><path d="M227.355 133.824a9.509 9.509 0 0 0 5.02 3.57h.02c.11.04.22.07.34.09.74.19 1.53.28 2.33.28 3.03 0 5.71-1.36 7.35-3.44a9.443 9.443 0 0 0-3.78-10.3.317.317 0 0 0-.43.08l-.01.02c-.55.9-1.28 1.67-2.15 2.27-1.69 1.19-3.96 1.92-6.46 1.92-1.16 0-2.31-.16-3.42-.48-.11.52-.17 1.05-.17 1.6 0 1.58.48 3.06 1.31 4.32.02.02.03.05.05.07Z" stroke="#31333A" stroke-width=".992"/><path fill-rule="evenodd" clip-rule="evenodd" d="M238.718 119.713a9.462 9.462 0 0 1 5.92 8.77c0 2.23-.79 4.4-2.25 6.1a9.44 9.44 0 0 0-3.55-10.24l-.02-.02a.534.534 0 0 0-.74.16c-.54.82-1.23 1.52-2.03 2.08-1.69 1.19-3.97 1.92-6.47 1.92-.47 0-.94-.03-1.4-.08-.43 1.18-.65 2.44-.65 3.7 0 .8.09 1.6.26 2.38a9.357 9.357 0 0 1-2.33-6.21c0-.17 0-.33.01-.5-.22-.08-.44-.17-.66-.26-.26-.12-.51-.24-.75-.37a1.111 1.111 0 0 1 .1-1.99c.74-.33 1.53-.58 2.33-.74 2.2-4.55 7.55-6.6 12.23-4.7Z" fill="#31333A"/><path d="M244.638 128.483c0-3.86-2.35-7.33-5.92-8.77-4.68-1.9-10.03.15-12.23 4.7-.8.16-1.59.41-2.33.74a1.111 1.111 0 0 0-.1 1.99c.24.13.49.25.75.37.22.09.44.18.66.26-.01.17-.01.33-.01.5-.01 2.28.82 4.49 2.33 6.21-.17-.78-.26-1.58-.26-2.38 0-1.26.22-2.52.65-3.7.46.05.93.08 1.4.08 2.5 0 4.78-.73 6.47-1.92.8-.56 1.49-1.26 2.03-2.08.16-.25.49-.32.74-.16l.02.02a9.44 9.44 0 0 1 3.55 10.24 9.363 9.363 0 0 0 2.25-6.1Z" stroke="#31333A" stroke-width=".709"/><path d="M235.075 121.101c-5.02 0-9.08 3.73-9.08 8.33s4.06 8.34 9.08 8.34c5.01 0 9.07-3.74 9.07-8.34s-4.06-8.33-9.07-8.33Z" stroke="#31333A" stroke-width=".992"/><path fill-rule="evenodd" clip-rule="evenodd" d="M225.598 126.795a1.686 1.686 0 0 0 0 3.37c.93 0 1.69-.76 1.69-1.69 0-.93-.76-1.68-1.69-1.68Z" fill="#31333A"/><path fill-rule="evenodd" clip-rule="evenodd" d="M235.07 136.053c.71 0 1.28-.5 1.28-1.12h-2.56c0 .62.57 1.12 1.28 1.12Z" fill="#fff"/><path d="M235.07 136.053c.71 0 1.28-.5 1.28-1.12h-2.56c0 .62.57 1.12 1.28 1.12Z" stroke="#31333A" stroke-width=".992"/><path fill-rule="evenodd" clip-rule="evenodd" d="M239.315 115.27a3.271 3.271 0 0 0 0 6.54c1.8 0 3.27-1.47 3.27-3.27 0-1.81-1.47-3.27-3.27-3.27Z" fill="#31333A"/><path fill-rule="evenodd" clip-rule="evenodd" d="M231.571 129.534a2.311 2.311 0 0 0 0 4.62c1.27 0 2.31-1.04 2.31-2.31 0-1.28-1.04-2.31-2.31-2.31Z" fill="#fff"/><path d="M231.571 129.534a2.311 2.311 0 0 0 0 4.62c1.27 0 2.31-1.04 2.31-2.31 0-1.28-1.04-2.31-2.31-2.31Z" stroke="#31333A" stroke-width=".992"/><path fill-rule="evenodd" clip-rule="evenodd" d="M238.501 129.534a2.311 2.311 0 0 0 0 4.62c1.27 0 2.31-1.04 2.31-2.31 0-1.28-1.04-2.31-2.31-2.31Z" fill="#fff"/><path d="M238.501 129.534a2.311 2.311 0 0 0 0 4.62c1.27 0 2.31-1.04 2.31-2.31 0-1.28-1.04-2.31-2.31-2.31ZM234.064 131.843c.29-.52 1.69-.49 2.03 0" stroke="#31333A" stroke-width=".992"/><path fill-rule="evenodd" clip-rule="evenodd" d="M231.817 131.462c-.32 0-.59.27-.59.59 0 .33.27.6.59.6.33 0 .6-.27.6-.6a.6.6 0 0 0-.6-.59ZM238.713 131.462c-.32 0-.59.27-.59.59 0 .33.27.6.59.6.33 0 .6-.27.6-.6a.6.6 0 0 0-.6-.59Z" fill="#31333A"/><path fill-rule="evenodd" clip-rule="evenodd" d="M173.325 180.08v-14.46h32.14v14.46c0 8.84-7.23 16.07-16.07 16.07s-16.07-7.23-16.07-16.07Z" fill="#D7D9DD"/><path fill-rule="evenodd" clip-rule="evenodd" d="M173.325 180.08v-14.46h4.59v14.46c0 8.06 6.01 14.76 13.77 15.89-.75.1-1.51.18-2.29.18-8.84 0-16.07-7.23-16.07-16.07Z" fill="#fff"/><path fill-rule="evenodd" clip-rule="evenodd" d="M203.991 181v-14.46h79.29V181c0 8.84-7.23 16.07-16.07 16.07h-79.29c8.83 0 16.07-7.23 16.07-16.07Z" fill="#fff"/><path d="M203.991 166.54V181c0 8.84-7.24 16.07-16.07 16.07h79.29c8.84 0 16.07-7.23 16.07-16.07v-14.46h-79.29Z" stroke="#31333A" stroke-width="2.126"/><path fill-rule="evenodd" clip-rule="evenodd" d="M108.277 91.287c-1.32 0-2.38 1.06-2.38 2.38a2.38 2.38 0 1 0 4.76 0 2.38 2.38 0 0 0-2.38-2.38Z" fill="#fff"/><path d="M108.277 91.287c-1.32 0-2.38 1.06-2.38 2.38a2.38 2.38 0 1 0 4.76 0 2.38 2.38 0 0 0-2.38-2.38Z" stroke="#31333A" stroke-width="1.417"/><path fill-rule="evenodd" clip-rule="evenodd" d="M119.036 91.287c-1.32 0-2.38 1.06-2.38 2.38a2.38 2.38 0 1 0 4.76 0 2.38 2.38 0 0 0-2.38-2.38Z" fill="#fff"/><path d="M119.036 91.287c-1.32 0-2.38 1.06-2.38 2.38a2.38 2.38 0 1 0 4.76 0 2.38 2.38 0 0 0-2.38-2.38Z" stroke="#31333A" stroke-width="1.417"/><path fill-rule="evenodd" clip-rule="evenodd" d="M129.795 91.287c-1.32 0-2.38 1.06-2.38 2.38a2.38 2.38 0 1 0 4.76 0 2.38 2.38 0 0 0-2.38-2.38Z" fill="#fff"/><path d="M129.795 91.287c-1.32 0-2.38 1.06-2.38 2.38a2.38 2.38 0 1 0 4.76 0 2.38 2.38 0 0 0-2.38-2.38Z" stroke="#31333A" stroke-width="1.417"/></svg>