<svg viewBox="0 0 400 300" fill="none" xmlns="http://www.w3.org/2000/svg"><path d="M200.682 101.589c-83.96 0-152.03 32.25-152.03 72.04 0 12.5 6.72 24.26 18.55 34.51 9.83 8.52 23.19 16 39.16 21.99 25.91 9.73 58.69 15.54 94.32 15.54 83.97 0 152.03-32.25 152.03-72.04 0-39.79-68.06-72.04-152.03-72.04Z" stroke="#31333A" stroke-width="2.126"/><path d="M196.192 89.626c1.28-.01 2.56-.02 3.84-.02 83.97 0 152.03 32.249 152.03 72.039 0 10.3-4.56 20.1-12.79 28.97M55.92 184.653c-1.7-2.38-3.14-4.83-4.3-7.31-2.37-5.06-3.62-10.31-3.62-15.7 0-36.68 57.86-66.96 132.69-71.46" stroke="#31333A" stroke-width="2.126"/><path fill-rule="evenodd" clip-rule="evenodd" d="M147.693 88.838c-2.76 0-5 2.24-5 5s2.24 5 5 5 5-2.24 5-5-2.24-5-5-5Z" fill="#fff"/><path d="M147.693 88.838c-2.76 0-5 2.24-5 5s2.24 5 5 5 5-2.24 5-5-2.24-5-5-5Z" stroke="#31333A" stroke-width="2.126"/><path fill-rule="evenodd" clip-rule="evenodd" d="m67.881 161.985 1.52 5.48c1.04 3.75 3.28 6.45 6.73 8.12 3.45 1.66 7.42 1.87 11.89.63 4.44-1.23 7.7-3.44 9.78-6.64 2.08-3.19 2.6-6.66 1.57-10.41l-1.52-5.48c-1.04-3.73-3.28-6.44-6.73-8.11-3.46-1.67-7.39-1.89-11.82-.66-4.46 1.23-7.73 3.45-9.83 6.66-2.09 3.21-2.62 6.68-1.59 10.41Zm23.32-.559-1.53-5.52c-.6-2.17-1.69-3.79-3.26-4.86-1.57-1.06-3.44-1.3-5.6-.7-2.22.62-3.72 1.78-4.5 3.49-.79 1.71-.88 3.66-.28 5.85l1.53 5.52c.61 2.2 1.7 3.83 3.28 4.9 1.57 1.06 3.46 1.29 5.68.68 2.14-.6 3.61-1.76 4.41-3.48.79-1.72.88-3.68.27-5.88ZM110.875 149.468l1.69-.46 4.67-14.13 10.3-2.85-7.26 16.91 16.63 13.27-10.51 2.91-11.5-9.96-2.27.63 3.38 12.21-8.19 2.27-8.43-30.45 8.19-2.26 3.3 11.91Z" fill="#31333A"/><path d="M111.785 220.908c-2.15-.72-4.25-1.48-6.32-2.25-.42-.16-.84-.32-1.25-.48-15.42-5.9-28.34-13.21-37.91-21.51M258.565 229.26c-15.48 2.52-41.49 4.94-58.78 4.94-18.54 0-39.27-2.06-55.7-4.94M327.192 201.483c-8.99 6.53-20.15 12.32-33 17.15-1.82.68-3.66 1.34-5.54 1.98" stroke="#31333A" stroke-width="2.126"/><path d="M352.392 174.486c0 39.79-68.06 72.04-152.03 72.04-35.63 0-68.41-5.81-94.32-15.54-15.97-5.99-29.33-13.47-39.16-21.99-11.83-10.25-18.55-22.01-18.55-34.51 0-6.6 1.87-13 5.38-19.07" stroke="#31333A" stroke-width="2.126"/><path fill-rule="evenodd" clip-rule="evenodd" d="m132.277 232.801-11.75-2.56 8.09-8.9 3.66 11.46Z" fill="#5578EC"/><path d="m120.527 230.241 11.75 2.56-3.66-11.46-8.09 8.9Z" stroke="#3351E5" stroke-width="2.126"/><path fill-rule="evenodd" clip-rule="evenodd" d="M319.154 192.154c-.83.19-1.51-.64-1.17-1.41l2.21-4.9c.14-.31.12-.66-.06-.95l-2.78-4.59c-.44-.73.14-1.64.98-1.54l5.34.58c.34.04.67-.09.89-.35l3.51-4.07c.55-.64 1.59-.36 1.77.46l1.09 5.26c.07.33.29.61.6.74l4.96 2.08c.78.32.84 1.4.11 1.82l-4.67 2.67c-.29.17-.48.46-.51.8l-.44 5.35c-.07.85-1.08 1.24-1.7.67l-3.98-3.61c-.25-.23-.59-.31-.92-.24l-5.23 1.23Z" fill="#31333A"/><path d="m299.106 158.093 1.86 3.33c.3.52 1.06.48 1.3-.07l1.51-3.51c.09-.22.29-.38.52-.42l3.74-.75c.59-.12.79-.86.34-1.25l-2.87-2.52a.716.716 0 0 1-.24-.63l.44-3.79c.08-.6-.57-1.01-1.08-.71l-3.29 1.95c-.2.13-.45.14-.67.04l-3.47-1.6a.72.72 0 0 0-1 .82l.84 3.72a.7.7 0 0 1-.18.65l-2.59 2.81c-.4.44-.13 1.16.47 1.21l3.8.35c.24.02.45.16.57.37Z" stroke="#31333A" stroke-width="1.5"/><path fill-rule="evenodd" clip-rule="evenodd" d="m303.998 115.614 8.095-2.962-2.962-8.095-8.095 2.962 2.962 8.095Z" fill="#5578EC"/><path d="m310.491 105.192-8.092 2.96 2.23 6.095 8.092-2.96-2.23-6.095Z" stroke="#3351E5" stroke-width="2.126"/><path fill-rule="evenodd" clip-rule="evenodd" d="M62.384 183.657c-2.76 0-5 2.24-5 5s2.24 5 5 5 5-2.24 5-5-2.24-5-5-5Z" fill="#31333A"/><path fill-rule="evenodd" clip-rule="evenodd" d="M100.73 114.323c-2.76 0-5 2.24-5 5s2.24 5 5 5 5-2.24 5-5-2.24-5-5-5Z" fill="#fff"/><path d="M100.73 114.323c-2.76 0-5 2.24-5 5s2.24 5 5 5 5-2.24 5-5-2.24-5-5-5Z" stroke="#31333A" stroke-width="2.126"/><path fill-rule="evenodd" clip-rule="evenodd" d="M276.508 211.485c0 4.94-4 8.94-8.94 8.94h-129.44c-4.95 0-8.95-4-8.95-8.94v-130.7c0-4.94 4-8.95 8.95-8.95h113.92c2.87 0 5.63 1.14 7.66 3.17l13.63 13.63a10.84 10.84 0 0 1 3.17 7.66v115.19Z" fill="#DCDDDD"/><path d="M267.568 220.425c4.94 0 8.94-4 8.94-8.94V96.295c0-2.87-1.14-5.63-3.17-7.66l-13.63-13.63a10.84 10.84 0 0 0-7.66-3.17h-113.92c-4.95 0-8.95 4.01-8.95 8.95v130.7c0 4.94 4 8.94 8.95 8.94h129.44Z" stroke="#31333A" stroke-width="2.126"/><path fill-rule="evenodd" clip-rule="evenodd" d="M161.189 221.032h83.31v-68.69c0-3.02-1.2-5.91-3.33-8.05a11.409 11.409 0 0 0-8.05-3.33h-63.18c-4.83 0-8.75 3.92-8.75 8.75v71.32Z" fill="#fff"/><path d="M243.436 142.025h-81.184v77.943h81.184v-77.943Z" stroke="#31333A" stroke-width="2.126"/><path fill-rule="evenodd" clip-rule="evenodd" d="M166.699 118.15h72.29c1.46 0 2.87-.58 3.9-1.62a5.526 5.526 0 0 0 1.61-3.9V74.07c0-3.04-2.47-5.51-5.51-5.51h-72.29c-3.04 0-5.51 2.47-5.51 5.51v38.56c0 1.46.58 2.87 1.61 3.9a5.493 5.493 0 0 0 3.9 1.62Z" fill="#5578EC"/><path d="M245.562 69.622h-83.31v47.461h83.31v-47.46Z" stroke="#3351E5" stroke-width="2.126"/><path fill-rule="evenodd" clip-rule="evenodd" d="M215.055 107.254h14.85c1.93 0 3.5-1.57 3.5-3.5v-22.12c0-1.93-1.57-3.5-3.5-3.5h-14.85c-1.93 0-3.5 1.57-3.5 3.5v22.12c0 1.93 1.57 3.5 3.5 3.5Z" fill="#3351E5"/><path fill-rule="evenodd" clip-rule="evenodd" d="M242.223 200.695c-3.675 13.872 4.529 28.077 18.333 31.735 13.794 3.656 27.957-4.622 31.633-18.494 3.676-13.871-4.529-28.076-18.323-31.732-13.804-3.658-27.967 4.62-31.643 18.491Z" fill="#5578EC"/><path d="M242.223 200.695c-3.675 13.872 4.529 28.077 18.333 31.735 13.794 3.656 27.957-4.622 31.633-18.494 3.676-13.871-4.529-28.076-18.323-31.732-13.804-3.658-27.967 4.62-31.643 18.491Z" stroke="#3351E5" stroke-width="2.126"/><path d="m280.495 199.851-16.38 16.64-9.34-9.33" stroke="#fff" stroke-width="7.087"/><path fill-rule="evenodd" clip-rule="evenodd" d="M211.407 161.419c.26-.32.73-.37 1.05-.11a23.071 23.071 0 0 1 7.4 25.77c-4.39 4.8-11.16 7.63-18.53 7.09-1.98-.14-3.87-.52-5.65-1.09-.27-.09-.54-.19-.81-.28a.142.142 0 0 0-.06-.02 23.237 23.237 0 0 1-11.59-9.6c-.04-.05-.07-.11-.11-.17-1.8-3.23-2.71-6.92-2.43-10.78.1-1.33.33-2.62.7-3.86 2.64.98 5.42 1.58 8.24 1.77 6.11.45 11.79-.93 16.11-3.53 2.23-1.3 4.15-3.05 5.65-5.15.01-.01.02-.03.03-.04Z" fill="#fff"/><path d="M212.457 161.309a.747.747 0 0 0-1.05.11c-.01.01-.02.03-.03.04-1.5 2.1-3.42 3.85-5.65 5.15-4.32 2.6-10 3.98-16.11 3.53-2.82-.19-5.6-.79-8.24-1.77-.37 1.24-.6 2.53-.7 3.86-.28 3.86.63 7.55 2.43 10.78.04.06.07.12.11.17 2.65 4.33 6.7 7.75 11.59 9.6.02 0 .04.01.06.02.27.09.54.19.81.28 1.78.57 3.67.95 5.65 1.09 7.37.54 14.14-2.29 18.53-7.09 3.29-9.28.32-19.64-7.4-25.77Z" stroke="#31333A" stroke-width=".992"/><path fill-rule="evenodd" clip-rule="evenodd" d="M189.589 170.541a29.82 29.82 0 0 1-3.4-.44 26.282 26.282 0 0 0-2.25 8.92c-.14 1.95-.07 3.91.21 5.84a22.988 22.988 0 0 1-4.58-15.55c.03-.41.07-.82.12-1.22-.53-.24-1.05-.49-1.55-.76-.62-.32-1.21-.67-1.78-1.03a2.79 2.79 0 0 1-1.07-1.37c-.49-1.41.25-2.96 1.66-3.46a27.26 27.26 0 0 1 5.82-1.39c6.18-10.7 19.6-14.76 30.67-9.29a23.163 23.163 0 0 1 12.88 22.44c-.4 5.46-2.73 10.6-6.57 14.49 3.34-9.12.61-19.37-6.84-25.62a.265.265 0 0 1-.06-.05c-.58-.43-1.4-.31-1.83.27a18.658 18.658 0 0 1-5.32 4.69c-4.33 2.6-10.01 3.98-16.11 3.53Z" fill="#31333A"/><path d="M186.189 170.101c1.12.21 2.26.36 3.4.44 6.1.45 11.78-.93 16.11-3.53 2.06-1.21 3.86-2.8 5.32-4.69.43-.58 1.25-.7 1.83-.27.02.02.04.04.06.05a23.086 23.086 0 0 1 6.84 25.62c3.84-3.89 6.17-9.03 6.57-14.49.67-9.41-4.42-18.28-12.88-22.44-11.07-5.47-24.49-1.41-30.67 9.29-1.98.25-3.93.71-5.82 1.39-1.41.5-2.15 2.05-1.66 3.46.2.56.58 1.04 1.07 1.37.57.36 1.16.71 1.78 1.03.5.27 1.02.52 1.55.76-.05.4-.09.81-.12 1.22a22.988 22.988 0 0 0 4.58 15.55c-.28-1.93-.35-3.89-.21-5.84.22-3.08.98-6.1 2.25-8.92Z" stroke="#31333A"/><path d="M196.914 180.057a2.28 2.28 0 1 0-4.56-.18M211.251 180.057a2.28 2.28 0 1 0-4.56-.18" stroke="#31333A" stroke-width="2.126"/><path d="M180.677 172.238c-.82 11.22 8.419 21.039 20.646 21.933 12.218.893 22.796-7.478 23.616-18.699.821-11.23-8.428-21.05-20.646-21.943-12.227-.893-22.795 7.479-23.616 18.709Z" stroke="#31333A" stroke-width="2.126"/><path fill-rule="evenodd" clip-rule="evenodd" d="M183.94 214.027h37.81a2.285 2.285 0 0 0 2.29-2.29 2.285 2.285 0 0 0-2.29-2.29h-37.81a2.285 2.285 0 0 0-2.29 2.29 2.285 2.285 0 0 0 2.29 2.29ZM188.695 205.887h28.94a2.285 2.285 0 0 0 2.29-2.29 2.285 2.285 0 0 0-2.29-2.29h-28.94a2.285 2.285 0 0 0-2.29 2.29 2.285 2.285 0 0 0 2.29 2.29Z" fill="#DCDDDD"/><path d="m288.013 87.17 8.38-5.73M278.813 72.25l6.25-8M265.254 64.14l.51-10.14" stroke="#31333A" stroke-width="2"/></svg>