<svg viewBox="0 0 400 300" fill="none" xmlns="http://www.w3.org/2000/svg"><path d="M237.425 163.033c2.78 4.35 5.9 8.5 9.31 12.38.25.28.57.59.94.51.18-.04.34-.17.48-.3 6.5-6.1 10.57-14.73 11.14-23.63" stroke="#31333A" stroke-width="2"/><path fill-rule="evenodd" clip-rule="evenodd" d="M287.567 136.77c-4.69 0-8.5 3.81-8.5 8.5 0 4.69 3.81 8.5 8.5 8.5 4.69 0 8.5-3.81 8.5-8.5 0-4.69-3.81-8.5-8.5-8.5Z" fill="#fff"/><path d="M287.567 136.77c-4.69 0-8.5 3.81-8.5 8.5 0 4.69 3.81 8.5 8.5 8.5 4.69 0 8.5-3.81 8.5-8.5 0-4.69-3.81-8.5-8.5-8.5Z" stroke="#31333A" stroke-width="2.126"/><path fill-rule="evenodd" clip-rule="evenodd" d="m223.425 155.914 1.987 2.234a9.5 9.5 0 0 0 6.542 3.175 9.504 9.504 0 0 0 6.87-2.387l5.657-5.029a9.503 9.503 0 0 0 3.175-6.543 9.5 9.5 0 0 0-2.387-6.869l-1.986-2.235a9.512 9.512 0 0 0-6.543-3.175 9.505 9.505 0 0 0-6.869 2.387l-5.658 5.03a9.507 9.507 0 0 0-3.175 6.542 9.509 9.509 0 0 0 2.387 6.87Z" fill="#fff"/><path d="m251.492 149.095-14.609-16.434-18.268 16.241 14.609 16.433 18.268-16.24ZM110.793 144.935c20.24-12.01 44.85-22.38 72.13-29.69 8.69-2.33 17.29-4.25 25.74-5.78M64.555 193.756c5.94-12.41 16.52-25.16 30.74-37.28M250.162 244.795c-10.23 3.96-18.69 6.6-29.95 9.62-34.41 9.22-67.58 12.09-95.12 9.4-2.56-.25-5.06-.54-7.51-.89-13.86-1.93-26.07-5.38-36.01-10.21-5.35-2.6-10.04-5.6-13.98-8.98M349.571 152.875c.14 2.84-.06 5.71-.57 8.62-1.04 5.91-3.4 11.94-6.93 17.97-4.39 7.47-10.58 14.93-18.33 22.17-14.45 13.5-33.19 25.72-56.76 36.22" stroke="#31333A" stroke-width="2.126"/><path d="M48.105 195.223c5-35.44 57.9-75.28 129.01-94.34 81.11-21.73 155.2-8.2 165.5 30.24 4.75 17.73-4.91 37.68-24.68 56.15-23.05 21.54-59.85 41.08-103.53 52.78-34.41 9.22-67.58 12.1-95.13 9.4-2.55-.25-5.05-.54-7.5-.88-13.87-1.94-26.07-5.39-36.01-10.22-5.61-2.73-10.5-5.89-14.56-9.48" stroke="#31333A" stroke-width="2.126"/><path d="M131.278 235.037c-10.28-.44-19.23-1.84-26.43-4.14-10.19-3.27-16.85-8.36-18.68-15.17-1.85-6.91 1.48-14.76 8.86-22.78M250.633 112.455c38.88-2.6 68.36 5.81 73.07 23.4 3.05 11.39-4.81 24.64-20.24 37.24" stroke="#000" stroke-width="2.126"/><path fill-rule="evenodd" clip-rule="evenodd" d="m135.617 84.62 17.866-4.876c4.833-1.32 7.691-6.308 6.372-11.14a9.084 9.084 0 0 0-11.151-6.37l-17.866 4.877a9.081 9.081 0 0 0-6.369 11.15c1.319 4.834 6.315 7.679 11.148 6.36Z" fill="#31333A"/><path fill-rule="evenodd" clip-rule="evenodd" d="m141.33 230.796 82.936-22.638a15.785 15.785 0 0 0 9.55-7.395 15.747 15.747 0 0 0 1.521-11.973L204.998 77.636a15.751 15.751 0 0 0-7.393-9.54 15.79 15.79 0 0 0-11.983-1.519l-82.936 22.638c-8.403 2.293-13.354 10.963-11.06 19.366l30.338 111.154c2.294 8.402 10.964 13.354 19.366 11.061Z" fill="#DCDDDD"/><path d="M202.15 63.168 88.778 94.112l38.085 139.53 113.371-30.945-38.084-139.53Z" stroke="#31333A" stroke-width="2.126"/><path fill-rule="evenodd" clip-rule="evenodd" d="m137.105 221.739 86.216-23.533a6.987 6.987 0 0 0 4.896-8.572L197.97 78.818a6.987 6.987 0 0 0-8.572-4.895l-86.216 23.532a6.987 6.987 0 0 0-4.896 8.572l30.247 110.816a6.988 6.988 0 0 0 8.572 4.896Z" fill="#DCDDDD"/><path fill-rule="evenodd" clip-rule="evenodd" d="M216.986 155.944c4.2 20.84-7.88 41.66-28.16 48.28 3.16-2.39 7.05-6.72 4.98-12.63-.848-2.414-2.438-5.138-4.014-7.837-4.54-7.778-8.964-15.357 4.814-14.763 17.3.75 21.84-11.39 22.38-13.05Z" fill="#DCDDDD"/><path fill-rule="evenodd" clip-rule="evenodd" d="M214.756 154.671c4.2 20.84-7.88 41.66-28.16 48.29 3.16-2.4 7.05-6.73 4.98-12.64-.849-2.411-2.437-5.13-4.011-7.826-4.544-7.782-8.974-15.368 4.811-14.774 17.3.75 21.84-11.39 22.38-13.05Z" fill="#DCDDDD"/><path fill-rule="evenodd" clip-rule="evenodd" d="m186.805 204.829-51.81 14.15c-2.64.72-5.35-.84-6.07-3.47l-30.47-111.64c-.72-2.63.83-5.35 3.46-6.07l87.66-23.92c2.63-.72 5.35.83 6.06 3.46l20.7 75.81c.25.93.46 1.86.65 2.79-.098.303.03.972.205 1.884.791 4.129 2.536 13.238-11.405 15.826-12.349 2.29-11.641 5.149-10.326 10.463.471 1.902 1.02 4.119 1.076 6.737.13 5.84-4.55 10.98-7.71 13.38-.67.22-1.34.42-2.02.6Z" fill="#fff"/><path fill-rule="evenodd" clip-rule="evenodd" d="m123.701 97.121 48.072-13.12a5.574 5.574 0 0 0 3.916-6.844l-1.843-6.752a5.62 5.62 0 0 0-2.613-3.382 5.617 5.617 0 0 0-4.239-.532l-48.072 13.12a5.617 5.617 0 0 0-3.381 2.613 5.622 5.622 0 0 0-.533 4.24l1.844 6.753a5.573 5.573 0 0 0 6.849 3.904Z" fill="#31333A"/><path fill-rule="evenodd" clip-rule="evenodd" d="m224.14 175.638-6.3-3.99-3.29-2.1a5.53 5.53 0 0 0-7.78.83c-1.92 2.38-1.55 5.87.83 7.78l12.31 9.93a5.539 5.539 0 0 0 6.19.51l-1.96-12.96Z" fill="#fff"/><path d="m224.14 175.638-6.3-3.99-3.29-2.1a5.53 5.53 0 0 0-7.78.83c-1.92 2.38-1.55 5.87.83 7.78l12.31 9.93a5.539 5.539 0 0 0 6.19.51l-1.96-12.96Z" stroke="#31333A" stroke-width="2.126"/><path fill-rule="evenodd" clip-rule="evenodd" d="M218.023 141.076a49.553 49.553 0 0 1-11.28-30.05c-.01-.15-.01-.29-.01-.44.07-7.88 2.31-15.68 6.92-22.52 1.59-2.36 3.4-4.5 5.39-6.42 3.86 4.63 8.37 8.68 13.38 12.03 10.83 7.3 22.79 10.78 33.56 10.55 5.5-.05 10.92-1.26 15.92-3.54.03-.02.06-.03.1-.05.81-.32 1.74.08 2.06.9 7.79 19.55 2.3 41.86-13.63 55.56-13.21 4.22-28.75 2.29-41.83-6.53a51.913 51.913 0 0 1-9.29-8.02c-.41-.45-.81-.91-1.2-1.37-.03-.03-.06-.07-.09-.1Z" fill="#fff"/><path d="M206.743 111.026a49.553 49.553 0 0 0 11.28 30.05c.03.03.06.07.09.1.39.46.79.92 1.2 1.37 2.7 2.96 5.8 5.66 9.29 8.02 13.08 8.82 28.62 10.75 41.83 6.53 15.93-13.7 21.42-36.01 13.63-55.56a1.59 1.59 0 0 0-2.06-.9c-.04.02-.07.03-.1.05-5 2.28-10.42 3.49-15.92 3.54-10.77.23-22.73-3.25-33.56-10.55-5.01-3.35-9.52-7.4-13.38-12.03-1.99 1.92-3.8 4.06-5.39 6.42-4.61 6.84-6.85 14.64-6.92 22.52 0 .15 0 .29.01.44Z" stroke="#31333A" stroke-width="2.126"/><path fill-rule="evenodd" clip-rule="evenodd" d="M265.5 104.941c-10.77.23-22.73-3.25-33.56-10.55a67.742 67.742 0 0 1-5.83-4.43 56.116 56.116 0 0 0-13.61 14.14 57.13 57.13 0 0 0-5.81 11.02 49.025 49.025 0 0 1 8.02-33.64c.48-.73 1-1.43 1.52-2.13-.73-1-1.43-2.02-2.08-3.04-.79-1.26-1.52-2.52-2.19-3.8a5.789 5.789 0 0 1 6.21-8.31c4.2.75 8.31 1.95 12.25 3.6 22.77-13.26 51.92-6.55 66.62 15.32 11.23 16.67 11.25 38.49.03 55.18a48.994 48.994 0 0 1-27.53 19.87c15.86-13.36 21.66-35.21 14.52-54.67l-.06-.15a2.804 2.804 0 0 0-3.68-1.46c-4.7 1.96-9.73 2.99-14.82 3.05Z" fill="#31333A"/><path d="M231.94 94.39c10.83 7.301 22.79 10.781 33.56 10.551 5.09-.06 10.12-1.09 14.82-3.05 1.42-.61 3.06.04 3.68 1.46l.06.15c7.14 19.46 1.34 41.31-14.52 54.67a48.994 48.994 0 0 0 27.53-19.87c11.22-16.69 11.2-38.51-.03-55.18-14.7-21.87-43.85-28.58-66.62-15.32a58.183 58.183 0 0 0-12.25-3.6 5.789 5.789 0 0 0-6.21 8.31c.67 1.28 1.4 2.54 2.19 3.8.65 1.02 1.35 2.04 2.08 3.04-.52.7-1.04 1.4-1.52 2.13a49.025 49.025 0 0 0-8.02 33.64 57.13 57.13 0 0 1 5.81-11.02 56.116 56.116 0 0 1 13.61-14.14c1.86 1.58 3.81 3.06 5.83 4.43Z" stroke="#31333A"/><path d="M230.537 141.219c-1.308 1.94-1.309 4.231-.007 5.109 1.31.883 3.434.023 4.742-1.917 1.308-1.941 1.303-4.223-.007-5.106-1.302-.878-3.42-.026-4.728 1.914Z" stroke="#31333A" stroke-width="2.126"/><path d="M235.053 116.557a4.23 4.23 0 0 0-.83-5.93 4.238 4.238 0 0 0-5.93.82M263.891 138.349a4.23 4.23 0 0 0-.83-5.93 4.238 4.238 0 0 0-5.93.82" stroke="#31333A" stroke-width="2.835"/><path d="M213.653 88.07c-13.416 19.9-6.725 47.881 14.95 62.493 21.674 14.613 50.13 10.329 63.547-9.571 13.416-19.9 6.716-47.887-14.958-62.5-21.674-14.612-50.123-10.322-63.539 9.578Z" stroke="#31333A" stroke-width="2.126"/><path d="m241.211 126.003-2.67 2.49c-.77.72-1.58 1.5-1.82 2.53-.24 1.02.39 2.32 1.44 2.36" stroke="#31333A" stroke-width="2"/><path fill-rule="evenodd" clip-rule="evenodd" d="m155.113 196.911 34.488-9.413a3.002 3.002 0 0 0 .697-5.498 2.999 2.999 0 0 0-2.277-.29l-34.488 9.413a3.002 3.002 0 0 0-.697 5.498 2.998 2.998 0 0 0 2.277.29Z" fill="#DCDDDD"/><path fill-rule="evenodd" clip-rule="evenodd" d="M258.684 235.474c-2.76 0-5 2.24-5 5s2.24 5 5 5 5-2.24 5-5-2.24-5-5-5Z" fill="#31333A"/><path fill-rule="evenodd" clip-rule="evenodd" d="m326.095 80.864-8.7 10.79-4.99-12.93 13.69 2.14Z" fill="#5578EC"/><path d="m317.395 91.654 8.7-10.79-13.69-2.14 4.99 12.93Z" stroke="#3351E5" stroke-width="2.126"/><path fill-rule="evenodd" clip-rule="evenodd" d="M343.807 133.349c-2.76 0-5 2.24-5 5s2.24 5 5 5 5-2.24 5-5-2.24-5-5-5Z" fill="#fff"/><path d="M343.807 133.349c-2.76 0-5 2.24-5 5s2.24 5 5 5 5-2.24 5-5-2.24-5-5-5Z" stroke="#31333A" stroke-width="2.126"/><path fill-rule="evenodd" clip-rule="evenodd" d="M53.36 225.218c-.17 1.13-1.55 1.57-2.35.75l-5.03-5.22c-.32-.33-.77-.48-1.22-.41l-7.16 1.19c-1.12.19-1.97-1-1.44-2l3.42-6.41c.21-.4.21-.88 0-1.28l-3.34-6.44c-.52-1.01.34-2.18 1.46-1.99l7.15 1.27c.44.08.9-.07 1.22-.39l5.09-5.17c.8-.81 2.18-.35 2.34.78l1.01 7.18c.06.45.34.84.74 1.04l6.49 3.25c1.02.51 1.01 1.97-.01 2.47l-6.52 3.17c-.41.2-.7.59-.76 1.03l-1.09 7.18Z" fill="#fff"/><path d="M51.01 225.968c.8.82 2.18.38 2.35-.75l1.09-7.18c.06-.44.35-.83.76-1.03l6.52-3.17c1.02-.5 1.03-1.96.01-2.47l-6.49-3.25c-.4-.2-.68-.59-.74-1.04l-1.01-7.18c-.16-1.13-1.54-1.59-2.34-.78l-5.09 5.17c-.32.32-.78.47-1.22.39l-7.15-1.27c-1.12-.19-1.98.98-1.46 1.99l3.34 6.44c.21.4.21.88 0 1.28l-3.42 6.41c-.53 1 .32 2.19 1.44 2l7.16-1.19c.45-.07.9.08 1.22.41l5.03 5.22Z" stroke="#31333A" stroke-width="2.126"/><path fill-rule="evenodd" clip-rule="evenodd" d="m88.68 218.213 3.418-7.913-7.912-3.419-3.42 7.913 7.914 3.419Z" fill="#5578EC"/><path d="m85.581 206.331-3.417 7.909 5.958 2.574 3.417-7.909-5.958-2.574Z" stroke="#3351E5" stroke-width="2.126"/><path fill-rule="evenodd" clip-rule="evenodd" d="M157.994 104.539c-18.89 0-34.21 15.4-34.21 34.39 0 18.99 15.32 34.38 34.21 34.38s34.21-15.39 34.21-34.38c0-18.99-15.32-34.39-34.21-34.39Z" fill="#5578EC"/><path d="M157.994 104.539c-18.89 0-34.21 15.4-34.21 34.39 0 18.99 15.32 34.38 34.21 34.38s34.21-15.39 34.21-34.38c0-18.99-15.32-34.39-34.21-34.39Z" stroke="#3351E5" stroke-width="2.126"/><path d="m175.581 120.761-17.7 31.04-17.48-10.14" stroke="#fff" stroke-width="7.087"/><path fill-rule="evenodd" clip-rule="evenodd" d="m172.471 179.747 7.38-18.03 67.3 28.18-1.57 3.83-5.81 14.18-67.3-28.16Z" fill="#5578EC"/><path d="m179.851 161.717-7.38 18.03 67.3 28.16 5.81-14.18 1.57-3.83-67.3-28.18Z" stroke="#3351E5" stroke-width="2.126"/><path fill-rule="evenodd" clip-rule="evenodd" d="m244.697 195.949-2.47 6-67.27-28.24 2.46-6 67.28 28.24Z" fill="#3351E5"/><path fill-rule="evenodd" clip-rule="evenodd" d="m179.151 161.459-7.37 18.02-7.8-10.61 2.21-5.41 12.96-2Z" fill="#DCDDDD"/><path d="m171.781 179.479 7.37-18.02-12.96 2-2.21 5.41 7.8 10.61Z" stroke="#3351E5" stroke-width="2.126"/><path fill-rule="evenodd" clip-rule="evenodd" d="m160.733 164.395 5.56-.86-2.22 5.41-3.34-4.55Z" fill="#fff"/><path d="m166.293 163.535-5.56.86 3.34 4.55 2.22-5.41Z" stroke="#3351E5" stroke-width="2.126"/><path d="M245.041 230.179c-1.85-.7-3.61-1.44-5.25-2.19-6.47-2.93-11.12-5.93-12.57-6.84M278.807 155.591c2.9-1.1 6.11.83 8.23 2.94 5.26 5.25 16.29 23.35 16.7 40.47M247.789 184.796c5.81 4.32 12.47 7.5 19.48 9.31" stroke="#31333A" stroke-width="2"/><path fill-rule="evenodd" clip-rule="evenodd" d="M103.34 85.942c2.95.5 4.94 3.31 4.44 6.26l-1.98 11.579a5.43 5.43 0 0 1-5.34 4.52c-.31 0-.61-.03-.92-.08a5.419 5.419 0 0 1-4.44-6.26l1.98-11.59c.5-2.95 3.3-4.93 6.26-4.43Z" fill="#fff"/><path d="M107.78 92.201c.5-2.95-1.49-5.76-4.44-6.26-2.96-.5-5.76 1.48-6.26 4.43l-1.98 11.59a5.419 5.419 0 0 0 4.44 6.26c.31.05.61.08.92.08a5.43 5.43 0 0 0 5.34-4.52l1.98-11.58Z" stroke="#31333A" stroke-width="2.126"/><path fill-rule="evenodd" clip-rule="evenodd" d="M114.082 85.293c2.77.48 4.64 3.1 4.16 5.87l-1.85 10.85a5.09 5.09 0 0 1-5.01 4.24c-.28 0-.57-.03-.86-.08a5.087 5.087 0 0 1-4.16-5.87l1.86-10.85c.47-2.77 3.1-4.63 5.86-4.16Z" fill="#fff"/><path d="M118.242 91.163a5.083 5.083 0 1 0-10.02-1.71l-1.86 10.85a5.087 5.087 0 0 0 4.16 5.87c.29.05.58.08.86.08a5.09 5.09 0 0 0 5.01-4.24l1.85-10.85Z" stroke="#31333A" stroke-width="2.126"/><path fill-rule="evenodd" clip-rule="evenodd" d="M92.748 85.293c2.77.48 4.64 3.1 4.16 5.87l-1.85 10.85a5.09 5.09 0 0 1-5.01 4.24c-.28 0-.57-.03-.86-.08a5.087 5.087 0 0 1-4.16-5.87l1.86-10.85c.47-2.77 3.1-4.63 5.86-4.16Z" fill="#fff"/><path d="M96.908 91.163a5.083 5.083 0 1 0-10.02-1.71l-1.86 10.85a5.087 5.087 0 0 0 4.16 5.87c.29.05.58.08.86.08a5.09 5.09 0 0 0 5.01-4.24l1.85-10.85Z" stroke="#31333A" stroke-width="2.126"/><path fill-rule="evenodd" clip-rule="evenodd" d="M119.195 76.232c2.77-.49 5.41 1.35 5.9 4.11l1.94 10.84c.44 2.48-.99 4.85-3.27 5.68-.27.09-.55.17-.84.22-2.77.5-5.41-1.35-5.9-4.11l-1.94-10.84c-.49-2.76 1.35-5.41 4.11-5.9Z" fill="#fff"/><path d="M125.095 80.342c-.49-2.76-3.13-4.6-5.9-4.11-2.76.49-4.6 3.14-4.11 5.9l1.94 10.84a5.078 5.078 0 0 0 5.9 4.11c.29-.05.57-.13.84-.22 2.28-.83 3.71-3.2 3.27-5.68l-1.94-10.84Z" stroke="#31333A" stroke-width="2.126"/><path fill-rule="evenodd" clip-rule="evenodd" d="M219.739 177.122a19.32 19.32 0 0 1 9.652-1.977c10.72.58 18.94 9.73 18.37 20.45-.58 10.72-9.74 18.94-20.46 18.37a19.376 19.376 0 0 1-5.613-1.143 4.498 4.498 0 0 1-5.583-1.334c-.25-.33-.47-.71-.62-1.13a4.214 4.214 0 0 1-.278-1.483 19.864 19.864 0 0 1-.394-.372 4.52 4.52 0 0 1-5.184-1.501c-.15-.21-.29-.42-.41-.66a4.487 4.487 0 0 1-.411-2.96l-.733-.554a4.526 4.526 0 0 1-4.728-1.645c-.15-.21-.29-.42-.41-.66a4.475 4.475 0 0 1-.5-1.952l-.326-.245-1.476.862a5.725 5.725 0 0 1-7.18-1.63 6.25 6.25 0 0 1-.51-.82 5.714 5.714 0 0 1 2.45-7.7l19.86-11.59a5.692 5.692 0 0 1 4.484-.326Z" fill="#fff"/><path d="M219.739 177.122a19.32 19.32 0 0 1 9.652-1.977c10.72.58 18.94 9.73 18.37 20.45-.58 10.72-9.74 18.94-20.46 18.37a19.376 19.376 0 0 1-5.613-1.143 4.498 4.498 0 0 1-5.583-1.334c-.25-.33-.47-.71-.62-1.13a4.214 4.214 0 0 1-.278-1.483 19.864 19.864 0 0 1-.394-.372 4.52 4.52 0 0 1-5.184-1.501c-.15-.21-.29-.42-.41-.66a4.487 4.487 0 0 1-.411-2.96l-.733-.554a4.526 4.526 0 0 1-4.728-1.645c-.15-.21-.29-.42-.41-.66a4.475 4.475 0 0 1-.5-1.952l-.326-.245-1.476.862a5.725 5.725 0 0 1-7.18-1.63 6.25 6.25 0 0 1-.51-.82 5.714 5.714 0 0 1 2.45-7.7l19.86-11.59a5.692 5.692 0 0 1 4.484-.326Z" stroke="#31333A" stroke-width="2.126"/><path fill-rule="evenodd" clip-rule="evenodd" d="M248.079 197.478c.63-5.85-1.38-11.31-5.03-15.27l.46-.74 12.78 7.66s6.71 11.94-2.35 26.32c-4.22 6.7-13.07 11.2-18.35 10.52-2.29-.3-4.65-1.72-6.53-3.07-3.72-2.66-6.92-5.29-6.86-8.18.043-1.842.743-1.15 1.14-.756.164.162.276.273.27.136 2.6.72 5.42.94 8.39.42 8.49-1.49 15.15-8.47 16.08-17.04Z" fill="#DCDDDD"/><path d="M243.049 182.208c3.65 3.96 5.66 9.42 5.03 15.27-.93 8.57-7.59 15.55-16.08 17.04-2.97.52-5.79.3-8.39-.42.02.47-1.35-1.98-1.41.62-.06 2.89 3.14 5.52 6.86 8.18 1.88 1.35 4.24 2.77 6.53 3.07 5.28.68 14.13-3.82 18.35-10.52 9.06-14.38 2.35-26.32 2.35-26.32l-12.78-7.66-.46.74Z" stroke="#31333A" stroke-width="2.126"/><path fill-rule="evenodd" clip-rule="evenodd" d="M233.577 217.324c-1.27 0-2.31 1.04-2.31 2.31a2.32 2.32 0 0 0 2.31 2.32c1.28 0 2.32-1.04 2.32-2.32a2.32 2.32 0 0 0-2.32-2.31Z" fill="#B5B5B6"/><path fill-rule="evenodd" clip-rule="evenodd" d="M217.159 74.923a6.88 6.88 0 0 0-6.88 6.88c0 3.81 3.08 6.89 6.88 6.89 3.81 0 6.89-3.08 6.89-6.89 0-3.8-3.08-6.88-6.89-6.88Z" fill="#31333A"/></svg>